<svg width="336" height="97" viewBox="0 0 336 97" fill="none" xmlns="http://www.w3.org/2000/svg">
<g filter="url(#filter0_d)">
<g filter="url(#filter1_d)">
<path d="M18 17.125C18 9.00265 24.4381 2.35921 32.5578 2.15515C60.7077 1.44773 123.725 0 168 0C212.275 0 275.292 1.44773 303.442 2.15515C311.562 2.35921 318 9.00265 318 17.125V42.875C318 50.9973 311.562 57.6408 303.442 57.8448C275.292 58.5523 212.275 60 168 60C123.725 60 60.7077 58.5523 32.5578 57.8448C24.4381 57.6408 18 50.9973 18 42.875V17.125Z" fill="url(#paint0_linear)"/>
</g>
<mask id="mask0" style="mask-type:alpha" maskUnits="userSpaceOnUse" x="18" y="0" width="300" height="60">
<path d="M18 17.125C18 9.00265 24.4381 2.35921 32.5578 2.15515C60.7077 1.44773 123.725 0 168 0C212.275 0 275.292 1.44773 303.442 2.15515C311.562 2.35921 318 9.00265 318 17.125V42.875C318 50.9973 311.562 57.6408 303.442 57.8448C275.292 58.5523 212.275 60 168 60C123.725 60 60.7077 58.5523 32.5578 57.8448C24.4381 57.6408 18 50.9973 18 42.875V17.125Z" fill="url(#paint1_linear)"/>
</mask>
<g mask="url(#mask0)">
<g opacity="0.15">
<path d="M318.924 36.4878V36.6374C318.849 37.9837 318.849 39.3301 319 40.6764V76.9528L17 76.878V40.6764C17.2264 43.4439 17.8303 46.1366 18.9625 48.3057C19.2644 48.9041 19.5664 49.5772 20.1702 50.026C20.7741 50.4748 21.6043 50.5496 22.1327 50.026C24.0952 48.0813 25.6803 43.3691 27.039 40.3024C25.3784 44.4911 25.9068 51.6715 29.8318 53.9154C30.4356 52.5691 30.964 51.2228 31.2659 49.8016C31.7943 50.026 31.8698 50.774 32.0207 51.2976C32.1717 51.8959 32.7001 52.4943 33.2284 52.2699C33.5304 52.1203 33.6058 51.8959 33.7568 51.6715C36.4741 46.5106 39.2669 40.9008 38.2102 35.2163C38.0592 34.0943 37.7573 33.0472 37.3799 32C40.7011 35.2911 45.6073 39.0309 45.6073 44.2667C45.6073 50.4684 41.6151 57.939 47.7771 62.5775C46.3894 61.5056 49.3848 57.2025 50.1362 56.3089C51.7213 54.439 53.8348 52.4943 56.4011 52.4943C55.4954 52.4943 58.3637 59.6 58.892 60.1236C59.7223 61.0211 60.8545 61.6943 62.0622 61.6943C61.3829 60.722 61.081 59.6 61.081 58.4033C61.081 57.5805 61.3074 56.7577 61.5339 55.935C61.9868 54.5138 62.5906 53.0927 63.2699 51.7463C64.3267 49.5772 65.6853 47.2585 65.6853 44.7154C66.0627 40.3772 63.8738 36.3382 61.7603 32.5236C62.5906 33.8699 65.6853 34.3935 67.044 34.9919C69.1575 35.9642 70.7426 37.6846 72.1767 39.5545C75.6488 44.1171 78.0642 50.026 78.2907 55.7106C78.3662 57.3561 78.2907 59.3756 79.5739 60.6472C80.1777 60.1984 80.3287 59.3008 80.4041 58.4781C80.6306 56.3837 81.159 54.439 82.0647 52.5691C81.6873 54.065 81.9893 55.6358 82.8195 56.9073C83.6498 58.1041 85.0085 59.0016 86.5181 59.226C84.383 58.8612 90.6501 50.0993 91.6602 49.0438C91.6805 49.0217 91.7025 49.0001 91.7263 48.9789C91.7078 48.9954 91.6856 49.0171 91.6602 49.0438C90.3892 50.4211 95.7423 53.3919 96.7081 53.3919C94.6701 49.4276 98.0667 42.6959 100.709 39.7041C100.18 42.6959 101.312 45.8374 103.501 47.9317C104.332 48.7545 105.313 49.3528 106.068 50.1756C107.879 52.1203 108.408 54.8878 108.332 57.5057C109.691 54.813 110.37 51.5967 109.162 48.8293C108.634 47.7073 107.879 46.735 107.502 45.5382C106.294 41.574 109.917 36.7122 113.087 34.6927C112.333 35.8894 112.257 37.4602 112.786 38.8065C113.465 40.3772 114.899 41.4992 116.107 42.7707C118.598 45.3886 120.032 49.0537 120.032 52.7187C122.221 49.3528 122.523 44.9398 120.862 41.2748C123.806 42.6211 125.391 45.0894 126.901 47.7821C128.41 50.4 130.297 52.4943 130.75 55.6358C131.505 55.0374 132.109 54.2894 132.486 53.4667C132.864 54.813 133.09 56.3089 133.09 57.7301C133.09 55.561 140.94 52.7187 142.525 52.4195C141.393 54.5138 141.393 57.1317 142.374 59.3008C143.129 57.5057 143.884 55.6358 144.488 53.7659C146.45 53.6163 148.413 54.5138 149.545 56.0846C150.3 53.0179 148.715 50.5496 148.111 47.6325C147.507 44.865 148.337 41.6488 149.847 39.2553C151.507 36.6374 154.225 34.7675 157.244 34.0195C155.659 36.9366 153.998 40.3772 155.281 43.4439C155.734 44.4911 156.489 45.3886 157.017 46.361C158.301 48.6049 158.678 51.2976 158.98 53.8407C159.961 50.6244 161.848 47.7821 164.415 45.613C163.962 47.7073 165.018 49.652 166.075 51.3724C167.283 49.5772 169.623 48.2309 171.359 46.8846C172.34 46.0618 173.397 45.239 174.529 44.7154C173.397 47.5577 172.944 50.5496 173.246 53.5415C173.321 54.5886 173.623 55.6358 174.378 56.3089C175.359 55.1122 175.812 53.4667 175.586 51.8959C177.012 53.309 178.214 54.87 179.415 56.4318C178.15 54.7625 177.927 50.09 178.228 48.0813C178.756 44.9398 180.039 42.0228 182.077 39.5545C184.719 36.3382 188.569 34.0943 192.72 33.3463C188.72 38.1333 188.493 45.4634 192.116 50.4748C195.06 46.5106 195.966 41.2 194.607 36.4878C194.683 36.6374 199.589 37.9089 200.193 38.2081C204.269 40.0033 206.835 42.5463 207.061 47.1089C207.212 50.9984 207.061 54.8878 206.533 58.7772C207.665 55.7106 209.326 52.7935 211.515 50.3252C211.364 52.1203 211.364 53.9154 211.439 55.7106C213.251 53.0179 214.081 50.2504 213.93 46.9593C217.931 48.7545 221.176 52.1951 222.611 56.3089C222.158 54.9626 225.177 51.7463 225.856 50.774C226.611 52.7187 227.441 54.6634 228.347 56.5333C227.366 54.3642 232.197 49.4276 233.48 48.2309C236.122 45.7626 239.669 44.1171 243.368 43.7431C240.5 48.5301 239.896 54.5138 241.632 59.7496C242.689 57.6553 243.443 55.3366 243.745 53.0179C247.217 54.5886 250.161 57.1317 252.124 60.348C253.18 58.4781 253.784 56.3837 253.86 54.2146C253.935 52.1951 253.18 50.6992 252.879 48.7545C252.353 45.2601 253.693 41.4701 256.377 39.074C256.393 39.0595 256.409 39.0451 256.426 39.0309C256.41 39.0452 256.394 39.0596 256.377 39.074C255.002 40.3591 258.774 42.8522 259.521 43.4439C261.71 45.0894 264.05 46.4358 264.956 49.2033C265.408 50.6992 265.333 52.2699 265.635 53.7659C265.936 55.2557 266.611 56.8198 267.958 57.5714C267.376 57.2141 267.674 53.6101 267.748 52.9431C267.975 50.9236 268.579 48.9789 269.56 47.1837C270.752 44.9681 272.313 42.9712 273.951 41.0491C273.971 41.0244 273.992 40.9999 274.013 40.9756C273.992 41.0001 273.971 41.0246 273.951 41.0491C271.574 43.9123 274.557 49.372 276.353 51.5967C279.146 55.0374 279.901 58.4033 280.203 62.7415C280.731 60.0488 281.259 57.2813 281.788 54.5886C282.392 55.4114 282.467 56.4585 282.618 57.4309C282.769 58.4033 282.996 59.4504 283.599 60.1984C284.203 60.9463 285.486 61.3203 286.241 60.722C286.694 60.348 286.921 59.8244 287.071 59.226C287.524 57.2813 287.6 55.4114 287.147 53.4667C290.77 54.7382 293.94 57.2813 295.903 60.5724C297.337 56.9821 298.771 53.3171 299.526 49.5772C299.828 48.0065 300.054 46.4358 300.054 44.7902C301.413 45.9122 302.545 47.2585 303.451 48.8293C304.357 49.8016 305.489 50.6244 306.772 50.5496C308.508 50.4748 309.338 48.9789 310.32 47.7821C311.301 46.6602 312.358 45.5382 313.414 44.4163C315.603 42.0976 317.868 39.5545 318.924 36.4878Z" fill="url(#paint2_linear)"/>
</g>
</g>
<g filter="url(#filter2_d)">
<path d="M62.3822 37.27C61.4942 37.27 60.6542 37.144 59.8622 36.892C59.0822 36.64 58.3982 36.256 57.8102 35.74C57.2222 35.212 56.7542 34.54 56.4062 33.724C56.0702 32.908 55.9022 31.93 55.9022 30.79V30.43C55.9022 29.35 56.0702 28.42 56.4062 27.64C56.7542 26.848 57.2222 26.194 57.8102 25.678C58.3982 25.15 59.0822 24.76 59.8622 24.508C60.6542 24.256 61.4942 24.13 62.3822 24.13C63.2702 24.13 64.1042 24.256 64.8842 24.508C65.6762 24.76 66.3662 25.15 66.9542 25.678C67.5422 26.194 68.0042 26.848 68.3402 27.64C68.6882 28.42 68.8622 29.35 68.8622 30.43V30.79C68.8622 31.906 68.6882 32.872 68.3402 33.688C68.0042 34.504 67.5422 35.182 66.9542 35.722C66.3662 36.25 65.6762 36.64 64.8842 36.892C64.1042 37.144 63.2702 37.27 62.3822 37.27ZM62.3822 33.418C62.8862 33.418 63.2822 33.22 63.5702 32.824C63.8582 32.416 64.0022 31.738 64.0022 30.79V30.43C64.0022 29.566 63.8582 28.942 63.5702 28.558C63.2822 28.174 62.8862 27.982 62.3822 27.982C61.8782 27.982 61.4822 28.174 61.1942 28.558C60.9062 28.942 60.7622 29.566 60.7622 30.43V30.79C60.7622 31.738 60.9062 32.416 61.1942 32.824C61.4822 33.22 61.8782 33.418 62.3822 33.418ZM73.4204 28.216H70.1264V24.4H81.4664V28.216H78.1724V37H73.4204V28.216ZM89.1234 37.27C88.2234 37.27 87.3834 37.156 86.6034 36.928C85.8234 36.688 85.1454 36.31 84.5694 35.794C84.0054 35.278 83.5554 34.612 83.2194 33.796C82.8954 32.968 82.7334 31.966 82.7334 30.79V30.43C82.7334 29.314 82.9014 28.36 83.2374 27.568C83.5734 26.776 84.0294 26.128 84.6054 25.624C85.1934 25.108 85.8714 24.73 86.6394 24.49C87.4194 24.25 88.2474 24.13 89.1234 24.13C89.9154 24.13 90.6654 24.226 91.3734 24.418C92.0934 24.598 92.7294 24.904 93.2814 25.336C93.8334 25.756 94.2774 26.302 94.6134 26.974C94.9494 27.646 95.1294 28.468 95.1534 29.44H90.4734C90.4134 28.864 90.2514 28.48 89.9874 28.288C89.7234 28.084 89.4354 27.982 89.1234 27.982C88.9194 27.982 88.7274 28.024 88.5474 28.108C88.3674 28.192 88.2054 28.33 88.0614 28.522C87.9174 28.714 87.8034 28.966 87.7194 29.278C87.6354 29.59 87.5934 29.974 87.5934 30.43V30.79C87.5934 31.702 87.7314 32.368 88.0074 32.788C88.2954 33.208 88.6674 33.418 89.1234 33.418C89.4474 33.418 89.7354 33.322 89.9874 33.13C90.2514 32.938 90.4134 32.548 90.4734 31.96H95.1534C95.1294 32.956 94.9494 33.796 94.6134 34.48C94.2894 35.152 93.8514 35.698 93.2994 36.118C92.7594 36.526 92.1294 36.82 91.4094 37C90.6894 37.18 89.9274 37.27 89.1234 37.27ZM97.0364 24.4H101.788V29.026H102.328L104.776 24.4H109.816L106.306 30.25L109.996 37H104.668L102.328 32.194H101.788V37H97.0364V24.4ZM119.486 35.308H116.21L115.76 37H111.368L115.832 24.4H120.584L125.048 37H119.936L119.486 35.308ZM117.128 31.852H118.55L117.848 28.72L117.128 31.852ZM126.698 24.4H131.45V28.702H134.186V24.4H138.938V37H134.186V32.518H131.45V37H126.698V24.4ZM141.274 24.4H146.026V29.8L149.122 24.4H153.514V37H148.762V31.6L145.666 37H141.274V24.4ZM155.849 24.4H161.699C163.631 24.4 165.029 24.796 165.893 25.588C166.757 26.368 167.189 27.49 167.189 28.954C167.189 30.334 166.757 31.408 165.893 32.176C165.029 32.944 163.631 33.328 161.699 33.328H160.601V37H155.849V24.4ZM161.141 30.052C161.633 30.052 161.969 29.944 162.149 29.728C162.341 29.512 162.437 29.254 162.437 28.954C162.437 28.654 162.341 28.396 162.149 28.18C161.957 27.964 161.621 27.856 161.141 27.856H160.601V30.052H161.141ZM175.279 37.27C174.391 37.27 173.551 37.144 172.759 36.892C171.979 36.64 171.295 36.256 170.707 35.74C170.119 35.212 169.651 34.54 169.303 33.724C168.967 32.908 168.799 31.93 168.799 30.79V30.43C168.799 29.35 168.967 28.42 169.303 27.64C169.651 26.848 170.119 26.194 170.707 25.678C171.295 25.15 171.979 24.76 172.759 24.508C173.551 24.256 174.391 24.13 175.279 24.13C176.167 24.13 177.001 24.256 177.781 24.508C178.573 24.76 179.263 25.15 179.851 25.678C180.439 26.194 180.901 26.848 181.237 27.64C181.585 28.42 181.759 29.35 181.759 30.43V30.79C181.759 31.906 181.585 32.872 181.237 33.688C180.901 34.504 180.439 35.182 179.851 35.722C179.263 36.25 178.573 36.64 177.781 36.892C177.001 37.144 176.167 37.27 175.279 37.27ZM175.279 33.418C175.783 33.418 176.179 33.22 176.467 32.824C176.755 32.416 176.899 31.738 176.899 30.79V30.43C176.899 29.566 176.755 28.942 176.467 28.558C176.179 28.174 175.783 27.982 175.279 27.982C174.775 27.982 174.379 28.174 174.091 28.558C173.803 28.942 173.659 29.566 173.659 30.43V30.79C173.659 31.738 173.803 32.416 174.091 32.824C174.379 33.22 174.775 33.418 175.279 33.418ZM183.735 24.4H191.025C192.453 24.4 193.515 24.67 194.211 25.21C194.907 25.75 195.255 26.602 195.255 27.766C195.255 28.414 195.093 28.972 194.769 29.44C194.457 29.896 194.019 30.226 193.455 30.43C195.015 30.79 195.795 31.792 195.795 33.436C195.795 34.612 195.423 35.5 194.679 36.1C193.935 36.7 192.711 37 191.007 37H183.735V24.4ZM189.567 33.904C190.131 33.904 190.515 33.832 190.719 33.688C190.935 33.544 191.043 33.292 191.043 32.932C191.043 32.584 190.935 32.338 190.719 32.194C190.503 32.05 190.107 31.978 189.531 31.978H188.487V33.904H189.567ZM189.333 29.242C189.741 29.242 190.035 29.176 190.215 29.044C190.407 28.9 190.503 28.672 190.503 28.36C190.503 28.048 190.407 27.826 190.215 27.694C190.035 27.562 189.753 27.496 189.369 27.496H188.487V29.242H189.333ZM204.936 35.308H201.66L201.21 37H196.818L201.282 24.4H206.034L210.498 37H205.386L204.936 35.308ZM202.578 31.852H204L203.298 28.72L202.578 31.852ZM213.465 28.216H210.171V24.4H221.511V28.216H218.217V37H213.465V28.216ZM223.49 24.4H228.242V28.072H229.34C231.272 28.072 232.67 28.456 233.534 29.224C234.398 29.992 234.83 31.066 234.83 32.446C234.83 33.91 234.398 35.038 233.534 35.83C232.67 36.61 231.272 37 229.34 37H223.49V24.4ZM228.782 33.544C229.262 33.544 229.598 33.436 229.79 33.22C229.982 33.004 230.078 32.746 230.078 32.446C230.078 32.146 229.982 31.888 229.79 31.672C229.61 31.456 229.274 31.348 228.782 31.348H228.242V33.544H228.782ZM248.34 32.428C248.028 32.632 247.65 32.806 247.206 32.95C246.774 33.094 246.222 33.166 245.55 33.166C244.254 33.166 243.294 32.842 242.67 32.194C242.058 31.534 241.752 30.478 241.752 29.026V24.4H246.504V28.09C246.504 28.582 246.57 28.912 246.702 29.08C246.834 29.236 247.074 29.314 247.422 29.314C247.758 29.314 248.064 29.23 248.34 29.062V24.4H253.092V37H248.34V32.428ZM255.44 24.4H265.34V27.856H260.192V29.152H264.8V32.068H260.192V33.544H265.34V37H255.44V24.4ZM267.414 24.4H272.166V29.026H272.706L275.154 24.4H280.194L276.684 30.25L280.374 37H275.046L272.706 32.194H272.166V37H267.414V24.4Z" fill="white"/>
</g>
</g>
<defs>
<filter id="filter0_d" x="0" y="0" width="336" height="97" filterUnits="userSpaceOnUse" color-interpolation-filters="sRGB">
<feFlood flood-opacity="0" result="BackgroundImageFix"/>
<feColorMatrix in="SourceAlpha" type="matrix" values="0 0 0 0 0 0 0 0 0 0 0 0 0 0 0 0 0 0 127 0" result="hardAlpha"/>
<feOffset dy="19"/>
<feGaussianBlur stdDeviation="9"/>
<feComposite in2="hardAlpha" operator="out"/>
<feColorMatrix type="matrix" values="0 0 0 0 1 0 0 0 0 0.494118 0 0 0 0 0.0705882 0 0 0 0.25 0"/>
<feBlend mode="normal" in2="BackgroundImageFix" result="effect1_dropShadow"/>
<feBlend mode="normal" in="SourceGraphic" in2="effect1_dropShadow" result="shape"/>
</filter>
<filter id="filter1_d" x="18" y="0" width="300" height="64" filterUnits="userSpaceOnUse" color-interpolation-filters="sRGB">
<feFlood flood-opacity="0" result="BackgroundImageFix"/>
<feColorMatrix in="SourceAlpha" type="matrix" values="0 0 0 0 0 0 0 0 0 0 0 0 0 0 0 0 0 0 127 0" result="hardAlpha"/>
<feOffset dy="4"/>
<feComposite in2="hardAlpha" operator="out"/>
<feColorMatrix type="matrix" values="0 0 0 0 0.845833 0 0 0 0 0.392708 0 0 0 0 0 0 0 0 1 0"/>
<feBlend mode="normal" in2="BackgroundImageFix" result="effect1_dropShadow"/>
<feBlend mode="normal" in="SourceGraphic" in2="effect1_dropShadow" result="shape"/>
</filter>
<filter id="filter2_d" x="53.9021" y="24.13" width="228.472" height="17.14" filterUnits="userSpaceOnUse" color-interpolation-filters="sRGB">
<feFlood flood-opacity="0" result="BackgroundImageFix"/>
<feColorMatrix in="SourceAlpha" type="matrix" values="0 0 0 0 0 0 0 0 0 0 0 0 0 0 0 0 0 0 127 0" result="hardAlpha"/>
<feOffset dy="2"/>
<feGaussianBlur stdDeviation="1"/>
<feComposite in2="hardAlpha" operator="out"/>
<feColorMatrix type="matrix" values="0 0 0 0 0.3625 0 0 0 0 0.169167 0 0 0 0 0.0604167 0 0 0 0.25 0"/>
<feBlend mode="normal" in2="BackgroundImageFix" result="effect1_dropShadow"/>
<feBlend mode="normal" in="SourceGraphic" in2="effect1_dropShadow" result="shape"/>
</filter>
<linearGradient id="paint0_linear" x1="18" y1="2.5352" x2="312.71" y2="78.0957" gradientUnits="userSpaceOnUse">
<stop stop-color="#FFB800"/>
<stop offset="1" stop-color="#FF7400"/>
</linearGradient>
<linearGradient id="paint1_linear" x1="18" y1="2.5352" x2="312.71" y2="78.0957" gradientUnits="userSpaceOnUse">
<stop stop-color="#FFB800"/>
<stop offset="1" stop-color="#FF7400"/>
</linearGradient>
<linearGradient id="paint2_linear" x1="167.962" y1="80.6559" x2="167.962" y2="38.3992" gradientUnits="userSpaceOnUse">
<stop stop-color="#FFF367"/>
<stop offset="0.0719983" stop-color="#FDDB58"/>
<stop offset="0.2056" stop-color="#F9B43F"/>
<stop offset="0.3287" stop-color="#F6982E"/>
<stop offset="0.4362" stop-color="#F58723"/>
<stop offset="0.5161" stop-color="#F4811F"/>
<stop offset="0.8388" stop-color="#E53C25"/>
<stop offset="1" stop-color="#DF1F27"/>
</linearGradient>
</defs>
</svg>
