<svg width="50" height="50" viewBox="0 0 50 50" fill="none" xmlns="http://www.w3.org/2000/svg">
<g clip-path="url(#clip0)">
<path fill-rule="evenodd" clip-rule="evenodd" d="M15.2089 0C15.2089 0 20.3089 5.4 17.5089 13.1C15.2089 19.3 9.00894 25.6 7.50894 32.1C6.50894 36.4 7.30894 47.1 19.3089 50.6C10.3089 43.2 13.1089 34.2 22.1089 27.6C22.1089 27.6 19.0089 33.9 20.9089 36.3C24.4089 40.8 28.6089 41.6 25.6089 50.7C30.5089 49 33.1089 43.3 26.5089 37.9C30.0089 39.1 32.2089 41.4 33.1089 44.8L36.3089 39.6C36.3089 45.8 33.4089 48.3 31.5089 50.6C46.7089 44 43.2089 29.5 40.0089 25.3C40.0089 25.3 38.9089 29.5 35.4089 32.6C35.4089 32.6 42.2089 14.2 15.2089 0Z" fill="url(#paint0_linear)"/>
<path fill-rule="evenodd" clip-rule="evenodd" d="M36.9089 50.4C41.8089 47.3 49.5089 36.3 43.9089 24.5C42.5089 21.6 37.4089 17.8 42.0089 14.8C39.1089 17.8 41.8089 19.5 43.8089 21.9C53.5089 34.2 44.4089 50.1 36.9089 50.4Z" fill="url(#paint1_linear)"/>
<path fill-rule="evenodd" clip-rule="evenodd" d="M31.509 8.79999C35.109 14.5 41.609 17.5 37.809 25.3C38.709 17.2 33.009 15.9 31.509 8.79999Z" fill="url(#paint2_linear)"/>
<path fill-rule="evenodd" clip-rule="evenodd" d="M14.909 2.90002C14.909 2.90002 15.009 3.00002 15.209 3.30002C15.309 3.40002 15.409 3.60002 15.509 3.90002C15.609 4.10002 15.709 4.40002 15.809 4.70002C15.909 5.00002 16.009 5.40002 16.009 5.70002C16.009 6.00002 16.009 6.20002 16.009 6.40002C16.009 6.50002 16.009 6.60002 16.009 6.70002C16.009 6.80002 16.009 6.90002 16.009 7.00002C16.009 7.20002 16.009 7.50002 16.009 7.70002C16.009 7.90002 16.009 8.20002 16.009 8.40002C16.009 8.70002 16.009 9.00002 16.009 9.30002C16.009 9.60002 15.909 9.80002 15.909 10.1C15.909 10.2 15.909 10.4 15.809 10.5C15.809 10.6 15.709 10.8 15.709 10.9C15.609 11.2 15.509 11.5 15.509 11.8C15.409 12.1 15.309 12.4 15.209 12.7C15.109 13 15.009 13.3 14.909 13.6C14.809 13.9 14.609 14.2 14.509 14.5C14.409 14.8 14.209 15.1 14.109 15.4C14.009 15.7 13.809 16 13.609 16.3C13.409 16.6 13.209 16.9 13.109 17.2C13.009 17.3 12.909 17.5 12.809 17.6L12.509 18C12.309 18.3 12.109 18.6 11.909 18.8C11.409 19 11.209 19.3 11.009 19.6C10.809 19.9 10.509 20.1 10.309 20.4C10.109 20.7 9.80902 20.9 9.60902 21.2L9.30902 21.6L8.90902 22L8.50902 22.4L8.20902 22.8C8.00902 23 7.80902 23.3 7.60902 23.6C6.70902 24.6 6.00902 25.8 5.40902 27C4.80902 28.2 4.30902 29.4 4.00902 30.6C3.70902 31.8 3.60902 33 3.60902 34.2C3.60902 35.4 3.80902 36.5 4.10902 37.4C4.60902 39.4 5.50902 40.9 6.30902 41.9C6.70902 42.4 7.00902 42.8 7.20902 43C7.40902 43.2 7.60902 43.4 7.60902 43.4C7.60902 43.4 7.60902 43.4 7.50902 43.3C7.40902 43.3 7.30902 43.2 7.20902 43.1C6.90902 43 6.50902 42.7 6.00902 42.2C5.10902 41.3 3.90902 39.9 3.00902 37.8C2.60902 36.8 2.20902 35.6 2.10902 34.3C1.90902 33 2.00902 31.6 2.20902 30.2C2.40902 28.8 2.90902 27.4 3.60902 26C4.20902 24.7 5.10902 23.4 6.00902 22.2C6.20902 21.9 6.50902 21.6 6.70902 21.3L7.00902 21L7.40902 20.6C7.90902 20.1 8.40902 19.6 8.80902 19C9.30902 18.5 9.70902 18 10.109 17.5C10.309 17.2 10.509 17 10.709 16.7L11.009 16.3C11.109 16.2 11.209 16 11.309 15.9C11.509 15.6 11.709 15.4 11.909 15.1C12.109 14.8 12.309 14.6 12.409 14.3C12.709 13.8 13.109 13.3 13.309 12.7C13.409 12.4 13.609 12.2 13.709 11.9C13.809 11.6 14.009 11.4 14.109 11.1C14.209 10.8 14.309 10.6 14.409 10.3C14.409 10.2 14.509 10.1 14.509 9.90002C14.509 9.80002 14.609 9.60002 14.609 9.50002C14.709 9.30002 14.709 9.00002 14.809 8.80002C15.009 8.80002 15.009 8.60002 15.109 8.30002C15.109 8.10002 15.209 7.80002 15.209 7.60002C15.209 7.40002 15.309 7.20002 15.309 7.00002C15.309 6.90002 15.309 6.80002 15.309 6.70002C15.309 6.60002 15.309 6.50002 15.309 6.40002C15.309 6.20002 15.309 6.00002 15.309 5.80002C15.309 5.40002 15.309 5.10002 15.309 4.80002C15.209 4.20002 15.109 3.70002 15.109 3.40002C15.009 3.10002 14.909 2.90002 14.909 2.90002Z" fill="url(#paint3_linear)"/>
</g>
<defs>
<linearGradient id="paint0_linear" x1="24.9956" y1="10.3169" x2="24.9956" y2="48.0471" gradientUnits="userSpaceOnUse">
<stop stop-color="#FFB800"/>
<stop offset="1" stop-color="#FF7400"/>
</linearGradient>
<linearGradient id="paint1_linear" x1="42.4633" y1="22.0442" x2="42.4633" y2="48.5372" gradientUnits="userSpaceOnUse">
<stop stop-color="#FFB800"/>
<stop offset="1" stop-color="#FF7400"/>
</linearGradient>
<linearGradient id="paint2_linear" x1="35.236" y1="12.1575" x2="35.236" y2="24.4366" gradientUnits="userSpaceOnUse">
<stop stop-color="#FFB800"/>
<stop offset="1" stop-color="#FF7400"/>
</linearGradient>
<linearGradient id="paint3_linear" x1="9.00451" y1="11.1413" x2="9.00451" y2="41.2808" gradientUnits="userSpaceOnUse">
<stop stop-color="#FFB800"/>
<stop offset="1" stop-color="#FF7400"/>
</linearGradient>
<clipPath id="clip0">
<rect width="50" height="50" fill="white"/>
</clipPath>
</defs>
</svg>
