<svg width="60" height="68" viewBox="0 0 60 68" fill="none" xmlns="http://www.w3.org/2000/svg">
<g clip-path="url(#clip0_1848:598)">
<path d="M51.4991 8.49116C52.522 6.31572 50.4409 5.99993 50.97 4.31572C51.2875 3.29818 52.2046 2.24555 52.2046 2.24555C52.2046 2.24555 48.0423 4.59642 50.1235 6.21046C51.0406 6.91221 51.4991 8.49116 51.4991 8.49116ZM60 67.9999H0C0 51.8245 0 35.6491 0 19.4736C0.0705467 16.1754 2.04586 13.1929 3.63316 11.7543C6.73721 8.87712 5.32628 5.19291 5.32628 5.19291C5.32628 5.19291 9.06526 8.28063 8.04233 12.1754C7.37213 14.7719 7.26631 16.9824 8.67725 19.228C8.46561 16.0701 10.0529 12.842 12.5926 11.4034C16.3316 9.29818 15.5908 8.3859 15.097 6.56134C14.709 5.01748 14.7443 3.64905 16.1552 2.52625C16.7901 1.99993 18.6949 0.491159 19.5767 -0.0351562C17.3898 2.49116 17.3192 3.26309 19.2593 5.57888C20.2469 6.73677 21.3051 8.24555 21.9048 9.82449C24.9735 1.54379 32.0988 7.57888 33.0864 0.456072C35.3792 3.15783 35.8025 4.77186 35.873 6.10519C36.1199 10.6315 37.284 11.6841 39.1534 15.5789C39.5062 14.8069 39.8942 14.035 40.2469 13.228C42.6455 8.10519 47.231 5.5087 47.231 5.5087C47.231 5.5087 46.067 12.0701 48.9242 15.0876C48.3598 12.4912 50.5467 9.96484 50.5467 9.96484C50.5467 9.96484 49.8413 14.3508 51.2522 14.2806C52.6631 14.2105 51.3228 11.2631 51.3228 11.2631C51.3228 11.2631 53.3333 13.3333 52.8748 14.7017C54.7443 12.4912 56.6843 10.5964 57.3192 9.47361C58.5538 7.228 57.0723 4.42098 57.0723 4.42098L58.4832 6.52625C59.8942 8.63151 56.1552 14.3157 58.9418 19.0526C59.3298 19.6841 59.6825 20.3508 59.9647 20.9824C60 36.6666 60 52.3508 60 67.9999ZM2.18695 8.77186C5.39683 6.21046 1.62257 2.35081 1.62257 2.35081C1.62257 2.35081 2.32804 4.07011 2.39859 5.85958C2.50441 7.61397 2.18695 8.77186 2.18695 8.77186ZM39.2945 14.8069C35.9436 8.91221 38.5538 5.99993 40.2116 3.85958C41.9048 1.71923 41.552 0.385896 41.552 0.385896C41.552 0.385896 44.1623 2.84204 42.1164 5.47362C40.0705 8.14028 41.4815 9.7894 41.7284 10.3859C40.4233 12.1052 39.2945 14.8069 39.2945 14.8069Z" fill="#E30613"/>
<path d="M58.4834 32.1403C58.1659 32.1052 57.8837 32.0701 57.6015 32C55.9437 32.3859 53.792 31.1228 51.8167 28.8772C50.7938 27.7193 50.2647 26.421 50.2294 24.8772C48.1483 25.5789 45.3264 25.5087 43.1395 25.4386C42.8573 25.4386 42.6456 25.4035 42.434 25.3684C42.3282 28.0701 40.7761 29.5438 38.695 30.3508C35.4499 31.6491 32.5574 32.807 32.5574 32.807C25.8555 32.3508 22.1165 29.9649 20.2823 26.807C19.6121 29.4736 18.7656 31.3333 18.0248 31.5438C15.6262 32.1754 12.0284 31.7894 9.38285 27.228C9.34758 27.1929 9.3123 27.1228 9.3123 27.0877C6.52571 27.4035 3.80966 27.5087 1.48162 27.4035V21.1579C2.08126 21.2631 2.50454 21.228 2.50454 21.228C2.46927 21.1228 -0.811153 20.6666 0.917242 16C1.94017 13.1929 4.97368 12.3508 5.92606 10.7017C7.09008 8.70172 6.77262 7.75435 6.77262 7.75435C6.77262 7.75435 7.93664 10.9122 6.45516 13.228C4.93841 15.5789 7.51336 17.9649 9.38285 19.2631C10.5469 16.3508 12.0636 13.7543 14.8149 12.1403C20.247 8.98242 13.6157 6.35084 17.4252 2.10522C16.0142 5.01751 17.2135 5.54382 19.083 6.98242C20.2118 8.07014 20.882 9.8947 21.2347 12.035C24.7268 3.57891 32.24 7.22803 33.1571 2.56137C33.1571 2.84207 33.2276 3.8947 32.3105 6.24558C30.8643 9.8947 28.6774 10.1052 31.2523 14.1403C32.4164 16 34.2506 18.035 33.8273 17.4386C33.6862 17.228 31.0407 14 31.8167 9.96487C32.5574 6.03505 34.0389 4.84207 34.0389 4.84207C34.0389 4.84207 34.3564 8.70172 35.2735 11.5087C36.0848 13.9298 37.7779 13.2631 39.9649 17.3333C40.2823 13.3684 43.6333 8.87715 45.15 7.43856C47.5486 5.19294 43.8097 9.92979 46.3141 13.0526C48.0072 15.1228 50.6174 16.9473 51.9931 18.9473C52.8749 17.2631 54.1095 15.4035 55.732 13.228C55.732 13.228 54.8855 16.4561 57.0372 18.9122C57.531 19.4736 57.9895 20.2105 58.4128 21.0175V32.1403H58.4834ZM39.3299 15.1579C36.7902 9.50873 38.2012 6.80698 39.5416 5.82452C41.0231 4.7368 41.5169 4.38593 41.5169 4.38593C41.5169 4.38593 38.9067 7.05259 40.0354 9.05259C40.4587 9.82452 41.1994 10.1754 41.9754 10.3508C41.3405 11.1929 40.7409 12.1403 40.247 13.228C39.9649 13.8947 39.6474 14.5263 39.3299 15.1579Z" fill="#EF7D00"/>
<path fill-rule="evenodd" clip-rule="evenodd" d="M58.4832 22.1755C58.2716 21.7544 58.0247 21.3334 57.7072 20.9474C55.0617 17.6141 54.4268 16.5966 54.4268 16.5966C54.4268 16.5966 51.6402 19.2632 52.6631 22.8773C52.6984 23.0527 52.7689 23.193 52.8042 23.3334C52.2046 22.1053 50.6878 19.7194 47.6543 17.7194C41.9753 13.9299 42.8571 10.8773 42.8571 10.8773C40.5644 15.4036 40.2116 19.7194 40.2822 22.386C39.4003 20.5966 37.2839 18.9825 35.0617 18.386C29.7707 16.9474 28.9241 11.8948 28.9241 11.8948C28.9241 11.8948 26.9841 15.0176 29.3121 17.7544C29.9471 18.4913 29.2769 19.2632 28.7125 18.2808C28.3598 17.7194 28.0776 16.4211 27.7248 15.2983C25.7848 9.6141 29.0652 7.15796 29.0652 7.15796C29.0652 7.15796 23.6684 8.07024 20.8113 17.7895C20.6702 18.2808 20.5643 18.7369 20.4585 19.193C19.612 17.3685 18.977 15.6843 19.1887 14.1053C19.6472 10.6316 18.9418 9.50884 18.9418 9.50884C18.6949 13.193 13.6508 11.5088 10.1587 18.3509C9.66488 19.2983 9.31214 20.1755 9.06523 21.0176C7.93648 20.2457 6.91355 19.6141 6.13754 19.2281C2.64548 17.4387 3.73895 14.4211 3.73895 14.4211C-0.776041 20.1755 4.1975 21.6492 4.1975 21.6492C4.09168 22.0001 2.92766 22.0351 1.552 21.7544V66.4913H58.5185V22.1755H58.4832ZM33.7919 7.19305C32.0987 11.2983 32.522 14.386 35.5203 17.0527C38.5538 19.7194 39.7178 21.0878 39.7178 21.0878C39.7178 21.0878 38.9418 17.7895 36.5432 14.6667C34.1446 11.579 33.7919 7.19305 33.7919 7.19305Z" fill="url(#paint0_linear_1848:598)"/>
<path d="M20.5291 32.8422C20.388 32.5966 20.2116 32.351 20 32.0703C19.7883 31.7896 19.5767 31.544 19.3651 31.2633C19.1181 30.9826 18.9065 30.737 18.6596 30.4563C18.4127 30.2106 18.1658 29.965 17.9189 29.7896V32.8422H16.2963V25.6843H17.9189V28.3861C18.3421 27.965 18.7654 27.5089 19.1887 27.0177C19.612 26.5264 20.0353 26.1054 20.388 25.6843H22.328C21.8342 26.2808 21.3404 26.8071 20.8465 27.3685C20.3527 27.8949 19.8236 28.4563 19.2592 28.9826C19.8236 29.4738 20.388 30.0352 20.9171 30.7019C21.4462 31.3685 21.9753 32.0703 22.4691 32.8773H20.5291V32.8422ZM27.3721 30.737C27.1605 31.1931 26.9488 31.5791 26.7372 31.8598C26.5256 32.1405 26.2786 32.3861 26.0317 32.5615C25.7848 32.737 25.5732 32.8422 25.3263 32.9124C25.0793 32.9826 24.8324 33.0177 24.5855 33.0177C24.3386 33.0177 24.0917 32.9826 23.8448 32.9475C23.5979 32.9124 23.351 32.8422 23.1393 32.772L23.4215 31.4738C23.7742 31.6142 24.0917 31.6492 24.4444 31.6492C24.6561 31.6492 24.8677 31.6142 25.0793 31.5089C25.291 31.4036 25.4674 31.1931 25.6437 30.8773C25.3615 30.4212 25.0793 29.965 24.8324 29.5089C24.5855 29.0527 24.3386 28.5966 24.0917 28.1405C23.8448 27.6843 23.6331 27.2633 23.4568 26.8422C23.2451 26.4212 23.0688 26.0352 22.9277 25.6843H24.7266C24.8324 25.965 24.9735 26.2457 25.1146 26.5615C25.2557 26.8773 25.3968 27.1931 25.5379 27.5089C25.679 27.8247 25.8554 28.1756 25.9965 28.4913C26.1375 28.8071 26.3139 29.1229 26.455 29.4387C26.6666 28.8422 26.8783 28.2106 27.0899 27.5791C27.3016 26.9475 27.4779 26.3159 27.6896 25.6843H29.418C29.2416 26.2106 29.0652 26.7019 28.8889 27.158C28.7125 27.6142 28.5361 28.0703 28.3598 28.4563C28.1834 28.8773 28.0423 29.2633 27.8659 29.6492C27.6896 30.0352 27.5485 30.3861 27.3721 30.737ZM36.261 25.6843V32.8422H34.6384V27.0527H31.9576V32.8422H30.3351V25.6843H36.261ZM37.9541 32.8422V25.6843H39.5767V29.9299C39.8236 29.544 40.1058 29.158 40.388 28.772C40.6702 28.3861 40.9524 27.965 41.2345 27.6142C41.5167 27.2282 41.7989 26.8773 42.0811 26.5615C42.3633 26.2457 42.6102 25.965 42.8571 25.7194H44.1975V32.8773H42.5749V28.1405C41.9753 28.8422 41.3756 29.6142 40.8465 30.4212C40.3174 31.2282 39.7883 32.0352 39.3298 32.8422H37.9541ZM10.4762 37.4036C10.2293 37.7194 9.98235 38.0352 9.73544 38.3861C9.48852 38.737 9.24161 39.0878 9.06524 39.4738H10.4762V37.4036ZM11.7813 35.7896V39.4738H12.4515V40.5615H11.7813V41.9299H10.4762V40.5615H7.83067V39.6142C7.97177 39.3685 8.11286 39.0527 8.3245 38.737C8.53614 38.4212 8.74778 38.0703 8.99469 37.7194C9.24161 37.3685 9.48852 37.0527 9.77071 36.7019C10.0529 36.3861 10.2998 36.0703 10.582 35.8247H11.7813V35.7896ZM17.1076 38.8422C17.1076 39.8598 16.8959 40.6668 16.5079 41.2282C16.1199 41.7896 15.5555 42.0703 14.8853 42.0703C14.1799 42.0703 13.6508 41.7896 13.2628 41.2282C12.8748 40.6668 12.6631 39.8949 12.6631 38.8422C12.6631 38.3159 12.6984 37.8598 12.8042 37.4738C12.91 37.0878 13.0511 36.737 13.2628 36.4913C13.4744 36.2106 13.6861 36.0001 13.9682 35.8598C14.2504 35.7194 14.5326 35.6492 14.8853 35.6492C15.5908 35.6492 16.1199 35.9299 16.5079 36.4913C16.8959 37.0177 17.1076 37.8247 17.1076 38.8422ZM15.7319 38.8422C15.7319 38.5264 15.7319 38.2457 15.6966 38.0001C15.6614 37.7545 15.6261 37.544 15.5555 37.3685C15.485 37.1931 15.4144 37.0527 15.2734 36.9475C15.1675 36.8422 15.0264 36.8071 14.8501 36.8071C14.6737 36.8071 14.5326 36.8422 14.4268 36.9475C14.321 37.0527 14.2152 37.1931 14.1446 37.3685C14.0741 37.544 14.0388 37.7545 14.0035 38.0001C13.9682 38.2457 13.9682 38.5264 13.9682 38.8422C13.9682 39.158 13.9682 39.4387 14.0035 39.6843C14.0388 39.9299 14.0741 40.1405 14.1446 40.351C14.2152 40.5264 14.2857 40.6668 14.4268 40.772C14.5326 40.8773 14.6737 40.9124 14.8501 40.9124C15.0264 40.9124 15.1675 40.8773 15.2734 40.772C15.3792 40.6668 15.485 40.5264 15.5555 40.351C15.6261 40.1756 15.6614 39.965 15.6966 39.6843C15.7319 39.4387 15.7319 39.158 15.7319 38.8422ZM22.1517 38.8422C22.1517 39.8598 21.94 40.6668 21.552 41.2282C21.164 41.7896 20.5996 42.0703 19.9294 42.0703C19.224 42.0703 18.6949 41.7896 18.3069 41.2282C17.9189 40.6668 17.7072 39.8949 17.7072 38.8422C17.7072 38.3159 17.7425 37.8598 17.8483 37.4738C17.9541 37.0878 18.0952 36.737 18.3069 36.4913C18.5185 36.2106 18.7301 36.0001 19.0123 35.8598C19.2945 35.7194 19.5767 35.6492 19.9294 35.6492C20.6349 35.6492 21.164 35.9299 21.552 36.4913C21.94 37.0177 22.1517 37.8247 22.1517 38.8422ZM20.8113 38.8422C20.8113 38.5264 20.8113 38.2457 20.776 38.0001C20.7407 37.7545 20.7054 37.544 20.6349 37.3685C20.5644 37.1931 20.4938 37.0527 20.3527 36.9475C20.2469 36.8422 20.1058 36.8071 19.9294 36.8071C19.7531 36.8071 19.612 36.8422 19.5062 36.9475C19.4003 37.0527 19.2945 37.1931 19.224 37.3685C19.1534 37.544 19.1181 37.7545 19.0829 38.0001C19.0476 38.2457 19.0476 38.5264 19.0476 38.8422C19.0476 39.158 19.0476 39.4387 19.0829 39.6843C19.1181 39.9299 19.1534 40.1405 19.224 40.351C19.2945 40.5264 19.3651 40.6668 19.5062 40.772C19.612 40.8773 19.7531 40.9124 19.9294 40.9124C20.1058 40.9124 20.2469 40.8773 20.3527 40.772C20.4585 40.6668 20.5644 40.5264 20.6349 40.351C20.7054 40.1756 20.7407 39.965 20.776 39.6843C20.776 39.4387 20.8113 39.158 20.8113 38.8422ZM28.8889 38.351H26.9136V41.9299H25.5732V37.2984H28.8889V38.351ZM32.5926 39.6142C32.5926 39.1931 32.4867 38.8773 32.3104 38.6317C32.134 38.3861 31.8518 38.2808 31.4991 38.2808C31.3933 38.2808 31.2875 38.2808 31.1816 38.2808C31.0758 38.2808 31.0053 38.3159 30.9347 38.3159V40.7019C31.0053 40.772 31.1111 40.8071 31.2522 40.8422C31.3933 40.8773 31.5344 40.9124 31.6402 40.9124C32.2751 40.8773 32.5926 40.4563 32.5926 39.6142ZM33.933 39.5791C33.933 39.9299 33.8977 40.2808 33.7919 40.5615C33.686 40.8422 33.5802 41.1229 33.4039 41.3335C33.2275 41.544 33.0159 41.7194 32.7689 41.8247C32.522 41.9299 32.2046 42.0001 31.8871 42.0001C31.7107 42.0001 31.5344 41.965 31.358 41.9299C31.1816 41.8949 31.0405 41.8598 30.8994 41.7896V43.544H29.5591V37.4387C29.6649 37.4036 29.806 37.3685 29.9823 37.3335C30.1234 37.2984 30.2998 37.2633 30.4762 37.2633C30.6525 37.2282 30.8289 37.2282 31.0053 37.1931C31.1816 37.1931 31.358 37.158 31.4991 37.158C31.8871 37.158 32.2398 37.2282 32.522 37.3335C32.8395 37.4387 33.0864 37.6142 33.298 37.8247C33.5097 38.0352 33.6508 38.2808 33.7566 38.5966C33.8977 38.8773 33.933 39.2282 33.933 39.5791ZM36.7548 40.9826C36.8959 40.9826 37.0017 40.9826 37.1428 40.9826C37.2487 40.9826 37.3545 40.9826 37.425 40.9475V39.965C37.3545 39.965 37.2839 39.9299 37.1781 39.9299C37.0723 39.9299 36.9665 39.9299 36.8959 39.9299C36.7548 39.9299 36.649 39.9299 36.5432 39.965C36.4374 39.965 36.3315 40.0001 36.261 40.0352C36.1905 40.0703 36.1199 40.1405 36.0494 40.2106C36.0141 40.2808 35.9788 40.3861 35.9788 40.4913C35.9788 40.7019 36.0494 40.8422 36.1905 40.9124C36.3315 40.9475 36.5079 40.9826 36.7548 40.9826ZM36.649 37.158C37.037 37.158 37.3545 37.1931 37.6367 37.2984C37.8836 37.4036 38.0952 37.5089 38.2716 37.6843C38.4127 37.8598 38.5538 38.0352 38.589 38.2808C38.6596 38.5264 38.6949 38.772 38.6949 39.0527V41.7896C38.5185 41.8247 38.2363 41.8949 37.9188 41.9299C37.5661 42.0001 37.1781 42.0001 36.6843 42.0001C36.3668 42.0001 36.1199 41.965 35.873 41.9299C35.6261 41.8598 35.4144 41.7896 35.2381 41.6843C35.0617 41.5791 34.9206 41.4036 34.8148 41.2282C34.709 41.0177 34.6737 40.8071 34.6737 40.5264C34.6737 40.2457 34.7442 40.0352 34.8501 39.8247C34.9559 39.6492 35.097 39.4738 35.2733 39.3685C35.4497 39.2633 35.6614 39.1931 35.9083 39.1229C36.1552 39.0878 36.4021 39.0527 36.649 39.0527C36.8254 39.0527 36.9665 39.0527 37.1076 39.0878C37.2487 39.0878 37.3545 39.1229 37.425 39.158V39.0177C37.425 38.8071 37.3545 38.6317 37.2134 38.4913C37.0723 38.351 36.8254 38.2808 36.5079 38.2808C36.2963 38.2808 36.0494 38.2808 35.8377 38.3159C35.6261 38.351 35.4144 38.3861 35.2733 38.4563L35.097 37.4036C35.1675 37.3685 35.2733 37.3685 35.3792 37.3335C35.485 37.2984 35.6261 37.2984 35.7672 37.2633C35.9083 37.2282 36.0494 37.2282 36.1905 37.1931C36.3315 37.158 36.4726 37.158 36.649 37.158ZM41.1993 39.2282C41.1993 39.4387 41.164 39.6492 41.164 39.8949C41.164 40.1405 41.1287 40.3861 41.1287 40.6317C41.1287 40.8773 41.0934 41.1229 41.0934 41.3335C41.0934 41.544 41.0934 41.7545 41.0582 41.9299H39.7531C39.7531 41.6142 39.7883 41.2282 39.8236 40.8422C39.8589 40.4212 39.8942 40.0352 39.9294 39.6142C39.9647 39.1931 40 38.772 40.0352 38.3861C40.0705 38.0001 40.1058 37.6142 40.1411 37.2984H41.2345C41.4815 37.7194 41.7284 38.1405 41.94 38.5615C42.1516 39.0177 42.3633 39.4738 42.6102 40.0001C42.8571 39.4387 43.104 38.9124 43.3509 38.4212C43.5979 37.9299 43.8095 37.544 43.9859 37.2633H45.1146C45.1499 37.5791 45.1852 37.9299 45.2204 38.351C45.2557 38.737 45.291 39.158 45.3263 39.5791C45.3615 40.0001 45.3968 40.4212 45.3968 40.8071C45.4321 41.2282 45.4321 41.5791 45.4673 41.8949H44.1622C44.1622 41.4387 44.127 40.9826 44.127 40.5264C44.0917 40.0703 44.0917 39.6492 44.0564 39.1931L43.0688 41.3335H42.1516L41.1993 39.2282ZM47.9718 39.2282C47.9718 39.4387 47.9365 39.6492 47.9365 39.8949C47.9365 40.1405 47.9012 40.3861 47.9012 40.6317C47.9012 40.8773 47.8659 41.1229 47.8659 41.3335C47.8659 41.544 47.8659 41.7545 47.8307 41.9299H46.5608C46.5608 41.6142 46.5961 41.2282 46.6314 40.8422C46.6666 40.4212 46.7019 40.0352 46.7372 39.6142C46.7725 39.1931 46.8077 38.772 46.843 38.3861C46.8783 38.0001 46.9136 37.6142 46.9488 37.2984H48.0423C48.2892 37.7194 48.5361 38.1405 48.7478 38.5615C48.9594 39.0177 49.1711 39.4738 49.418 40.0001C49.6649 39.4387 49.9118 38.9124 50.1587 38.4212C50.4056 37.9299 50.6173 37.544 50.7936 37.2633H51.9224C51.9576 37.5791 51.9929 37.9299 52.0282 38.351C52.0635 38.737 52.0987 39.158 52.134 39.5791C52.1693 40.0001 52.2046 40.4212 52.2046 40.8071C52.2398 41.2282 52.2398 41.5791 52.2751 41.8949H50.97C50.97 41.4387 50.9347 40.9826 50.9347 40.5264C50.8994 40.0703 50.8994 39.6492 50.8642 39.1931L49.8765 41.3335H48.9594L47.9718 39.2282ZM13.6508 44.8071V51.965H12.0282V46.1756H9.34743V51.965H7.72485V44.8071H13.6508ZM16.6843 48.3861C16.6843 48.737 16.7196 49.0528 16.8254 49.3335C16.8959 49.6142 17.037 49.8598 17.2134 50.0703C17.3898 50.2808 17.5661 50.4212 17.813 50.5264C18.0599 50.6317 18.3069 50.7019 18.6243 50.7019C18.9065 50.7019 19.1887 50.6317 19.4356 50.5264C19.6825 50.4212 19.8942 50.2457 20.0353 50.0703C20.2116 49.8598 20.3174 49.6142 20.4233 49.3335C20.4938 49.0528 20.5644 48.737 20.5644 48.3861C20.5644 48.0352 20.5291 47.7194 20.4233 47.4387C20.3527 47.158 20.2116 46.9124 20.0353 46.7019C19.8589 46.4913 19.6825 46.351 19.4356 46.2457C19.1887 46.1405 18.9418 46.0703 18.6243 46.0703C18.3069 46.0703 18.0599 46.1405 17.813 46.2457C17.5661 46.351 17.3898 46.5264 17.2134 46.737C17.037 46.9475 16.9312 47.1931 16.8254 47.4738C16.7548 47.7545 16.6843 48.0703 16.6843 48.3861ZM22.2222 48.3861C22.2222 49.0177 22.1164 49.544 21.94 50.0001C21.7637 50.4563 21.5167 50.8422 21.1993 51.158C20.8818 51.4738 20.4938 51.7194 20.0705 51.8598C19.612 52.0352 19.1534 52.1054 18.6596 52.1054C18.1658 52.1054 17.7072 52.0352 17.2487 51.8598C16.8254 51.6843 16.4374 51.4738 16.0846 51.158C15.7672 50.8422 15.485 50.4563 15.3086 50.0001C15.1323 49.544 15.0264 48.9826 15.0264 48.3861C15.0264 47.7545 15.1323 47.2282 15.3086 46.772C15.5203 46.3159 15.7672 45.9299 16.0846 45.6142C16.4021 45.2984 16.7901 45.0527 17.2134 44.9124C17.6367 44.737 18.0952 44.6668 18.589 44.6668C19.0829 44.6668 19.5414 44.737 20 44.9124C20.4233 45.0878 20.8113 45.2984 21.1287 45.6142C21.4462 45.9299 21.7284 46.3159 21.9047 46.772C22.1164 47.2633 22.2222 47.7896 22.2222 48.3861ZM26.7372 46.1756C26.7019 46.6317 26.7019 47.0878 26.6666 47.5791C26.6314 48.0352 26.5961 48.4913 26.4903 48.9475C26.4197 49.3685 26.2786 49.7896 26.1375 50.1756C25.9965 50.5615 25.7848 50.8773 25.5379 51.1931C25.291 51.4738 24.9383 51.7194 24.5502 51.8949C24.1622 52.0703 23.6684 52.1756 23.1393 52.1756L22.9629 50.772C23.4568 50.7019 23.8448 50.5966 24.127 50.3861C24.4092 50.1756 24.5855 49.8949 24.7266 49.4738C24.903 48.9826 25.0088 48.3159 25.0793 47.5089C25.1499 46.7019 25.1852 45.8247 25.1852 44.8422H30.1234V52.0001H28.5009V46.2106H26.7372V46.1756ZM35.6261 49.8949C35.4144 50.351 35.2028 50.737 34.9912 51.0177C34.7795 51.2984 34.5326 51.544 34.2857 51.7194C34.0388 51.8949 33.8271 52.0001 33.5802 52.0703C33.3333 52.1405 33.0864 52.1756 32.8395 52.1756C32.5926 52.1756 32.3457 52.1405 32.0987 52.1054C31.8518 52.0703 31.6049 52.0001 31.3933 51.9299L31.6755 50.6317C32.0282 50.772 32.3457 50.8071 32.6984 50.8071C32.91 50.8071 33.1217 50.772 33.3333 50.6668C33.545 50.5615 33.7213 50.351 33.8977 50.0352C33.6155 49.5791 33.3333 49.1229 33.0864 48.6668C32.8395 48.2106 32.5926 47.7545 32.3457 47.2984C32.0987 46.8422 31.8871 46.4212 31.7107 46.0001C31.4991 45.5791 31.3227 45.1931 31.1816 44.8422H32.9806C33.0864 45.1229 33.2275 45.4036 33.3686 45.7194C33.5097 46.0352 33.6508 46.351 33.7919 46.6668C33.933 46.9826 34.1093 47.3335 34.2504 47.6492C34.3915 47.965 34.5679 48.2808 34.709 48.5966C34.9206 48.0001 35.1323 47.3685 35.3439 46.737C35.5555 46.1054 35.7319 45.4738 35.9435 44.8422H37.6719C37.4956 45.3685 37.3192 45.8598 37.1428 46.3159C36.9665 46.772 36.7901 47.2282 36.6137 47.6142C36.4374 48.0352 36.2963 48.4212 36.1199 48.8071C35.9435 49.1931 35.8024 49.544 35.6261 49.8949ZM39.7883 46.9475C39.7883 47.2282 39.8236 47.4738 39.8942 47.6492C39.9647 47.8247 40.0705 47.965 40.1763 48.0703C40.3174 48.1756 40.4585 48.2457 40.6349 48.2808C40.8113 48.3159 41.0229 48.351 41.2345 48.351C41.4109 48.351 41.5873 48.351 41.7636 48.3159C41.94 48.3159 42.1516 48.2808 42.3633 48.2457V44.8422H43.9859V52.0001H42.3633V49.6141C42.1164 49.6492 41.9047 49.6492 41.6578 49.6843C41.4462 49.6843 41.2345 49.7194 41.0229 49.7194C40.5996 49.7194 40.1763 49.6843 39.8236 49.6141C39.4709 49.544 39.1534 49.4036 38.9065 49.1931C38.6596 48.9826 38.4479 48.7019 38.3421 48.3861C38.201 48.0352 38.1305 47.6142 38.1305 47.0878V44.8773H39.7531V46.9475H39.7883ZM45.679 52.0001V44.8422H47.3016V49.0878C47.5485 48.7019 47.8307 48.3159 48.1128 47.9299C48.395 47.544 48.6772 47.1229 48.9594 46.772C49.2416 46.3861 49.5238 46.0352 49.806 45.7194C50.0882 45.4036 50.3351 45.1229 50.582 44.8773H51.9224V52.0352H50.3351V47.3334C49.7354 48.0352 49.1358 48.8071 48.6067 49.6141C48.0776 50.4212 47.5485 51.2282 47.0899 52.0352H45.679V52.0001ZM7.97177 56.6317C8.18341 56.5615 8.39505 56.4563 8.60669 56.351C8.81833 56.2457 9.02997 56.1405 9.24161 56.0001C9.45325 55.8598 9.66489 55.7545 9.84125 55.5791C10.0176 55.4387 10.194 55.2984 10.3704 55.1229H11.4638V62.2808H9.87653V57.1229C9.66489 57.2633 9.41797 57.4036 9.17106 57.5089C8.92415 57.6141 8.67723 57.7194 8.43032 57.7896L7.97177 56.6317ZM19.8236 62.3159C19.6825 62.0703 19.5062 61.8247 19.2945 61.544C19.0829 61.2633 18.8712 61.0177 18.6596 60.737C18.448 60.4563 18.201 60.2106 17.9541 59.9299C17.7072 59.6843 17.4603 59.4387 17.2134 59.2633V62.3159H15.5908V55.158H17.2134V57.8598C17.6367 57.4387 18.0599 56.9826 18.4832 56.4913C18.9065 56.0001 19.3298 55.5791 19.6825 55.158H21.6226C21.1287 55.7545 20.6349 56.3159 20.1411 56.8422C19.6472 57.3685 19.1181 57.9299 18.5538 58.4563C19.1181 58.9475 19.6825 59.5089 20.2116 60.1756C20.7407 60.8422 21.2698 61.544 21.7637 62.351H19.8236V62.3159ZM26.6666 60.2457C26.455 60.7019 26.2434 61.0878 26.0317 61.3685C25.8201 61.6492 25.5732 61.8949 25.3263 62.0703C25.0793 62.2457 24.8677 62.351 24.6208 62.4212C24.3739 62.4913 24.127 62.5264 23.8801 62.5264C23.6331 62.5264 23.3862 62.4913 23.1393 62.4563C22.8924 62.4212 22.6455 62.351 22.4338 62.2808L22.716 60.9826C23.0688 61.1229 23.3862 61.158 23.739 61.158C23.9506 61.158 24.1622 61.1229 24.3739 61.0177C24.5855 60.9124 24.7619 60.7019 24.9383 60.3861C24.6561 59.9299 24.3739 59.4738 24.127 59.0177C23.8801 58.5615 23.6331 58.1054 23.3862 57.6492C23.1393 57.1931 22.9277 56.772 22.7513 56.351C22.5397 55.9299 22.3633 55.544 22.2222 55.1931H23.9859C24.0917 55.4738 24.2328 55.7545 24.3739 56.0703C24.515 56.3861 24.6561 56.7019 24.7972 57.0177C24.9383 57.3335 25.1146 57.6843 25.2557 58.0001C25.3968 58.3159 25.5732 58.6317 25.7143 58.9475C25.9259 58.351 26.1375 57.7194 26.3492 57.0878C26.5608 56.4563 26.7372 55.8247 26.9488 55.1931H28.6772C28.5009 55.7194 28.3245 56.2106 28.1481 56.6668C27.9718 57.1229 27.7954 57.5791 27.619 57.965C27.4427 58.3861 27.3016 58.772 27.1252 59.158C26.9841 59.5089 26.8077 59.8598 26.6666 60.2457ZM35.5555 55.158V62.3159H33.933V56.5264H31.2522V62.3159H29.6296V55.158H35.5555ZM38.589 58.737C38.589 59.0878 38.6243 59.4036 38.7301 59.6843C38.8007 59.965 38.9418 60.2106 39.1181 60.4212C39.2945 60.6317 39.4709 60.772 39.7178 60.8773C39.9647 60.9826 40.2116 61.0527 40.5291 61.0527C40.8113 61.0527 41.0934 60.9826 41.3404 60.8773C41.5873 60.772 41.7636 60.5966 41.94 60.4212C42.1164 60.2106 42.2222 59.965 42.328 59.6843C42.3986 59.4036 42.4691 59.0878 42.4691 58.737C42.4691 58.3861 42.4338 58.0703 42.328 57.7896C42.2575 57.5089 42.1164 57.2633 41.94 57.0528C41.7636 56.8422 41.5873 56.7019 41.3404 56.5966C41.0934 56.4913 40.8465 56.4212 40.5291 56.4212C40.2116 56.4212 39.9647 56.4913 39.7178 56.5966C39.4709 56.7019 39.2945 56.8773 39.1181 57.0878C38.9418 57.2984 38.836 57.544 38.7301 57.8247C38.6243 58.0703 38.589 58.3861 38.589 58.737ZM44.0917 58.737C44.0917 59.3685 43.9859 59.8949 43.8095 60.351C43.6331 60.8071 43.3862 61.1931 43.0688 61.5089C42.7513 61.8247 42.3633 62.0703 41.94 62.2106C41.5167 62.3861 41.0229 62.4563 40.5291 62.4563C40.0352 62.4563 39.5767 62.3861 39.1181 62.2106C38.6949 62.0352 38.3069 61.8247 37.9894 61.5089C37.6719 61.1931 37.3897 60.8071 37.2134 60.351C37.037 59.8949 36.9312 59.3334 36.9312 58.737C36.9312 58.1054 37.037 57.5791 37.2134 57.1229C37.425 56.6668 37.6719 56.2808 37.9894 55.965C38.3069 55.6492 38.6949 55.4036 39.1534 55.2633C39.5767 55.0878 40.0352 55.0177 40.5291 55.0177C41.0229 55.0177 41.4815 55.0878 41.94 55.2633C42.3633 55.4387 42.7513 55.6492 43.104 55.965C43.4215 56.2808 43.7037 56.6668 43.88 57.1229C43.9859 57.5791 44.0917 58.1405 44.0917 58.737ZM49.806 55.158H51.4285V62.3159H49.806V59.2984H47.0899V62.351H45.4673V55.1931H47.0899V57.9299H49.806V55.158Z" fill="black" stroke="black" stroke-width="0.71" stroke-miterlimit="22.9256" stroke-linecap="round" stroke-linejoin="round"/>
</g>
<defs>
<linearGradient id="paint0_linear_1848:598" x1="29.9961" y1="7.18175" x2="29.9961" y2="66.4971" gradientUnits="userSpaceOnUse">
<stop stop-color="#FFED00"/>
<stop offset="1" stop-color="#E84E0F"/>
</linearGradient>
<clipPath id="clip0_1848:598">
<rect width="60" height="68" fill="white"/>
</clipPath>
</defs>
</svg>
