<svg  viewBox="0 0 88 89" fill="none" xmlns="http://www.w3.org/2000/svg">
<g filter="url(#filter0_d)">
<path d="M70 24.0306C70 23.0354 69.5094 22.0402 68.5283 21.5426C68.0377 21.2938 67.5472 21.045 66.8113 21.045C62.3962 21.045 57.9811 21.045 53.566 21.045H53.3208C54.0566 20.5474 54.7924 20.2986 55.5283 19.801C56.5094 19.0545 57.2453 18.3081 57.9811 17.3129C58.717 16.0689 58.4717 13.8297 57.7358 12.8344C57 11.8392 56.2641 11.0928 55.0377 10.5952C54.3019 10.3464 53.3208 10.0976 52.0943 10.0976C50.6226 10.3464 49.3962 10.844 48.4151 11.8392C46.6981 13.3321 45.4717 15.0737 44.4906 17.0641C44.4906 17.3129 44.2453 17.5617 44 17.8105C43.7547 17.5617 43.7547 17.3129 43.7547 17.3129C43.2642 16.0689 42.283 14.8249 41.5472 13.8297C40.3208 12.3368 39.3396 11.3416 37.8679 10.5952C36.6415 10.0976 35.6604 9.8488 34.434 10.0976C32.717 10.5952 31.2453 11.5904 30.2642 12.8344C29.5283 13.8297 29.283 14.8249 29.283 15.8201C29.283 16.5665 29.7736 17.3129 30.2642 17.8105C31 18.8057 31.9811 19.5522 32.9623 20.0498C33.4528 20.2986 33.9434 20.5474 34.434 20.7962H34.1887C29.7736 20.7962 25.3585 20.7962 20.9434 20.7962C20.4528 20.7962 20.2075 20.7962 19.717 21.045C18.7358 22.0402 18 22.7866 18 24.2794C18 27.0163 18 30.0019 18 32.7388C18 33.2364 18.2453 33.9828 18.4906 34.2316C18.7358 34.7292 19.2264 34.978 19.717 35.2268C20.2075 35.4756 20.2075 35.7244 20.2075 36.222C20.2075 37.9636 20.2075 39.9541 20.2075 41.6957C20.2075 47.4182 20.2075 53.1407 20.4528 59.112C20.4528 60.1072 20.9434 60.8536 21.434 61.3512C21.9245 61.8488 22.6604 62.0976 23.3962 62.0976C37.1321 62.0976 50.6226 62.0976 64.3585 62.0976C64.8491 62.0976 65.3396 62.0976 65.8302 61.8488C66.8113 61.3512 67.5472 60.356 67.5472 59.112C67.5472 57.8679 67.5472 56.6239 67.5472 55.1311C67.5472 48.911 67.5472 42.4421 67.5472 36.222C67.5472 35.7244 67.5472 35.4756 68.0377 35.2268C68.0377 35.2268 68.283 35.2268 68.283 34.978C69.0189 34.4804 69.7547 33.734 69.7547 32.49C70 29.7531 70 27.0163 70 24.0306ZM45.9623 19.5522C46.6981 17.5617 47.9245 15.8201 49.3962 14.3273C49.8868 13.8297 50.3774 13.5809 50.8679 13.0833C51.8491 12.3368 53.0755 12.5856 54.3019 13.0833C55.0377 13.3321 55.5283 13.8297 56.0189 14.5761C56.5094 15.0737 56.5094 15.5713 56.0189 16.3177C55.7736 16.8153 55.283 17.3129 54.7924 17.5617C53.3208 18.5569 51.8491 19.3033 50.1321 19.801C48.9057 20.2986 47.6792 20.5474 46.4528 20.7962C46.2075 20.7962 46.2075 20.7962 45.9623 20.7962H45.717C45.717 20.5474 45.717 20.0498 45.9623 19.5522ZM34.1887 18.0593C33.4528 17.5617 32.717 17.0641 32.2264 16.3177C31.4906 15.5713 31.4906 15.0737 32.2264 14.3273C32.4717 14.0785 32.717 13.8297 32.9623 13.5809C34.434 12.3368 36.3962 12.5856 37.3774 13.3321C38.3585 13.8297 38.8491 14.5761 39.5849 15.3225C40.8113 17.0641 41.7925 18.8057 42.5283 20.7962C42.5283 20.7962 42.5283 20.7962 42.5283 21.045C42.0377 21.045 41.5472 20.7962 41.3019 20.7962C38.6038 20.0498 36.3962 19.3033 34.1887 18.0593ZM42.7736 59.3608H42.5283C36.6415 59.3608 31 59.3608 25.1132 59.3608C24.6226 59.3608 23.8868 59.3608 23.3962 59.3608C23.1509 59.3608 23.1509 59.3608 23.1509 59.112C23.1509 58.6144 23.1509 58.1167 23.1509 57.6191C23.1509 53.8871 23.1509 50.4038 23.1509 46.6718C23.1509 43.1885 23.1509 39.4565 23.1509 35.9732V35.7244C29.7736 35.7244 36.3962 35.7244 43.0189 35.7244C42.7736 43.6861 42.7736 51.399 42.7736 59.3608ZM65.0943 57.1215C65.0943 57.8679 65.0943 58.3656 65.0943 59.112C65.0943 59.3608 65.0943 59.3608 64.8491 59.3608C64.3585 59.3608 63.6226 59.3608 63.1321 59.3608C57.2453 59.3608 51.6038 59.3608 45.717 59.3608H45.4717C45.4717 51.399 45.4717 43.4373 45.4717 35.4756C52.0943 35.4756 58.717 35.4756 65.3396 35.4756V35.7244C65.0943 42.9397 65.0943 49.9062 65.0943 57.1215ZM67.5472 31.2459C67.5472 31.7435 67.5472 32.2411 67.5472 32.7388C67.5472 32.9876 67.5472 32.9876 67.3019 32.9876C66.8113 32.9876 66.3208 32.9876 65.8302 32.9876C59.2075 32.9876 28.5472 32.9876 21.434 32.9876C20.6981 32.9876 20.4528 32.7388 20.4528 32.49C20.4528 32.2411 20.4528 31.7435 20.4528 31.4947C20.4528 29.2555 20.4528 27.0163 20.4528 24.777C20.4528 24.5282 20.4528 24.2794 20.4528 24.2794C20.4528 24.0306 20.6981 23.7818 20.9434 23.7818C22.4151 23.7818 23.6415 23.7818 25.1132 23.7818C31 23.7818 58.2264 23.7818 64.6038 23.7818C65.3396 23.7818 66.3208 23.7818 67.0566 23.7818C67.3019 23.7818 67.5472 23.7818 67.5472 24.2794C67.5472 24.777 67.5472 25.2746 67.5472 25.7722C67.5472 27.5139 67.5472 29.2555 67.5472 31.2459Z" fill="#FF8200"/>
</g>
<defs>
<filter id="filter0_d" x="0" y="0" width="88" height="88.0976" filterUnits="userSpaceOnUse" color-interpolation-filters="sRGB">
<feFlood flood-opacity="0" result="BackgroundImageFix"/>
<feColorMatrix in="SourceAlpha" type="matrix" values="0 0 0 0 0 0 0 0 0 0 0 0 0 0 0 0 0 0 127 0" result="hardAlpha"/>
<feOffset dy="8"/>
<feGaussianBlur stdDeviation="9"/>
<feComposite in2="hardAlpha" operator="out"/>
<feColorMatrix type="matrix" values="0 0 0 0 1 0 0 0 0 0.494118 0 0 0 0 0.0705882 0 0 0 0.67 0"/>
<feBlend mode="normal" in2="BackgroundImageFix" result="effect1_dropShadow"/>
<feBlend mode="normal" in="SourceGraphic" in2="effect1_dropShadow" result="shape"/>
</filter>
</defs>
</svg>
