<svg width="71" height="88" viewBox="0 0 71 88" fill="none" xmlns="http://www.w3.org/2000/svg">
<g filter="url(#filter0_d)">
<path d="M48.892 62H22.151C19.8352 62 18 60.1131 18 57.8312V14.1688C18 11.8869 19.8789 10 22.151 10H48.8483C51.1641 10 52.9993 11.8869 52.9993 14.1688V57.8312C53.0429 60.1131 51.1641 62 48.892 62ZM22.151 12.1941C21.0586 12.1941 20.1847 13.0717 20.1847 14.1688V57.8312C20.1847 58.9283 21.0586 59.8498 22.1947 59.8498H48.892C49.9843 59.8498 50.9019 58.9722 50.9019 57.8312V14.1688C50.9019 13.0717 50.028 12.1502 48.892 12.1502H22.151V12.1941Z" fill="#FF8200"/>
<path d="M34.298 28.957C34.298 29.9663 34.0796 30.8878 33.6426 31.8093C33.2057 32.7309 32.5502 33.4768 31.6764 34.0034C30.8025 34.5739 29.7975 34.8372 28.6177 34.8372C27.438 34.8372 26.3893 34.53 25.4717 33.9595C24.5542 33.3891 23.8987 32.5992 23.4181 31.6777C23.1996 31.195 23.0249 30.7123 22.8938 30.2296C22.7627 29.7469 22.719 29.2203 22.719 28.6937C22.719 27.7283 22.9375 26.8507 23.3307 26.0169C23.724 25.1832 24.3794 24.5249 25.2533 23.9545C25.6902 23.6912 26.1709 23.4718 26.6952 23.3401C27.2195 23.2085 27.7876 23.1207 28.3556 23.1207C29.011 23.1207 29.579 23.2085 30.1034 23.3401C30.6277 23.4718 31.152 23.6912 31.589 23.9984C32.4629 24.5249 33.1183 25.2709 33.5552 26.1486C34.0796 27.0262 34.298 27.9477 34.298 28.957ZM30.4966 28.957C30.4966 28.4304 30.3218 27.9916 29.9723 27.5967C29.7975 27.3773 29.579 27.2017 29.3169 27.114C29.0547 26.9823 28.7925 26.9384 28.443 26.9384C28.1371 26.9384 27.8749 26.9823 27.6565 27.114C27.438 27.2456 27.2195 27.3773 27.001 27.5967C26.6515 27.9916 26.4767 28.4743 26.4767 29.0009C26.4767 29.5275 26.6515 30.0102 27.001 30.449C27.3506 30.8439 27.8312 31.0633 28.3993 31.0633C29.011 31.0633 29.5353 30.8439 29.8849 30.4051C30.2781 30.0102 30.4966 29.5275 30.4966 28.957Z" fill="#FF8200"/>
<path d="M48.2365 42.9553C48.2365 43.9646 48.018 44.8861 47.5811 45.8076C47.1441 46.7291 46.4887 47.4751 45.6148 48.0017C44.7409 48.5722 43.736 48.8355 42.5562 48.8355C41.3765 48.8355 40.3278 48.5283 39.4102 47.9578C38.4926 47.3874 37.8372 46.5975 37.3566 45.676C37.1381 45.1933 36.9633 44.7106 36.8322 44.2279C36.7012 43.7452 36.6575 43.2186 36.6575 42.692C36.6575 41.7266 36.8759 40.849 37.2692 40.0152C37.6624 39.1815 38.3179 38.5232 39.1917 37.9528C39.6287 37.6895 40.1093 37.4701 40.6337 37.3384C41.158 37.2068 41.726 37.119 42.2941 37.119C42.9495 37.119 43.5175 37.2068 44.0418 37.3384C44.5662 37.4701 45.0905 37.6895 45.5274 37.9967C46.4013 38.5232 47.0567 39.2692 47.4937 40.1469C48.018 41.0245 48.2365 41.946 48.2365 42.9553ZM44.3914 42.9553C44.3914 42.4287 44.2166 41.9899 43.8671 41.595C43.6923 41.3756 43.4738 41.2 43.2116 41.1123C42.9495 40.9806 42.6873 40.9367 42.3377 40.9367C42.0319 40.9367 41.7697 40.9806 41.5512 41.1123C41.3328 41.2439 41.1143 41.3756 40.8958 41.595C40.5463 41.9899 40.3715 42.4726 40.3715 42.9992C40.3715 43.5258 40.5463 44.0085 40.8958 44.4473C41.2454 44.8422 41.726 45.0616 42.2941 45.0616C42.9058 45.0616 43.4301 44.8422 43.7797 44.4034C44.2166 44.0085 44.3914 43.4819 44.3914 42.9553Z" fill="#FF8200"/>
<path d="M27.9625 48.9232C27.5693 48.9232 27.1324 48.7916 26.7828 48.5283C25.8215 47.8701 25.603 46.5536 26.2585 45.5882L41.333 23.9106C41.9885 22.9452 43.2993 22.7257 44.2606 23.384C45.2219 24.0422 45.4403 25.3587 44.7849 26.3241L29.6666 48.0456C29.2734 48.616 28.618 48.9232 27.9625 48.9232Z" fill="#FF8200"/>
</g>
<defs>
<filter id="filter0_d" x="0" y="0" width="71" height="88" filterUnits="userSpaceOnUse" color-interpolation-filters="sRGB">
<feFlood flood-opacity="0" result="BackgroundImageFix"/>
<feColorMatrix in="SourceAlpha" type="matrix" values="0 0 0 0 0 0 0 0 0 0 0 0 0 0 0 0 0 0 127 0" result="hardAlpha"/>
<feOffset dy="8"/>
<feGaussianBlur stdDeviation="9"/>
<feComposite in2="hardAlpha" operator="out"/>
<feColorMatrix type="matrix" values="0 0 0 0 1 0 0 0 0 0.494118 0 0 0 0 0.0705882 0 0 0 0.67 0"/>
<feBlend mode="normal" in2="BackgroundImageFix" result="effect1_dropShadow"/>
<feBlend mode="normal" in="SourceGraphic" in2="effect1_dropShadow" result="shape"/>
</filter>
</defs>
</svg>
