<svg viewBox="0 0 375 174" fill="none" xmlns="http://www.w3.org/2000/svg">
<ellipse cx="187.5" cy="87" rx="187.5" ry="87" fill="url(#paint0_radial_mob)" fill-opacity="0.64"/>
<g filter="url(#filter0_di_mob)">
<path d="M53.5313 73.96C50.3313 73.96 47.3446 73.5547 44.5713 72.744C41.7979 71.8907 39.3873 70.5467 37.3393 68.712C35.3339 66.8773 33.7339 64.5093 32.5393 61.608C31.3873 58.664 30.8113 55.1013 30.8113 50.92V49.64C30.8113 45.672 31.4086 42.28 32.6033 39.464C33.7979 36.648 35.4193 34.344 37.4673 32.552C39.5579 30.7173 41.9686 29.3733 44.6993 28.52C47.4726 27.6667 50.4166 27.24 53.5313 27.24C56.3473 27.24 59.0139 27.5813 61.5312 28.264C64.0913 28.904 66.3526 29.992 68.3153 31.528C70.2779 33.0213 71.8566 34.9627 73.0513 37.352C74.2459 39.7413 74.8859 42.664 74.9713 46.12H58.3313C58.1179 44.072 57.5419 42.7067 56.6033 42.024C55.6646 41.2987 54.6406 40.936 53.5313 40.936C52.8059 40.936 52.1233 41.0853 51.4833 41.384C50.8433 41.6827 50.2673 42.1733 49.7553 42.856C49.2433 43.5387 48.8379 44.4347 48.5393 45.544C48.2406 46.6533 48.0913 48.0187 48.0913 49.64V50.92C48.0913 54.1627 48.5819 56.5307 49.5633 58.024C50.5873 59.5173 51.9099 60.264 53.5313 60.264C54.6833 60.264 55.7073 59.9227 56.6033 59.24C57.5419 58.5573 58.1179 57.1707 58.3313 55.08H74.9713C74.8859 58.6213 74.2459 61.608 73.0513 64.04C71.8993 66.4293 70.3419 68.3707 68.3793 69.864C66.4593 71.3147 64.2193 72.36 61.6593 73C59.0993 73.64 56.3899 73.96 53.5313 73.96ZM78.4663 28.2H95.3623V44.648H97.2823L105.986 28.2H123.906L111.426 49L124.546 73H105.602L97.2823 55.912H95.3623V73H78.4663V28.2ZM127.404 28.2H144.3V47.4L155.308 28.2H170.924V73H154.028V53.8L143.02 73H127.404V28.2ZM174.109 59.432H177.949C179.058 56.872 179.911 54.12 180.509 51.176C181.149 48.232 181.469 44.84 181.469 41V28.2H217.629V59.432H222.109V81.32H207.773V73H188.445V81.32H174.109V59.432ZM200.733 59.432V41.768H195.805V46.44C195.805 48.744 195.655 51.048 195.357 53.352C195.058 55.6133 194.61 57.64 194.013 59.432H200.733ZM225.654 28.2H242.55V44.648H244.47L253.174 28.2H271.094L258.614 49L271.734 73H252.79L244.47 55.912H242.55V73H225.654V28.2ZM302.273 66.984H290.625L289.025 73H273.409L289.281 28.2H306.177L322.049 73H303.873L302.273 66.984ZM293.889 54.696H298.945L296.449 43.56L293.889 54.696ZM323.436 48.296H345.196V61.864H323.436V48.296ZM99.8513 150.96C96.6939 150.96 93.7073 150.512 90.8913 149.616C88.1179 148.72 85.6859 147.355 83.5953 145.52C81.5046 143.643 79.8406 141.253 78.6033 138.352C77.4086 135.451 76.8113 131.973 76.8113 127.92V126.64C76.8113 122.8 77.4086 119.493 78.6033 116.72C79.8406 113.904 81.5046 111.579 83.5953 109.744C85.6859 107.867 88.1179 106.48 90.8913 105.584C93.7073 104.688 96.6939 104.24 99.8513 104.24C103.009 104.24 105.974 104.688 108.747 105.584C111.563 106.48 114.017 107.867 116.107 109.744C118.198 111.579 119.841 113.904 121.035 116.72C122.273 119.493 122.891 122.8 122.891 126.64V127.92C122.891 131.888 122.273 135.323 121.035 138.224C119.841 141.125 118.198 143.536 116.107 145.456C114.017 147.333 111.563 148.72 108.747 149.616C105.974 150.512 103.009 150.96 99.8513 150.96ZM99.8513 137.264C101.643 137.264 103.051 136.56 104.075 135.152C105.099 133.701 105.611 131.291 105.611 127.92V126.64C105.611 123.568 105.099 121.349 104.075 119.984C103.051 118.619 101.643 117.936 99.8513 117.936C98.0593 117.936 96.6513 118.619 95.6273 119.984C94.6033 121.349 94.0913 123.568 94.0913 126.64V127.92C94.0913 131.291 94.6033 133.701 95.6273 135.152C96.6513 136.56 98.0593 137.264 99.8513 137.264ZM126.716 105.2H159.356V118.768H143.612V150H126.716V105.2ZM183.726 150.96C180.569 150.96 177.582 150.512 174.766 149.616C171.993 148.72 169.561 147.355 167.47 145.52C165.38 143.643 163.716 141.253 162.478 138.352C161.284 135.451 160.686 131.973 160.686 127.92V126.64C160.686 122.8 161.284 119.493 162.478 116.72C163.716 113.904 165.38 111.579 167.47 109.744C169.561 107.867 171.993 106.48 174.766 105.584C177.582 104.688 180.569 104.24 183.726 104.24C186.884 104.24 189.849 104.688 192.622 105.584C195.438 106.48 197.892 107.867 199.982 109.744C202.073 111.579 203.716 113.904 204.91 116.72C206.148 119.493 206.766 122.8 206.766 126.64V127.92C206.766 131.888 206.148 135.323 204.91 138.224C203.716 141.125 202.073 143.536 199.982 145.456C197.892 147.333 195.438 148.72 192.622 149.616C189.849 150.512 186.884 150.96 183.726 150.96ZM183.726 137.264C185.518 137.264 186.926 136.56 187.95 135.152C188.974 133.701 189.486 131.291 189.486 127.92V126.64C189.486 123.568 188.974 121.349 187.95 119.984C186.926 118.619 185.518 117.936 183.726 117.936C181.934 117.936 180.526 118.619 179.502 119.984C178.478 121.349 177.966 123.568 177.966 126.64V127.92C177.966 131.291 178.478 133.701 179.502 135.152C180.526 136.56 181.934 137.264 183.726 137.264ZM210.591 105.2H227.487V120.496H237.215V105.2H254.111V150H237.215V134.064H227.487V150H210.591V105.2ZM259.216 105.2H276.112V118.256H280.016C286.886 118.256 291.856 119.621 294.928 122.352C298 125.083 299.536 128.901 299.536 133.808C299.536 139.013 298 143.024 294.928 145.84C291.856 148.613 286.886 150 280.016 150H259.216V105.2ZM278.032 137.712C279.739 137.712 280.934 137.328 281.616 136.56C282.299 135.792 282.64 134.875 282.64 133.808C282.64 132.741 282.299 131.824 281.616 131.056C280.976 130.288 279.782 129.904 278.032 129.904H276.112V137.712H278.032Z" fill="url(#paint1_linear_mob)"/>
</g>
<mask id="mask0_mob" style={{"maskType":"alpha"}} maskUnits="userSpaceOnUse" x="30" y="27" width="316" height="124">
<path d="M53.5313 73.96C50.3313 73.96 47.3446 73.5547 44.5713 72.744C41.7979 71.8907 39.3873 70.5467 37.3393 68.712C35.3339 66.8773 33.7339 64.5093 32.5393 61.608C31.3873 58.664 30.8113 55.1013 30.8113 50.92V49.64C30.8113 45.672 31.4086 42.28 32.6033 39.464C33.7979 36.648 35.4193 34.344 37.4673 32.552C39.5579 30.7173 41.9686 29.3733 44.6993 28.52C47.4726 27.6667 50.4166 27.24 53.5313 27.24C56.3473 27.24 59.0139 27.5813 61.5312 28.264C64.0913 28.904 66.3526 29.992 68.3153 31.528C70.2779 33.0213 71.8566 34.9627 73.0513 37.352C74.2459 39.7413 74.8859 42.664 74.9713 46.12H58.3313C58.1179 44.072 57.5419 42.7067 56.6033 42.024C55.6646 41.2987 54.6406 40.936 53.5313 40.936C52.8059 40.936 52.1233 41.0853 51.4833 41.384C50.8433 41.6827 50.2673 42.1733 49.7553 42.856C49.2433 43.5387 48.8379 44.4347 48.5393 45.544C48.2406 46.6533 48.0913 48.0187 48.0913 49.64V50.92C48.0913 54.1627 48.5819 56.5307 49.5633 58.024C50.5873 59.5173 51.9099 60.264 53.5313 60.264C54.6833 60.264 55.7073 59.9227 56.6033 59.24C57.5419 58.5573 58.1179 57.1707 58.3313 55.08H74.9713C74.8859 58.6213 74.2459 61.608 73.0513 64.04C71.8993 66.4293 70.3419 68.3707 68.3793 69.864C66.4593 71.3147 64.2193 72.36 61.6593 73C59.0993 73.64 56.3899 73.96 53.5313 73.96ZM78.4663 28.2H95.3623V44.648H97.2823L105.986 28.2H123.906L111.426 49L124.546 73H105.602L97.2823 55.912H95.3623V73H78.4663V28.2ZM127.404 28.2H144.3V47.4L155.308 28.2H170.924V73H154.028V53.8L143.02 73H127.404V28.2ZM174.109 59.432H177.949C179.058 56.872 179.911 54.12 180.509 51.176C181.149 48.232 181.469 44.84 181.469 41V28.2H217.629V59.432H222.109V81.32H207.773V73H188.445V81.32H174.109V59.432ZM200.733 59.432V41.768H195.805V46.44C195.805 48.744 195.655 51.048 195.357 53.352C195.058 55.6133 194.61 57.64 194.013 59.432H200.733ZM225.654 28.2H242.55V44.648H244.47L253.174 28.2H271.094L258.614 49L271.734 73H252.79L244.47 55.912H242.55V73H225.654V28.2ZM302.273 66.984H290.625L289.025 73H273.409L289.281 28.2H306.177L322.049 73H303.873L302.273 66.984ZM293.889 54.696H298.945L296.449 43.56L293.889 54.696ZM323.436 48.296H345.196V61.864H323.436V48.296ZM99.8513 150.96C96.6939 150.96 93.7073 150.512 90.8913 149.616C88.1179 148.72 85.6859 147.355 83.5953 145.52C81.5046 143.643 79.8406 141.253 78.6033 138.352C77.4086 135.451 76.8113 131.973 76.8113 127.92V126.64C76.8113 122.8 77.4086 119.493 78.6033 116.72C79.8406 113.904 81.5046 111.579 83.5953 109.744C85.6859 107.867 88.1179 106.48 90.8913 105.584C93.7073 104.688 96.6939 104.24 99.8513 104.24C103.009 104.24 105.974 104.688 108.747 105.584C111.563 106.48 114.017 107.867 116.107 109.744C118.198 111.579 119.841 113.904 121.035 116.72C122.273 119.493 122.891 122.8 122.891 126.64V127.92C122.891 131.888 122.273 135.323 121.035 138.224C119.841 141.125 118.198 143.536 116.107 145.456C114.017 147.333 111.563 148.72 108.747 149.616C105.974 150.512 103.009 150.96 99.8513 150.96ZM99.8513 137.264C101.643 137.264 103.051 136.56 104.075 135.152C105.099 133.701 105.611 131.291 105.611 127.92V126.64C105.611 123.568 105.099 121.349 104.075 119.984C103.051 118.619 101.643 117.936 99.8513 117.936C98.0593 117.936 96.6513 118.619 95.6273 119.984C94.6033 121.349 94.0913 123.568 94.0913 126.64V127.92C94.0913 131.291 94.6033 133.701 95.6273 135.152C96.6513 136.56 98.0593 137.264 99.8513 137.264ZM126.716 105.2H159.356V118.768H143.612V150H126.716V105.2ZM183.726 150.96C180.569 150.96 177.582 150.512 174.766 149.616C171.993 148.72 169.561 147.355 167.47 145.52C165.38 143.643 163.716 141.253 162.478 138.352C161.284 135.451 160.686 131.973 160.686 127.92V126.64C160.686 122.8 161.284 119.493 162.478 116.72C163.716 113.904 165.38 111.579 167.47 109.744C169.561 107.867 171.993 106.48 174.766 105.584C177.582 104.688 180.569 104.24 183.726 104.24C186.884 104.24 189.849 104.688 192.622 105.584C195.438 106.48 197.892 107.867 199.982 109.744C202.073 111.579 203.716 113.904 204.91 116.72C206.148 119.493 206.766 122.8 206.766 126.64V127.92C206.766 131.888 206.148 135.323 204.91 138.224C203.716 141.125 202.073 143.536 199.982 145.456C197.892 147.333 195.438 148.72 192.622 149.616C189.849 150.512 186.884 150.96 183.726 150.96ZM183.726 137.264C185.518 137.264 186.926 136.56 187.95 135.152C188.974 133.701 189.486 131.291 189.486 127.92V126.64C189.486 123.568 188.974 121.349 187.95 119.984C186.926 118.619 185.518 117.936 183.726 117.936C181.934 117.936 180.526 118.619 179.502 119.984C178.478 121.349 177.966 123.568 177.966 126.64V127.92C177.966 131.291 178.478 133.701 179.502 135.152C180.526 136.56 181.934 137.264 183.726 137.264ZM210.591 105.2H227.487V120.496H237.215V105.2H254.111V150H237.215V134.064H227.487V150H210.591V105.2ZM259.216 105.2H276.112V118.256H280.016C286.886 118.256 291.856 119.621 294.928 122.352C298 125.083 299.536 128.901 299.536 133.808C299.536 139.013 298 143.024 294.928 145.84C291.856 148.613 286.886 150 280.016 150H259.216V105.2ZM278.032 137.712C279.739 137.712 280.934 137.328 281.616 136.56C282.299 135.792 282.64 134.875 282.64 133.808C282.64 132.741 282.299 131.824 281.616 131.056C280.976 130.288 279.782 129.904 278.032 129.904H276.112V137.712H278.032Z" fill="url(#paint2_linear_mob)"/>
</mask>
<g mask="url(#mask0_mob)">
<g opacity="0.2">
<path d="M350.919 120.053V119.89C349.778 123.231 347.333 126.002 344.97 128.529C343.83 129.751 342.689 130.974 341.63 132.196C340.571 133.5 339.674 135.13 337.8 135.212C336.415 135.293 335.193 134.397 334.215 133.337C333.237 131.626 332.015 130.159 330.549 128.936C330.549 130.729 330.304 132.441 329.978 134.152C329.163 138.227 327.615 142.221 326.067 146.133C323.949 142.547 320.527 139.776 316.616 138.39C317.104 140.509 317.023 142.547 316.534 144.666C316.371 145.318 316.127 145.888 315.638 146.296C314.823 146.948 313.438 146.54 312.786 145.725C312.134 144.91 311.89 143.769 311.727 142.71C311.564 141.65 311.482 140.509 310.831 139.613C310.26 142.547 309.69 145.562 309.119 148.496C308.794 143.769 307.979 140.102 304.964 136.353C303.008 133.908 299.749 127.877 302.438 124.78C300.646 126.899 298.935 129.099 297.631 131.544C296.572 133.5 295.92 135.619 295.675 137.82C295.594 138.553 295.268 142.547 295.92 142.873C294.453 142.058 293.72 140.346 293.394 138.716C293.068 137.086 293.149 135.375 292.661 133.745C291.683 130.729 289.157 129.262 286.794 127.469C285.979 126.817 281.824 124.046 283.453 122.661C280.52 125.269 279.053 129.425 279.624 133.256C279.95 135.375 280.765 137.005 280.683 139.205C280.602 141.569 279.95 143.851 278.809 145.888C276.691 142.384 273.513 139.613 269.765 137.901C269.439 140.428 268.624 142.954 267.483 145.236C265.609 139.531 266.261 133.011 269.357 127.795C265.365 128.203 261.535 129.996 258.684 132.685C257.298 133.99 252.084 139.368 253.143 141.732C252.165 139.694 251.269 137.575 250.454 135.456C249.721 136.516 246.462 140.02 246.951 141.487C245.402 137.005 241.899 133.256 237.58 131.3C237.743 134.886 236.847 137.901 234.892 140.835C234.81 138.879 234.81 136.923 234.973 134.967C232.61 137.657 230.818 140.835 229.595 144.177C230.166 139.939 230.329 135.701 230.166 131.463C229.921 126.491 227.151 123.72 222.751 121.764C222.099 121.438 216.803 120.053 216.722 119.89C218.188 125.024 217.21 130.811 214.033 135.13C210.122 129.67 210.366 121.683 214.685 116.467C210.203 117.282 206.048 119.727 203.196 123.231C200.996 125.921 199.611 129.099 199.04 132.522C198.715 134.723 198.959 139.857 200.344 141.65C199.04 139.939 197.737 138.227 196.189 136.679C196.433 138.39 195.944 140.183 194.885 141.487C194.07 140.754 193.744 139.613 193.663 138.472C193.337 135.212 193.826 131.952 195.048 128.855C193.826 129.425 192.685 130.322 191.626 131.218C189.752 132.685 187.226 134.152 185.922 136.108C184.782 134.234 183.641 132.115 184.13 129.833C181.359 132.196 179.322 135.293 178.263 138.798C177.937 136.027 177.53 133.093 176.145 130.648C175.574 129.589 174.76 128.61 174.271 127.469C172.886 124.128 174.678 120.379 176.389 117.2C173.13 118.015 170.197 120.053 168.404 122.905C166.775 125.513 165.878 129.018 166.53 132.033C167.182 135.212 168.893 137.901 168.078 141.243C166.856 139.531 164.738 138.553 162.619 138.716C161.967 140.754 161.152 142.791 160.338 144.747C159.278 142.384 159.278 139.531 160.501 137.249C158.79 137.575 150.316 140.672 150.316 143.036C150.316 141.487 150.071 139.857 149.664 138.39C149.256 139.287 148.605 140.102 147.79 140.754C147.301 137.331 145.264 135.049 143.634 132.196C142.005 129.262 140.294 126.573 137.116 125.106C138.909 129.099 138.583 133.908 136.22 137.575C136.22 133.582 134.672 129.588 131.983 126.736C130.679 125.35 129.131 124.128 128.398 122.416C127.827 120.95 127.909 119.238 128.724 117.934C125.301 120.134 121.39 125.432 122.694 129.751C123.101 131.056 123.916 132.115 124.487 133.337C125.79 136.353 125.057 139.857 123.59 142.791C123.672 139.939 123.101 136.923 121.146 134.804C120.331 133.908 119.272 133.256 118.376 132.359C116.013 130.077 114.791 126.654 115.361 123.394C112.509 126.654 108.843 133.989 111.042 138.309C109.983 138.309 104.035 134.967 105.665 133.5C104.85 134.234 97.6798 144.258 100.043 144.666C98.4131 144.421 96.9465 143.443 96.0502 142.139C95.154 140.754 94.828 139.042 95.2354 137.412C94.2577 139.45 93.6873 141.569 93.4429 143.851C93.3614 144.747 93.1984 145.725 92.5466 146.214C91.1615 144.829 91.2429 142.628 91.1615 140.835C90.917 134.641 88.3097 128.203 84.5616 123.231C83.0135 121.194 81.3024 119.319 79.021 118.26C77.5544 117.608 74.2137 117.037 73.3174 115.57C75.5988 119.727 77.9618 124.128 77.5544 128.855C77.5544 131.626 76.0877 134.152 74.947 136.516C74.2137 137.983 73.5619 139.531 73.073 141.08C72.8285 141.976 72.5841 142.873 72.5841 143.769C72.5841 145.073 72.91 146.296 73.6433 147.355C72.3397 147.355 71.1175 146.622 70.2212 145.644C69.6508 145.073 66.5546 137.331 67.5324 137.331C64.7621 137.331 62.4806 139.45 60.7696 141.487C59.9548 142.465 56.6956 147.192 58.2437 148.333C51.5624 143.28 55.8808 135.13 55.8808 128.366C55.8808 122.661 50.5846 118.586 46.9995 115C47.4069 116.141 47.7328 117.282 47.8958 118.504C49.0365 124.698 46.0217 130.811 43.0885 136.434C42.9255 136.679 42.844 136.923 42.5181 137.086C41.9478 137.331 41.3774 136.679 41.2144 136.027C41.0515 135.456 40.97 134.641 40.3996 134.397C40.0737 135.945 39.5034 137.412 38.8515 138.879C34.6146 136.434 34.0442 128.61 35.8368 124.046C34.3702 127.388 32.6591 132.522 30.5406 134.641C29.9703 135.212 29.074 135.13 28.4221 134.641C27.7703 134.152 27.4444 133.419 27.1185 132.767C25.8963 130.403 25.2444 127.469 25 124.454V163.9C43.4144 164.063 81.7098 164.47 81.7098 164.47L131.82 165.122L205.559 164.226L267.402 163.492C267.402 163.492 305.779 163.329 314.334 163.329V163.737C320.119 163.818 328.919 165.367 333.156 160.314C335.274 157.787 336.66 154.283 337.23 150.615C337.8 154.12 338.534 157.543 340 160.721C340.489 161.781 341.059 163.492 341.956 163.9C342.2 163.981 342.852 163.9 343.096 163.9C345.704 163.9 348.311 163.981 351 163.981V124.454C350.837 122.987 350.837 121.52 350.919 120.053Z" fill="url(#paint3_linear_mob)"/>
<path d="M348.636 138.064C348.554 134.804 349.207 131.626 349.207 128.366C349.207 130.648 348.554 132.93 347.576 135.049C346.435 137.331 344.152 137.738 342.685 139.531C341.299 141.243 340.565 143.117 340.158 145.236C339.995 146.377 339.75 149.311 338.527 149.8C338.283 149.882 338.038 149.8 337.794 149.637C336.489 148.822 336.734 147.274 336.326 146.051C335.756 144.421 334.696 143.036 334.125 141.406C333.473 139.531 332.332 137.657 332.495 135.538C331.924 140.998 330.457 146.377 328.011 151.267C327.522 152.245 327.033 153.223 326.788 154.283C326.544 155.587 328.174 158.276 326.951 158.684C325.158 159.336 324.261 156.32 323.772 155.261C323.12 153.712 323.609 151.919 323.609 150.289C323.609 147.518 322.223 144.829 320.022 143.199C321.245 144.829 321.327 147.192 320.267 148.904C319.615 149.963 318.555 150.778 317.74 151.675C316.517 153.06 317.169 154.12 316.435 155.587C315.946 156.483 314.805 156.809 313.827 156.483C312.848 156.157 312.196 155.342 311.789 154.364C311.463 153.386 311.381 152.408 311.381 151.43C311.137 152.653 310.973 153.794 310.729 155.016C310.484 156.239 310.158 157.706 308.935 158.195C307.957 158.602 306.734 157.95 306.164 157.135C305.512 156.239 305.349 155.179 305.186 154.12C304.696 151.43 304.859 148.333 303.8 145.807C303.066 144.095 301.762 142.628 301.028 140.917C300.213 138.961 300.213 136.76 300.213 134.723C298.338 137.575 299.805 141.324 299.479 144.747C299.235 147.029 298.012 149.23 298.175 151.593C298.256 152.734 298.664 153.875 298.745 155.016C298.827 156.157 298.419 157.461 297.441 157.95C296.626 158.358 295.566 158.113 294.832 157.543C292.794 155.994 293.202 153.223 291.653 151.512C291.246 151.023 289.126 149.393 289.126 149.393C289.126 149.393 288.555 148.822 288.148 147.274C287.659 145.725 288.555 142.628 288.555 142.628C288.555 142.628 289.126 140.183 289.289 138.635C289.452 137.086 289.126 136.516 288.718 135.701C288.311 134.886 287.496 134.071 285.784 132.767C284.072 131.463 283.99 130.077 283.99 130.077C283.99 130.077 283.909 130.974 284.072 131.952C284.235 132.93 284.479 133.826 284.968 134.804C285.458 135.782 285.865 137.575 285.865 137.575C285.865 137.575 286.11 138.635 285.539 140.672C285.05 142.71 283.42 145.562 283.42 145.562C283.42 145.562 282.523 147.192 282.197 149.148C281.871 151.104 282.441 152.082 282.441 152.082C282.441 152.082 283.664 154.201 284.642 155.913C285.621 157.624 284.887 158.847 284.887 158.847C284.887 158.847 283.175 161.373 280.648 160.069C278.121 158.847 277.387 155.668 277.387 155.668C277.387 155.668 276.898 152.082 275.757 149.637C274.615 147.192 271.925 144.503 271.925 144.503L272.414 145.318L273.066 147.111C273.066 147.111 273.474 149.148 273.474 150.534C273.556 151.919 272.822 156.32 272.822 156.32C272.822 156.32 272.333 159.906 270.376 160.558C268.42 161.292 267.36 160.069 267.36 160.069C267.36 160.069 265.811 158.439 265.159 156.076C264.507 153.712 263.61 152.327 263.61 152.327C263.61 152.327 263.366 152.327 262.143 149.882C260.92 147.437 260.675 144.095 260.675 144.095C260.675 144.095 260.838 140.998 261.328 138.961C261.817 136.923 263.447 133.011 263.447 133.011L261.817 134.641L260.186 136.923C260.186 136.923 259.127 138.879 258.8 140.02C258.474 141.161 257.904 143.28 257.904 143.28C257.904 143.28 257.659 145.399 257.659 146.948C257.578 148.496 257.659 150.208 258.067 151.919C258.474 153.549 258.882 157.217 258.882 157.217C258.882 157.217 258.637 160.395 256.355 160.884C253.991 161.373 253.665 159.58 253.665 159.58C253.665 159.58 253.665 158.928 253.828 157.054C253.991 155.179 253.176 154.364 253.176 154.364L250.322 151.267C250.322 151.267 249.833 150.697 249.589 149.067C249.344 147.518 250.975 144.421 250.975 144.421C250.975 144.421 250.159 145.073 249.833 145.644C249.507 146.214 249.018 147.763 249.018 147.763C249.018 147.763 248.447 150.941 248.121 152.816C247.795 154.69 247.469 155.75 246.409 157.624C245.35 159.499 244.534 158.847 244.534 158.847C244.534 158.847 243.719 158.602 243.149 157.543C242.578 156.483 242.822 153.549 242.822 153.549C242.822 153.549 243.393 151.756 243.964 149.556C244.534 147.355 244.616 144.992 244.616 144.992C244.616 144.992 244.534 142.791 243.393 140.835C242.252 138.879 239.969 137.983 239.969 137.983L240.866 139.857C240.866 139.857 241.437 141.243 241.437 143.362C241.437 145.481 240.214 147.518 240.214 147.518C240.214 147.518 238.991 150.045 238.909 151.919C238.828 153.794 239.806 155.505 239.806 155.505C239.806 155.505 240.784 157.461 239.48 158.521C238.257 159.58 237.116 158.602 237.116 158.602C237.116 158.602 235.486 157.869 234.263 154.283C233.04 150.697 234.507 145.97 234.507 145.97C234.507 145.97 233.285 146.948 232.795 147.6C231.491 149.311 231.084 151.349 230.024 153.223C229.616 153.875 228.964 154.446 228.149 154.364C227.66 154.364 227.171 154.038 226.763 153.712C224.154 151.593 222.931 148.089 223.013 144.747C223.176 139.694 227.415 135.945 225.377 130.811C224.48 128.61 222.687 126.736 220.486 125.758C222.116 127.877 222.687 130.729 221.79 133.174C221.383 134.397 220.649 135.375 220.078 136.516C218.611 139.287 218.122 142.547 218.611 145.725C218.937 147.6 219.589 149.393 219.426 151.267C219.263 153.142 217.877 155.098 216.002 155.016C214.779 154.935 213.801 154.038 213.231 152.979C211.437 149.474 212.252 145.073 210.377 141.569C209.644 140.265 208.502 139.368 207.687 138.227C207.198 137.412 206.79 136.516 206.383 135.701C205.079 133.256 204.752 130.648 205.649 128.04C206.383 125.839 207.769 123.883 209.399 122.172C206.872 123.965 204.752 126.247 203.448 129.018C202.144 131.789 201.736 135.049 202.714 137.901C203.204 139.531 204.1 140.998 204.834 142.547C205.568 144.34 206.057 146.214 206.138 148.17C206.22 149.8 205.975 151.593 204.834 152.816C204.1 153.549 202.877 153.875 201.899 153.549C200.513 153.142 200.513 152.245 200.595 151.023C200.269 146.54 197.579 144.992 197.579 144.992C197.579 144.992 198.557 147.763 198.068 150.371C197.579 152.979 196.6 153.794 196.6 153.957C196.519 154.12 196.03 155.016 194.97 155.098C193.91 155.179 193.421 153.875 192.932 153.06C192.443 152.245 191.22 150.697 191.22 150.697L190.16 149.148C190.16 149.148 189.101 148.007 189.101 144.829C189.019 141.65 191.057 137.331 191.057 137.331L189.508 138.961L187.552 141.406C186.818 142.71 186.166 144.177 186.084 145.725C186.084 146.785 186.41 149.8 184.291 149.067C183.883 148.904 183.639 148.578 183.394 148.252C181.764 145.725 182.171 142.384 183.15 139.531C181.03 141.976 180.378 145.481 181.438 148.496C181.845 149.556 182.416 150.697 182.09 151.756C181.845 152.734 180.948 153.468 179.889 153.712C175.65 154.446 174.019 149.067 174.182 145.97C174.345 143.443 174.997 140.835 174.59 138.39C174.264 136.19 173.123 134.234 172.307 132.278C171.492 130.24 170.921 127.958 171.737 125.839C170.269 127.551 169.617 129.996 170.025 132.196C170.351 134.152 171.329 135.864 171.737 137.738C171.981 138.798 171.981 139.857 171.9 140.917C171.574 144.992 169.047 148.089 168.557 152.001C168.394 153.386 168.883 154.527 168.883 154.527C168.883 154.527 168.72 154.364 168.557 154.038C168.394 153.712 168.313 153.305 168.313 153.223C168.313 153.142 168.231 152.653 167.987 151.43C167.824 150.289 167.742 149.067 167.579 148.496C167.416 147.926 166.682 146.214 166.03 145.481C165.378 144.666 164.155 143.606 164.155 143.606C164.155 143.606 164.318 144.095 164.481 144.829C164.644 145.644 164.563 146.948 164.563 146.948C164.563 146.948 164.481 147.681 164.318 148.659C164.155 149.637 163.585 150.615 163.585 150.615C163.585 150.615 163.259 151.186 162.525 152.327C161.791 153.468 161.465 154.201 161.465 154.201C161.465 154.201 161.058 155.505 161.058 156.646C161.058 157.787 161.465 159.01 161.465 159.01C161.465 159.01 161.873 159.906 161.873 160.232C161.873 160.558 161.71 160.884 160.487 160.477C157.797 159.58 155.514 156.483 154.943 153.794C154.454 151.838 154.291 149.8 154.699 147.844C155.107 145.888 156.003 144.014 157.552 142.71C155.107 143.932 153.15 146.051 152.09 148.578C151.031 151.104 150.786 153.957 151.601 156.565C151.683 156.891 151.764 157.217 151.764 157.543C151.683 158.521 150.46 159.091 149.482 158.847C148.096 158.439 147.036 157.135 146.954 155.668C146.954 155.668 146.954 154.364 147.688 152.571C148.422 150.86 148.422 149.311 148.422 149.311C148.422 149.311 148.259 147.926 147.77 147.111C147.281 146.296 146.71 145.888 146.71 145.888C146.71 145.888 147.036 146.703 146.71 147.681C146.465 148.659 145.487 149.393 145.487 149.393C144.59 150.045 144.101 150.615 144.02 151.675C143.938 152.408 144.264 153.957 142.96 153.712C141.737 153.468 140.759 149.963 140.596 148.985C140.596 148.985 140.596 148.415 140.677 147.926C140.677 147.437 141.167 145.399 141.167 145.399L141.737 142.71C141.737 142.71 141.9 141.324 141.819 140.835C141.737 140.346 141.493 139.124 141.248 138.39C140.922 137.657 140.107 136.597 140.107 136.597C140.107 136.597 140.351 137.575 140.433 137.901C140.514 138.227 140.514 139.613 140.514 139.613C140.514 139.613 140.433 140.428 140.351 140.835C140.27 141.243 140.025 141.976 139.618 142.954C138.558 145.155 137.254 147.437 137.335 149.963C137.417 151.023 137.661 152.082 137.254 153.06C137.091 153.386 136.927 153.631 136.601 153.712C136.438 153.712 136.275 153.712 136.194 153.631C131.792 152.327 132.199 147.681 132.688 143.932C133.096 141.08 133.504 137.901 132.118 135.375C131.384 133.989 130.243 132.93 129.183 131.789C128.123 130.648 127.227 129.262 127.227 127.714C126.656 128.936 126.9 130.322 127.308 131.626C127.716 132.848 128.368 134.071 128.694 135.375C129.265 137.901 128.286 140.509 127.308 142.873C126.248 145.236 125.026 147.6 124.862 150.208C124.699 153.549 126.656 157.054 129.917 158.032C127.39 157.95 124.862 156.972 122.987 155.261C122.091 154.446 121.194 153.549 120.949 152.408C120.705 151.186 120.868 150.208 120.053 149.067C119.401 148.17 118.585 147.437 117.852 146.622C115.569 143.932 115.162 140.102 115.406 136.516C114.591 138.553 114.509 140.917 115.162 143.036C115.488 144.095 116.058 145.073 116.303 146.214C116.71 148.415 115.732 150.615 114.917 152.653C114.591 153.386 114.346 154.12 114.346 154.854C114.346 155.913 114.835 156.891 115.243 157.787C113.694 156.646 113.694 155.587 113.042 154.038C112.39 152.327 110.433 152.245 109.048 151.267C107.988 150.452 107.336 149.148 107.173 147.844C107.01 146.54 107.254 145.155 107.499 143.851C107.009 144.666 106.52 145.481 106.031 146.377C105.379 147.518 104.727 148.659 104.401 149.882C104.075 151.104 103.993 152.49 104.482 153.712C104.645 154.201 104.971 154.609 105.135 155.098C105.787 157.624 102.689 159.906 100.406 159.499C98.7759 159.254 97.4716 158.032 96.6564 156.565C95.8412 155.179 95.4336 153.549 95.026 151.919C95.189 153.875 94.863 155.831 94.0478 157.543C93.4771 158.847 92.4989 160.151 91.113 160.395C89.8902 160.64 88.6674 159.906 87.7707 159.01C86.2218 157.461 85.3251 155.016 85.6512 152.816C85.9772 150.371 87.4446 148.252 87.7707 145.807C88.0968 143.525 87.6077 141.161 86.9555 138.879C86.3848 136.842 85.8142 134.804 84.836 132.848C83.5316 130.24 81.6567 127.958 80.4339 125.35C81.5751 128.61 81.4936 132.278 80.2708 135.456C79.7002 136.923 78.8035 138.39 78.2328 139.857C76.9285 143.199 76.9285 147.029 78.3143 150.371C78.5589 150.941 78.8034 151.512 78.885 152.164C78.885 153.06 78.3958 153.957 77.5806 154.446C76.847 154.935 75.9502 155.18 75.0535 155.261C72.6894 155.424 70.3253 154.609 68.5319 153.142C67.6352 152.408 67.3906 151.919 67.146 150.86C67.0645 150.452 66.6569 147.763 67.3906 147.6C64.4559 148.252 62.0103 150.697 61.195 153.549C60.9505 154.527 60.7059 155.668 59.8092 156.076C59.3201 156.239 58.831 156.157 58.3418 156.076C56.3038 155.505 54.9995 153.957 54.0213 152.245C54.0213 152.245 53.6137 151.593 52.88 150.045C52.0648 148.415 51.4126 146.377 51.4126 146.377C51.4126 146.377 50.2713 144.829 49.9452 143.117C49.6192 141.406 49.5376 139.613 49.5376 139.613C49.5376 139.613 49.5376 137.575 49.7822 135.945C50.0268 134.234 50.5974 132.522 50.5974 132.522C50.5974 132.522 51.6572 129.996 51.4941 128.692C51.3311 127.306 50.9235 126.899 50.9235 126.899C50.9235 126.899 51.0865 127.388 51.0865 128.04C51.0865 128.692 50.842 129.833 50.842 129.833L50.0268 131.544L48.8855 133.663L47.7442 136.027L46.929 138.064C46.929 138.064 46.3583 140.02 46.2768 141.161C46.1953 142.302 46.1953 143.769 46.1953 143.851C46.0323 144.421 46.2768 145.562 46.1953 146.214C46.1138 147.355 46.1138 148.578 46.1138 149.719C46.1138 150.778 46.6029 153.712 46.0323 154.527C45.7877 154.853 45.2986 154.935 44.891 154.854C44.4834 154.772 44.1573 154.527 43.8312 154.201C43.016 153.386 42.5269 152.245 42.4454 151.023C41.2226 153.142 41.4671 155.831 40.6519 158.113C40.6519 158.195 40.5704 158.358 40.4889 158.358C40.4074 158.439 40.2443 158.439 40.1628 158.358C39.103 158.113 38.2063 157.38 37.4726 156.483C36.4129 155.261 35.8422 153.957 35.027 152.653C34.3748 151.593 33.3966 150.697 32.826 149.556C32.0108 147.844 31.8477 145.888 32.0108 144.014C30.951 143.769 30.1358 144.829 29.5651 145.807C29.076 146.785 28.3423 147.844 27.2826 147.844C26.7119 147.844 26.1413 147.437 25.7337 147.029C25.4891 146.785 25.2446 146.459 25 146.214V164.063C26.875 164.389 28.5054 165.448 30.2988 166.264C32.3368 167.241 34.6194 167.975 36.8205 168.382C38.6139 168.708 40.4889 168.79 42.2823 168.464C45.054 167.893 47.4181 166.182 50.0268 164.959C52.0648 163.981 54.6734 163.329 56.7929 163.981C59.5646 164.796 61.7657 166.426 64.7819 166.426C68.4504 166.426 71.8742 164.633 75.5426 164.47C80.923 164.307 86.0588 167.893 91.3576 166.915C93.2326 166.589 95.026 165.611 96.901 165.285C98.7759 164.959 101.14 165.041 103.015 165.367C105.298 165.693 107.173 167.323 109.618 167.486C112.471 167.649 115.162 166.426 117.852 165.611C123.966 163.737 130.406 163.9 136.764 164.796C139.862 165.285 143.042 165.856 146.139 165.448C148.503 165.122 150.623 164.552 153.069 164.633C155.84 164.715 158.53 165.774 161.221 166.508C166.193 167.975 171.574 168.545 176.628 167.404C179.481 166.752 182.09 165.53 184.861 164.715C188.693 163.574 192.687 163.085 196.682 163.329C201.247 163.574 205.731 164.715 210.214 165.367C212.904 165.693 215.595 165.856 218.285 165.611C220.567 165.367 222.605 164.389 224.888 164.063C227.415 163.737 229.942 163.981 232.469 164.47C236.464 165.204 240.295 166.589 244.29 167.323C248.61 168.056 253.012 168.056 257.333 167.241C265.404 165.693 272.659 161.536 280.892 164.226C284.398 165.367 287.903 166.915 291.572 166.752C293.773 166.671 295.974 165.938 298.175 165.448C302.088 164.552 306.245 164.47 310.24 165.204C311.789 165.448 313.256 165.856 314.805 165.693C316.272 165.611 317.658 165.041 319.126 164.796C322.305 164.307 325.892 164.959 329.153 164.959C330.294 164.959 331.354 164.959 332.576 164.959C334.451 164.959 336.245 165.448 338.12 165.937C339.098 166.182 339.995 166.426 340.973 166.508C342.848 166.508 344.152 165.367 345.783 164.715C347.332 164.063 349.207 163.818 350.837 164.063C350.918 164.063 350.918 164.063 351 164.063V146.214C349.288 143.932 348.636 140.917 348.636 138.064Z" fill="#FFD13F"/>
<path d="M350.919 45.053V44.89C349.778 48.2315 347.333 51.0025 344.97 53.529C343.83 54.7515 342.689 55.974 341.63 57.1965C340.571 58.5005 339.674 60.1305 337.8 60.212C336.415 60.2935 335.193 59.397 334.215 58.3375C333.237 56.626 332.015 55.159 330.549 53.9365C330.549 55.7295 330.304 57.441 329.978 59.1525C329.163 63.2275 327.615 67.221 326.067 71.133C323.949 67.547 320.527 64.776 316.616 63.3905C317.104 65.5095 317.023 67.547 316.534 69.666C316.371 70.318 316.127 70.8885 315.638 71.296C314.823 71.948 313.438 71.5405 312.786 70.7255C312.134 69.9105 311.89 68.7695 311.727 67.71C311.564 66.6505 311.482 65.5095 310.831 64.613C310.26 67.547 309.69 70.5625 309.119 73.4965C308.794 68.7695 307.979 65.102 304.964 61.353C303.008 58.908 299.749 52.877 302.438 49.78C300.646 51.899 298.935 54.0995 297.631 56.5445C296.572 58.5005 295.92 60.6195 295.675 62.82C295.594 63.5535 295.268 67.547 295.92 67.873C294.453 67.058 293.72 65.3465 293.394 63.7165C293.068 62.0865 293.149 60.375 292.661 58.745C291.683 55.7295 289.157 54.2625 286.794 52.4695C285.979 51.8175 281.824 49.0465 283.453 47.661C280.52 50.269 279.053 54.4255 279.624 58.256C279.95 60.375 280.765 62.005 280.683 64.2055C280.602 66.569 279.95 68.851 278.809 70.8885C276.691 67.384 273.513 64.613 269.765 62.9015C269.439 65.428 268.624 67.9545 267.483 70.2365C265.609 64.5315 266.261 58.0115 269.357 52.7955C265.365 53.203 261.535 54.996 258.684 57.6855C257.298 58.9895 252.084 64.3685 253.143 66.732C252.165 64.6945 251.269 62.5755 250.454 60.4565C249.721 61.516 246.462 65.0205 246.951 66.4875C245.402 62.005 241.899 58.256 237.58 56.3C237.743 59.886 236.847 62.9015 234.892 65.8355C234.81 63.8795 234.81 61.9235 234.973 59.9675C232.61 62.657 230.818 65.8355 229.595 69.177C230.166 64.939 230.329 60.701 230.166 56.463C229.921 51.4915 227.151 48.7205 222.751 46.7645C222.099 46.4385 216.803 45.053 216.722 44.89C218.188 50.0245 217.21 55.811 214.033 60.1305C210.122 54.67 210.366 46.683 214.685 41.467C210.203 42.282 206.048 44.727 203.196 48.2315C200.996 50.921 199.611 54.0995 199.04 57.5225C198.715 59.723 198.959 64.8575 200.344 66.6505C199.04 64.939 197.737 63.2275 196.189 61.679C196.433 63.3905 195.944 65.1835 194.885 66.4875C194.07 65.754 193.744 64.613 193.663 63.472C193.337 60.212 193.826 56.952 195.048 53.855C193.826 54.4255 192.685 55.322 191.626 56.2185C189.752 57.6855 187.226 59.1525 185.922 61.1085C184.782 59.234 183.641 57.115 184.13 54.833C181.359 57.1965 179.322 60.2935 178.263 63.798C177.937 61.027 177.53 58.093 176.145 55.648C175.574 54.5885 174.76 53.6105 174.271 52.4695C172.886 49.128 174.678 45.379 176.389 42.2005C173.13 43.0155 170.197 45.053 168.404 47.9055C166.775 50.5135 165.878 54.018 166.53 57.0335C167.182 60.212 168.893 62.9015 168.078 66.243C166.856 64.5315 164.738 63.5535 162.619 63.7165C161.967 65.754 161.152 67.7915 160.338 69.7475C159.278 67.384 159.278 64.5315 160.501 62.2495C158.79 62.5755 150.316 65.6725 150.316 68.036C150.316 66.4875 150.071 64.8575 149.664 63.3905C149.256 64.287 148.605 65.102 147.79 65.754C147.301 62.331 145.264 60.049 143.634 57.1965C142.005 54.2625 140.294 51.573 137.116 50.106C138.909 54.0995 138.583 58.908 136.22 62.5755C136.22 58.582 134.672 54.5885 131.983 51.736C130.679 50.3505 129.131 49.128 128.398 47.4165C127.827 45.9495 127.909 44.238 128.724 42.934C125.301 45.1345 121.39 50.432 122.694 54.7515C123.101 56.0555 123.916 57.115 124.487 58.3375C125.79 61.353 125.057 64.8575 123.59 67.7915C123.672 64.939 123.101 61.9235 121.146 59.8045C120.331 58.908 119.272 58.256 118.376 57.3595C116.013 55.0775 114.791 51.6545 115.361 48.3945C112.509 51.6545 108.843 58.9895 111.042 63.309C109.983 63.309 104.035 59.9675 105.665 58.5005C104.85 59.234 97.6798 69.2585 100.043 69.666C98.4131 69.4215 96.9465 68.4435 96.0502 67.1395C95.154 65.754 94.828 64.0425 95.2354 62.4125C94.2577 64.45 93.6873 66.569 93.4429 68.851C93.3614 69.7475 93.1984 70.7255 92.5466 71.2145C91.1615 69.829 91.2429 67.6285 91.1615 65.8355C90.917 59.6415 88.3097 53.203 84.5616 48.2315C83.0135 46.194 81.3024 44.3195 79.021 43.26C77.5544 42.608 74.2137 42.0375 73.3174 40.5705C75.5988 44.727 77.9618 49.128 77.5544 53.855C77.5544 56.626 76.0877 59.1525 74.947 61.516C74.2137 62.983 73.5619 64.5315 73.073 66.08C72.8285 66.9765 72.5841 67.873 72.5841 68.7695C72.5841 70.0735 72.91 71.296 73.6433 72.3555C72.3397 72.3555 71.1175 71.622 70.2212 70.644C69.6508 70.0735 66.5546 62.331 67.5324 62.331C64.7621 62.331 62.4806 64.45 60.7696 66.4875C59.9548 67.4655 56.6956 72.1925 58.2437 73.3335C51.5624 68.2805 55.8808 60.1305 55.8808 53.366C55.8808 47.661 50.5846 43.586 46.9995 40C47.4069 41.141 47.7328 42.282 47.8958 43.5045C49.0365 49.6985 46.0217 55.811 43.0885 61.4345C42.9255 61.679 42.844 61.9235 42.5181 62.0865C41.9478 62.331 41.3774 61.679 41.2144 61.027C41.0515 60.4565 40.97 59.6415 40.3996 59.397C40.0737 60.9455 39.5034 62.4125 38.8515 63.8795C34.6146 61.4345 34.0442 53.6105 35.8368 49.0465C34.3702 52.388 32.6591 57.5225 30.5406 59.6415C29.9703 60.212 29.074 60.1305 28.4221 59.6415C27.7703 59.1525 27.4444 58.419 27.1185 57.767C25.8963 55.4035 25.2444 52.4695 25 49.454V88.9C43.4144 89.063 81.7098 89.4705 81.7098 89.4705L131.82 90.1225L205.559 89.226L267.402 88.4925C267.402 88.4925 305.779 88.3295 314.334 88.3295V88.737C320.119 88.8185 328.919 90.367 333.156 85.314C335.274 82.7875 336.66 79.283 337.23 75.6155C337.8 79.12 338.534 82.543 340 85.7215C340.489 86.781 341.059 88.4925 341.956 88.9C342.2 88.9815 342.852 88.9 343.096 88.9C345.704 88.9 348.311 88.9815 351 88.9815V49.454C350.837 47.987 350.837 46.52 350.919 45.053Z" fill="url(#paint4_linear_mob)"/>
<path d="M348.636 63.0645C348.554 59.8045 349.207 56.626 349.207 53.366C349.207 55.648 348.554 57.93 347.576 60.049C346.435 62.331 344.152 62.7385 342.685 64.5315C341.299 66.243 340.565 68.1175 340.158 70.2365C339.995 71.3775 339.75 74.3115 338.527 74.8005C338.283 74.882 338.038 74.8005 337.794 74.6375C336.489 73.8225 336.734 72.274 336.326 71.0515C335.756 69.4215 334.696 68.036 334.125 66.406C333.473 64.5315 332.332 62.657 332.495 60.538C331.924 65.9985 330.457 71.3775 328.011 76.2675C327.522 77.2455 327.033 78.2235 326.788 79.283C326.544 80.587 328.174 83.2765 326.951 83.684C325.158 84.336 324.261 81.3205 323.772 80.261C323.12 78.7125 323.609 76.9195 323.609 75.2895C323.609 72.5185 322.223 69.829 320.022 68.199C321.245 69.829 321.327 72.1925 320.267 73.904C319.615 74.9635 318.555 75.7785 317.74 76.675C316.517 78.0605 317.169 79.12 316.435 80.587C315.946 81.4835 314.805 81.8095 313.827 81.4835C312.848 81.1575 312.196 80.3425 311.789 79.3645C311.463 78.3865 311.381 77.4085 311.381 76.4305C311.137 77.653 310.973 78.794 310.729 80.0165C310.484 81.239 310.158 82.706 308.935 83.195C307.957 83.6025 306.734 82.9505 306.164 82.1355C305.512 81.239 305.349 80.1795 305.186 79.12C304.696 76.4305 304.859 73.3335 303.8 70.807C303.066 69.0955 301.762 67.6285 301.028 65.917C300.213 63.961 300.213 61.7605 300.213 59.723C298.338 62.5755 299.805 66.3245 299.479 69.7475C299.235 72.0295 298.012 74.23 298.175 76.5935C298.256 77.7345 298.664 78.8755 298.745 80.0165C298.827 81.1575 298.419 82.4615 297.441 82.9505C296.626 83.358 295.566 83.1135 294.832 82.543C292.794 80.9945 293.202 78.2235 291.653 76.512C291.246 76.023 289.126 74.393 289.126 74.393C289.126 74.393 288.555 73.8225 288.148 72.274C287.659 70.7255 288.555 67.6285 288.555 67.6285C288.555 67.6285 289.126 65.1835 289.289 63.635C289.452 62.0865 289.126 61.516 288.718 60.701C288.311 59.886 287.496 59.071 285.784 57.767C284.072 56.463 283.99 55.0775 283.99 55.0775C283.99 55.0775 283.909 55.974 284.072 56.952C284.235 57.93 284.479 58.8265 284.968 59.8045C285.458 60.7825 285.865 62.5755 285.865 62.5755C285.865 62.5755 286.11 63.635 285.539 65.6725C285.05 67.71 283.42 70.5625 283.42 70.5625C283.42 70.5625 282.523 72.1925 282.197 74.1485C281.871 76.1045 282.441 77.0825 282.441 77.0825C282.441 77.0825 283.664 79.2015 284.642 80.913C285.621 82.6245 284.887 83.847 284.887 83.847C284.887 83.847 283.175 86.3735 280.648 85.0695C278.121 83.847 277.387 80.6685 277.387 80.6685C277.387 80.6685 276.898 77.0825 275.757 74.6375C274.615 72.1925 271.925 69.503 271.925 69.503L272.414 70.318L273.066 72.111C273.066 72.111 273.474 74.1485 273.474 75.534C273.556 76.9195 272.822 81.3205 272.822 81.3205C272.822 81.3205 272.333 84.9065 270.376 85.5585C268.42 86.292 267.36 85.0695 267.36 85.0695C267.36 85.0695 265.811 83.4395 265.159 81.076C264.507 78.7125 263.61 77.327 263.61 77.327C263.61 77.327 263.366 77.327 262.143 74.882C260.92 72.437 260.675 69.0955 260.675 69.0955C260.675 69.0955 260.838 65.9985 261.328 63.961C261.817 61.9235 263.447 58.0115 263.447 58.0115L261.817 59.6415L260.186 61.9235C260.186 61.9235 259.127 63.8795 258.8 65.0205C258.474 66.1615 257.904 68.2805 257.904 68.2805C257.904 68.2805 257.659 70.3995 257.659 71.948C257.578 73.4965 257.659 75.208 258.067 76.9195C258.474 78.5495 258.882 82.217 258.882 82.217C258.882 82.217 258.637 85.3955 256.355 85.8845C253.991 86.3735 253.665 84.5805 253.665 84.5805C253.665 84.5805 253.665 83.9285 253.828 82.054C253.991 80.1795 253.176 79.3645 253.176 79.3645L250.322 76.2675C250.322 76.2675 249.833 75.697 249.589 74.067C249.344 72.5185 250.975 69.4215 250.975 69.4215C250.975 69.4215 250.159 70.0735 249.833 70.644C249.507 71.2145 249.018 72.763 249.018 72.763C249.018 72.763 248.447 75.9415 248.121 77.816C247.795 79.6905 247.469 80.75 246.409 82.6245C245.35 84.499 244.534 83.847 244.534 83.847C244.534 83.847 243.719 83.6025 243.149 82.543C242.578 81.4835 242.822 78.5495 242.822 78.5495C242.822 78.5495 243.393 76.7565 243.964 74.556C244.534 72.3555 244.616 69.992 244.616 69.992C244.616 69.992 244.534 67.7915 243.393 65.8355C242.252 63.8795 239.969 62.983 239.969 62.983L240.866 64.8575C240.866 64.8575 241.437 66.243 241.437 68.362C241.437 70.481 240.214 72.5185 240.214 72.5185C240.214 72.5185 238.991 75.045 238.909 76.9195C238.828 78.794 239.806 80.5055 239.806 80.5055C239.806 80.5055 240.784 82.4615 239.48 83.521C238.257 84.5805 237.116 83.6025 237.116 83.6025C237.116 83.6025 235.486 82.869 234.263 79.283C233.04 75.697 234.507 70.97 234.507 70.97C234.507 70.97 233.285 71.948 232.795 72.6C231.491 74.3115 231.084 76.349 230.024 78.2235C229.616 78.8755 228.964 79.446 228.149 79.3645C227.66 79.3645 227.171 79.0385 226.763 78.7125C224.154 76.5935 222.931 73.089 223.013 69.7475C223.176 64.6945 227.415 60.9455 225.377 55.811C224.48 53.6105 222.687 51.736 220.486 50.758C222.116 52.877 222.687 55.7295 221.79 58.1745C221.383 59.397 220.649 60.375 220.078 61.516C218.611 64.287 218.122 67.547 218.611 70.7255C218.937 72.6 219.589 74.393 219.426 76.2675C219.263 78.142 217.877 80.098 216.002 80.0165C214.779 79.935 213.801 79.0385 213.231 77.979C211.437 74.4745 212.252 70.0735 210.377 66.569C209.644 65.265 208.502 64.3685 207.687 63.2275C207.198 62.4125 206.79 61.516 206.383 60.701C205.079 58.256 204.752 55.648 205.649 53.04C206.383 50.8395 207.769 48.8835 209.399 47.172C206.872 48.965 204.752 51.247 203.448 54.018C202.144 56.789 201.736 60.049 202.714 62.9015C203.204 64.5315 204.1 65.9985 204.834 67.547C205.568 69.34 206.057 71.2145 206.138 73.1705C206.22 74.8005 205.975 76.5935 204.834 77.816C204.1 78.5495 202.877 78.8755 201.899 78.5495C200.513 78.142 200.513 77.2455 200.595 76.023C200.269 71.5405 197.579 69.992 197.579 69.992C197.579 69.992 198.557 72.763 198.068 75.371C197.579 77.979 196.6 78.794 196.6 78.957C196.519 79.12 196.03 80.0165 194.97 80.098C193.91 80.1795 193.421 78.8755 192.932 78.0605C192.443 77.2455 191.22 75.697 191.22 75.697L190.16 74.1485C190.16 74.1485 189.101 73.0075 189.101 69.829C189.019 66.6505 191.057 62.331 191.057 62.331L189.508 63.961L187.552 66.406C186.818 67.71 186.166 69.177 186.084 70.7255C186.084 71.785 186.41 74.8005 184.291 74.067C183.883 73.904 183.639 73.578 183.394 73.252C181.764 70.7255 182.171 67.384 183.15 64.5315C181.03 66.9765 180.378 70.481 181.438 73.4965C181.845 74.556 182.416 75.697 182.09 76.7565C181.845 77.7345 180.948 78.468 179.889 78.7125C175.65 79.446 174.019 74.067 174.182 70.97C174.345 68.4435 174.997 65.8355 174.59 63.3905C174.264 61.19 173.123 59.234 172.307 57.278C171.492 55.2405 170.921 52.9585 171.737 50.8395C170.269 52.551 169.617 54.996 170.025 57.1965C170.351 59.1525 171.329 60.864 171.737 62.7385C171.981 63.798 171.981 64.8575 171.9 65.917C171.574 69.992 169.047 73.089 168.557 77.001C168.394 78.3865 168.883 79.5275 168.883 79.5275C168.883 79.5275 168.72 79.3645 168.557 79.0385C168.394 78.7125 168.313 78.305 168.313 78.2235C168.313 78.142 168.231 77.653 167.987 76.4305C167.824 75.2895 167.742 74.067 167.579 73.4965C167.416 72.926 166.682 71.2145 166.03 70.481C165.378 69.666 164.155 68.6065 164.155 68.6065C164.155 68.6065 164.318 69.0955 164.481 69.829C164.644 70.644 164.563 71.948 164.563 71.948C164.563 71.948 164.481 72.6815 164.318 73.6595C164.155 74.6375 163.585 75.6155 163.585 75.6155C163.585 75.6155 163.259 76.186 162.525 77.327C161.791 78.468 161.465 79.2015 161.465 79.2015C161.465 79.2015 161.058 80.5055 161.058 81.6465C161.058 82.7875 161.465 84.01 161.465 84.01C161.465 84.01 161.873 84.9065 161.873 85.2325C161.873 85.5585 161.71 85.8845 160.487 85.477C157.797 84.5805 155.514 81.4835 154.943 78.794C154.454 76.838 154.291 74.8005 154.699 72.8445C155.107 70.8885 156.003 69.014 157.552 67.71C155.107 68.9325 153.15 71.0515 152.09 73.578C151.031 76.1045 150.786 78.957 151.601 81.565C151.683 81.891 151.764 82.217 151.764 82.543C151.683 83.521 150.46 84.0915 149.482 83.847C148.096 83.4395 147.036 82.1355 146.954 80.6685C146.954 80.6685 146.954 79.3645 147.688 77.5715C148.422 75.86 148.422 74.3115 148.422 74.3115C148.422 74.3115 148.259 72.926 147.77 72.111C147.281 71.296 146.71 70.8885 146.71 70.8885C146.71 70.8885 147.036 71.7035 146.71 72.6815C146.465 73.6595 145.487 74.393 145.487 74.393C144.59 75.045 144.101 75.6155 144.02 76.675C143.938 77.4085 144.264 78.957 142.96 78.7125C141.737 78.468 140.759 74.9635 140.596 73.9855C140.596 73.9855 140.596 73.415 140.677 72.926C140.677 72.437 141.167 70.3995 141.167 70.3995L141.737 67.71C141.737 67.71 141.9 66.3245 141.819 65.8355C141.737 65.3465 141.493 64.124 141.248 63.3905C140.922 62.657 140.107 61.5975 140.107 61.5975C140.107 61.5975 140.351 62.5755 140.433 62.9015C140.514 63.2275 140.514 64.613 140.514 64.613C140.514 64.613 140.433 65.428 140.351 65.8355C140.27 66.243 140.025 66.9765 139.618 67.9545C138.558 70.155 137.254 72.437 137.335 74.9635C137.417 76.023 137.661 77.0825 137.254 78.0605C137.091 78.3865 136.927 78.631 136.601 78.7125C136.438 78.7125 136.275 78.7125 136.194 78.631C131.792 77.327 132.199 72.6815 132.688 68.9325C133.096 66.08 133.504 62.9015 132.118 60.375C131.384 58.9895 130.243 57.93 129.183 56.789C128.123 55.648 127.227 54.2625 127.227 52.714C126.656 53.9365 126.9 55.322 127.308 56.626C127.716 57.8485 128.368 59.071 128.694 60.375C129.265 62.9015 128.286 65.5095 127.308 67.873C126.248 70.2365 125.026 72.6 124.862 75.208C124.699 78.5495 126.656 82.054 129.917 83.032C127.39 82.9505 124.862 81.9725 122.987 80.261C122.091 79.446 121.194 78.5495 120.949 77.4085C120.705 76.186 120.868 75.208 120.053 74.067C119.401 73.1705 118.585 72.437 117.852 71.622C115.569 68.9325 115.162 65.102 115.406 61.516C114.591 63.5535 114.509 65.917 115.162 68.036C115.488 69.0955 116.058 70.0735 116.303 71.2145C116.71 73.415 115.732 75.6155 114.917 77.653C114.591 78.3865 114.346 79.12 114.346 79.8535C114.346 80.913 114.835 81.891 115.243 82.7875C113.694 81.6465 113.694 80.587 113.042 79.0385C112.39 77.327 110.433 77.2455 109.048 76.2675C107.988 75.4525 107.336 74.1485 107.173 72.8445C107.01 71.5405 107.254 70.155 107.499 68.851C107.009 69.666 106.52 70.481 106.031 71.3775C105.379 72.5185 104.727 73.6595 104.401 74.882C104.075 76.1045 103.993 77.49 104.482 78.7125C104.645 79.2015 104.971 79.609 105.135 80.098C105.787 82.6245 102.689 84.9065 100.406 84.499C98.7759 84.2545 97.4716 83.032 96.6564 81.565C95.8412 80.1795 95.4336 78.5495 95.026 76.9195C95.189 78.8755 94.863 80.8315 94.0478 82.543C93.4771 83.847 92.4989 85.151 91.113 85.3955C89.8902 85.64 88.6674 84.9065 87.7707 84.01C86.2218 82.4615 85.3251 80.0165 85.6512 77.816C85.9772 75.371 87.4446 73.252 87.7707 70.807C88.0968 68.525 87.6077 66.1615 86.9555 63.8795C86.3848 61.842 85.8142 59.8045 84.836 57.8485C83.5316 55.2405 81.6567 52.9585 80.4339 50.3505C81.5751 53.6105 81.4936 57.278 80.2708 60.4565C79.7002 61.9235 78.8035 63.3905 78.2328 64.8575C76.9285 68.199 76.9285 72.0295 78.3143 75.371C78.5589 75.9415 78.8034 76.512 78.885 77.164C78.885 78.0605 78.3958 78.957 77.5806 79.446C76.847 79.935 75.9502 80.1795 75.0535 80.261C72.6894 80.424 70.3253 79.609 68.5319 78.142C67.6352 77.4085 67.3906 76.9195 67.146 75.86C67.0645 75.4525 66.6569 72.763 67.3906 72.6C64.4559 73.252 62.0103 75.697 61.195 78.5495C60.9505 79.5275 60.7059 80.6685 59.8092 81.076C59.3201 81.239 58.831 81.1575 58.3418 81.076C56.3038 80.5055 54.9995 78.957 54.0213 77.2455C54.0213 77.2455 53.6137 76.5935 52.88 75.045C52.0648 73.415 51.4126 71.3775 51.4126 71.3775C51.4126 71.3775 50.2713 69.829 49.9452 68.1175C49.6192 66.406 49.5376 64.613 49.5376 64.613C49.5376 64.613 49.5376 62.5755 49.7822 60.9455C50.0268 59.234 50.5974 57.5225 50.5974 57.5225C50.5974 57.5225 51.6572 54.996 51.4941 53.692C51.3311 52.3065 50.9235 51.899 50.9235 51.899C50.9235 51.899 51.0865 52.388 51.0865 53.04C51.0865 53.692 50.842 54.833 50.842 54.833L50.0268 56.5445L48.8855 58.6635L47.7442 61.027L46.929 63.0645C46.929 63.0645 46.3583 65.0205 46.2768 66.1615C46.1953 67.3025 46.1953 68.7695 46.1953 68.851C46.0323 69.4215 46.2768 70.5625 46.1953 71.2145C46.1138 72.3555 46.1138 73.578 46.1138 74.719C46.1138 75.7785 46.6029 78.7125 46.0323 79.5275C45.7877 79.8535 45.2986 79.935 44.891 79.8535C44.4834 79.772 44.1573 79.5275 43.8312 79.2015C43.016 78.3865 42.5269 77.2455 42.4454 76.023C41.2226 78.142 41.4671 80.8315 40.6519 83.1135C40.6519 83.195 40.5704 83.358 40.4889 83.358C40.4074 83.4395 40.2443 83.4395 40.1628 83.358C39.103 83.1135 38.2063 82.38 37.4726 81.4835C36.4129 80.261 35.8422 78.957 35.027 77.653C34.3748 76.5935 33.3966 75.697 32.826 74.556C32.0108 72.8445 31.8477 70.8885 32.0108 69.014C30.951 68.7695 30.1358 69.829 29.5651 70.807C29.076 71.785 28.3423 72.8445 27.2826 72.8445C26.7119 72.8445 26.1413 72.437 25.7337 72.0295C25.4891 71.785 25.2446 71.459 25 71.2145V89.063C26.875 89.389 28.5054 90.4485 30.2988 91.2635C32.3368 92.2415 34.6194 92.975 36.8205 93.3825C38.6139 93.7085 40.4889 93.79 42.2823 93.464C45.054 92.8935 47.4181 91.182 50.0268 89.9595C52.0648 88.9815 54.6734 88.3295 56.7929 88.9815C59.5646 89.7965 61.7657 91.4265 64.7819 91.4265C68.4504 91.4265 71.8742 89.6335 75.5426 89.4705C80.923 89.3075 86.0588 92.8935 91.3576 91.9155C93.2326 91.5895 95.026 90.6115 96.901 90.2855C98.7759 89.9595 101.14 90.041 103.015 90.367C105.298 90.693 107.173 92.323 109.618 92.486C112.471 92.649 115.162 91.4265 117.852 90.6115C123.966 88.737 130.406 88.9 136.764 89.7965C139.862 90.2855 143.042 90.856 146.139 90.4485C148.503 90.1225 150.623 89.552 153.069 89.6335C155.84 89.715 158.53 90.7745 161.221 91.508C166.193 92.975 171.574 93.5455 176.628 92.4045C179.481 91.7525 182.09 90.53 184.861 89.715C188.693 88.574 192.687 88.085 196.682 88.3295C201.247 88.574 205.731 89.715 210.214 90.367C212.904 90.693 215.595 90.856 218.285 90.6115C220.567 90.367 222.605 89.389 224.888 89.063C227.415 88.737 229.942 88.9815 232.469 89.4705C236.464 90.204 240.295 91.5895 244.29 92.323C248.61 93.0565 253.012 93.0565 257.333 92.2415C265.404 90.693 272.659 86.5365 280.892 89.226C284.398 90.367 287.903 91.9155 291.572 91.7525C293.773 91.671 295.974 90.9375 298.175 90.4485C302.088 89.552 306.245 89.4705 310.24 90.204C311.789 90.4485 313.256 90.856 314.805 90.693C316.272 90.6115 317.658 90.041 319.126 89.7965C322.305 89.3075 325.892 89.9595 329.153 89.9595C330.294 89.9595 331.354 89.9595 332.576 89.9595C334.451 89.9595 336.245 90.4485 338.12 90.9375C339.098 91.182 339.995 91.4265 340.973 91.508C342.848 91.508 344.152 90.367 345.783 89.715C347.332 89.063 349.207 88.8185 350.837 89.063C350.918 89.063 350.918 89.063 351 89.063V71.2145C349.288 68.9325 348.636 65.917 348.636 63.0645Z" fill="#FFD13F"/>
</g>
</g>
<defs>
<filter id="filter0_di_mob" x="30.8113" y="27.24" width="315.385" height="126.72" filterUnits="userSpaceOnUse" color-interpolation-filters="sRGB">
<feFlood flood-opacity="0" result="BackgroundImageFix"/>
<feColorMatrix in="SourceAlpha" type="matrix" values="0 0 0 0 0 0 0 0 0 0 0 0 0 0 0 0 0 0 127 0" result="hardAlpha"/>
<feOffset dy="3"/>
<feComposite in2="hardAlpha" operator="out"/>
<feColorMatrix type="matrix" values="0 0 0 0 0.825 0 0 0 0 0.396 0 0 0 0 0 0 0 0 1 0"/>
<feBlend mode="normal" in2="BackgroundImageFix" result="effect1_dropShadow"/>
<feBlend mode="normal" in="SourceGraphic" in2="effect1_dropShadow" result="shape"/>
<feColorMatrix in="SourceAlpha" type="matrix" values="0 0 0 0 0 0 0 0 0 0 0 0 0 0 0 0 0 0 127 0" result="hardAlpha"/>
<feOffset dx="1" dy="1"/>
<feGaussianBlur stdDeviation="1.5"/>
<feComposite in2="hardAlpha" operator="arithmetic" k2="-1" k3="1"/>
<feColorMatrix type="matrix" values="0 0 0 0 1 0 0 0 0 1 0 0 0 0 1 0 0 0 0.43 0"/>
<feBlend mode="normal" in2="shape" result="effect2_innerShadow"/>
</filter>
<radialGradient id="paint0_radial_mob" cx="0" cy="0" r="1" gradientUnits="userSpaceOnUse" gradientTransform="translate(187.5 87) rotate(90) scale(87 187.5)">
<stop stopColor="#FF7A00" stopOpacity="0.29"/>
<stop offset="1" stopColor="#FF7A00" stopOpacity="0"/>
</radialGradient>
<linearGradient id="paint1_linear_mob" x1="188" y1="38.3721" x2="188" y2="160.419" gradientUnits="userSpaceOnUse">
<stop stopColor="#FFEA2F"/>
<stop offset="0.840503" stopColor="#FF7400"/>
</linearGradient>
<linearGradient id="paint2_linear_mob" x1="188" y1="38.3721" x2="188" y2="160.419" gradientUnits="userSpaceOnUse">
<stop stopColor="#FFEA2F"/>
<stop offset="0.840503" stopColor="#FF7400"/>
</linearGradient>
<linearGradient id="paint3_linear_mob" x1="187.959" y1="169.251" x2="187.959" y2="122.135" gradientUnits="userSpaceOnUse">
<stop stopColor="#FFF367"/>
<stop offset="0.0719983" stopColor="#FDDB58"/>
<stop offset="0.2056" stopColor="#F9B43F"/>
<stop offset="0.3287" stopColor="#F6982E"/>
<stop offset="0.4362" stopColor="#F58723"/>
<stop offset="0.5161" stopColor="#F4811F"/>
<stop offset="0.8388" stopColor="#E53C25"/>
<stop offset="1" stopColor="#DF1F27"/>
</linearGradient>
<linearGradient id="paint4_linear_mob" x1="187.959" y1="94.2515" x2="187.959" y2="47.1352" gradientUnits="userSpaceOnUse">
<stop stopColor="#FFF367"/>
<stop offset="0.0719983" stopColor="#FDDB58"/>
<stop offset="0.2056" stopColor="#F9B43F"/>
<stop offset="0.3287" stopColor="#F6982E"/>
<stop offset="0.4362" stopColor="#F58723"/>
<stop offset="0.5161" stopColor="#F4811F"/>
<stop offset="0.8388" stopColor="#E53C25"/>
<stop offset="1" stopColor="#DF1F27"/>
</linearGradient>
</defs>
</svg>
