<svg width="60" height="68" viewBox="0 0 60 68" fill="none" xmlns="http://www.w3.org/2000/svg">
<g clip-path="url(#clip0)">
<path d="M51.4991 8.49116C52.522 6.31572 50.4409 5.99993 50.97 4.31572C51.2875 3.29818 52.2046 2.24555 52.2046 2.24555C52.2046 2.24555 48.0423 4.59642 50.1235 6.21046C51.0406 6.91221 51.4991 8.49116 51.4991 8.49116ZM60 67.9999H0C0 51.8245 0 35.6491 0 19.4736C0.0705467 16.1754 2.04586 13.1929 3.63316 11.7543C6.73721 8.87712 5.32628 5.19291 5.32628 5.19291C5.32628 5.19291 9.06526 8.28063 8.04233 12.1754C7.37213 14.7719 7.26631 16.9824 8.67725 19.228C8.46561 16.0701 10.0529 12.842 12.5926 11.4034C16.3316 9.29818 15.5908 8.3859 15.097 6.56134C14.709 5.01748 14.7443 3.64905 16.1552 2.52625C16.7901 1.99993 18.6949 0.491159 19.5767 -0.0351562C17.3898 2.49116 17.3192 3.26309 19.2593 5.57888C20.2469 6.73677 21.3051 8.24555 21.9048 9.82449C24.9735 1.54379 32.0988 7.57888 33.0864 0.456072C35.3792 3.15783 35.8025 4.77186 35.873 6.10519C36.1199 10.6315 37.284 11.6841 39.1534 15.5789C39.5062 14.8069 39.8942 14.035 40.2469 13.228C42.6455 8.10519 47.231 5.5087 47.231 5.5087C47.231 5.5087 46.067 12.0701 48.9242 15.0876C48.3598 12.4912 50.5467 9.96484 50.5467 9.96484C50.5467 9.96484 49.8413 14.3508 51.2522 14.2806C52.6631 14.2105 51.3228 11.2631 51.3228 11.2631C51.3228 11.2631 53.3333 13.3333 52.8748 14.7017C54.7443 12.4912 56.6843 10.5964 57.3192 9.47361C58.5538 7.228 57.0723 4.42098 57.0723 4.42098L58.4832 6.52625C59.8942 8.63151 56.1552 14.3157 58.9418 19.0526C59.3298 19.6841 59.6825 20.3508 59.9647 20.9824C60 36.6666 60 52.3508 60 67.9999ZM2.18695 8.77186C5.39683 6.21046 1.62257 2.35081 1.62257 2.35081C1.62257 2.35081 2.32804 4.07011 2.39859 5.85958C2.50441 7.61397 2.18695 8.77186 2.18695 8.77186ZM39.2945 14.8069C35.9436 8.91221 38.5538 5.99993 40.2116 3.85958C41.9048 1.71923 41.552 0.385896 41.552 0.385896C41.552 0.385896 44.1623 2.84204 42.1164 5.47362C40.0705 8.14028 41.4815 9.7894 41.7284 10.3859C40.4233 12.1052 39.2945 14.8069 39.2945 14.8069Z" fill="#E30613"/>
<path d="M58.4834 32.1403C58.1659 32.1052 57.8837 32.0701 57.6015 32C55.9437 32.3859 53.792 31.1228 51.8167 28.8772C50.7938 27.7193 50.2647 26.421 50.2294 24.8772C48.1483 25.5789 45.3264 25.5087 43.1395 25.4386C42.8573 25.4386 42.6456 25.4035 42.434 25.3684C42.3282 28.0701 40.7761 29.5438 38.695 30.3508C35.4499 31.6491 32.5575 32.807 32.5575 32.807C25.8555 32.3508 22.1165 29.9649 20.2823 26.807C19.6121 29.4736 18.7656 31.3333 18.0248 31.5438C15.6262 32.1754 12.0284 31.7894 9.38285 27.228C9.34758 27.1929 9.3123 27.1228 9.3123 27.0877C6.52571 27.4035 3.80966 27.5087 1.48162 27.4035V21.1579C2.08126 21.2631 2.50454 21.228 2.50454 21.228C2.46927 21.1228 -0.811153 20.6666 0.917242 16C1.94017 13.1929 4.97368 12.3508 5.92606 10.7017C7.09008 8.70172 6.77262 7.75435 6.77262 7.75435C6.77262 7.75435 7.93664 10.9122 6.45516 13.228C4.93841 15.5789 7.51336 17.9649 9.38285 19.2631C10.5469 16.3508 12.0636 13.7543 14.8149 12.1403C20.247 8.98242 13.6157 6.35084 17.4252 2.10522C16.0142 5.01751 17.2135 5.54382 19.083 6.98242C20.2118 8.07014 20.882 9.8947 21.2347 12.035C24.7268 3.57891 32.24 7.22803 33.1571 2.56136C33.1571 2.84207 33.2276 3.8947 32.3105 6.24557C30.8643 9.8947 28.6774 10.1052 31.2523 14.1403C32.4164 16 34.2506 18.035 33.8273 17.4386C33.6862 17.228 31.0407 14 31.8167 9.96487C32.5574 6.03505 34.0389 4.84207 34.0389 4.84207C34.0389 4.84207 34.3564 8.70171 35.2735 11.5087C36.0848 13.9298 37.7779 13.2631 39.9649 17.3333C40.2823 13.3684 43.6333 8.87715 45.15 7.43856C47.5486 5.19294 43.8097 9.92979 46.3141 13.0526C48.0072 15.1228 50.6174 16.9473 51.9931 18.9473C52.8749 17.2631 54.1095 15.4035 55.7321 13.228C55.7321 13.228 54.8855 16.4561 57.0372 18.9122C57.531 19.4736 57.9896 20.2105 58.4128 21.0175V32.1403H58.4834ZM39.3299 15.1579C36.7903 9.50873 38.2012 6.80698 39.5416 5.82452C41.0231 4.7368 41.5169 4.38593 41.5169 4.38593C41.5169 4.38593 38.9067 7.05259 40.0354 9.05259C40.4587 9.82452 41.1994 10.1754 41.9754 10.3508C41.3405 11.1929 40.7409 12.1403 40.247 13.228C39.9649 13.8947 39.6474 14.5263 39.3299 15.1579Z" fill="#EF7D00"/>
<path fill-rule="evenodd" clip-rule="evenodd" d="M58.4835 22.1754C58.2718 21.7543 58.0249 21.3333 57.7075 20.9473C55.062 17.614 54.427 16.5964 54.427 16.5964C54.427 16.5964 51.6404 19.2631 52.6634 22.8771C52.6986 23.0526 52.7692 23.1929 52.8045 23.3333C52.2048 22.1052 50.6881 19.7192 47.6545 17.7192C41.9755 13.9298 42.8574 10.8771 42.8574 10.8771C40.5646 15.4035 40.2119 19.7192 40.2824 22.3859C39.4006 20.5964 37.2842 18.9824 35.0619 18.3859C29.7709 16.9473 28.9244 11.8947 28.9244 11.8947C28.9244 11.8947 26.9843 15.0175 29.3124 17.7543C29.9473 18.4912 29.2771 19.2631 28.7127 18.2806C28.36 17.7192 28.0778 16.421 27.7251 15.2982C25.785 9.61398 29.0655 7.15784 29.0655 7.15784C29.0655 7.15784 23.6686 8.07012 20.8115 17.7894C20.6704 18.2806 20.5646 18.7368 20.4588 19.1929C19.6122 17.3684 18.9773 15.6842 19.1889 14.1052C19.6475 10.6315 18.942 9.50871 18.942 9.50871C18.6951 13.1929 13.651 11.5087 10.1589 18.3508C9.66512 19.2982 9.31239 20.1754 9.06547 21.0175C7.93673 20.2456 6.9138 19.614 6.13778 19.228C2.64572 17.4385 3.7392 14.421 3.7392 14.421C-0.775796 20.1754 4.19775 21.6491 4.19775 21.6491C4.09193 21.9999 2.92791 22.035 1.55225 21.7543V66.4912H58.5187V22.1754H58.4835ZM33.7921 7.19292C32.099 11.2982 32.5223 14.3859 35.5205 17.0526C38.554 19.7192 39.718 21.0877 39.718 21.0877C39.718 21.0877 38.942 17.7894 36.5434 14.6666C34.1448 11.5789 33.7921 7.19292 33.7921 7.19292Z" fill="url(#paint0_linear)"/>
<path d="M19.4706 32C19.2942 31.7193 19.1178 31.4386 18.8709 31.1579C18.6593 30.8421 18.4124 30.5263 18.1302 30.2456C17.8833 29.9298 17.6011 29.6491 17.3189 29.3333C17.0367 29.0526 16.7545 28.807 16.4723 28.5614V32H14.6381V23.8947H16.4723V26.9473C16.9309 26.4561 17.4247 25.9298 17.9186 25.4035C18.4124 24.8772 18.8709 24.3508 19.2589 23.8947H21.4459C20.8815 24.5614 20.3171 25.193 19.7528 25.7894C19.1884 26.3859 18.5887 27.0175 17.9891 27.614C18.6593 28.1403 19.2589 28.807 19.8939 29.5438C20.4935 30.2807 21.0932 31.1228 21.6575 32H19.4706ZM27.1954 29.614C26.9838 30.1403 26.7369 30.5614 26.49 30.8772C26.2431 31.193 25.9962 31.4737 25.714 31.6491C25.4318 31.8245 25.1849 31.9649 24.9027 32.0351C24.6205 32.1052 24.3383 32.1403 24.0561 32.1403C23.7739 32.1403 23.527 32.1052 23.2096 32.0701C22.9274 32.0351 22.6452 31.9298 22.3983 31.8596L22.7157 30.3859C23.1037 30.5263 23.4917 30.5965 23.8798 30.5965C24.1267 30.5965 24.3736 30.5263 24.5852 30.421C24.7969 30.3158 25.0438 30.0701 25.2201 29.7193C24.9027 29.228 24.5852 28.7017 24.303 28.1754C24.0208 27.6491 23.7387 27.1228 23.4565 26.6315C23.1743 26.1052 22.9626 25.614 22.7157 25.1579C22.5041 24.7017 22.2925 24.2456 22.1161 23.8596H24.1619C24.303 24.1754 24.4441 24.4912 24.5852 24.8421C24.7263 25.193 24.9027 25.5438 25.079 25.9298C25.2554 26.3158 25.4318 26.6666 25.6081 27.0526C25.7845 27.4386 25.9609 27.7894 26.1372 28.1403C26.3842 27.4386 26.6311 26.7368 26.8427 26.0351C27.0896 25.3333 27.3013 24.5965 27.5129 23.8947H29.4882C29.2766 24.4912 29.0649 25.0526 28.8886 25.5789C28.6769 26.1052 28.5006 26.5965 28.3242 27.0526C28.1478 27.5087 27.9362 27.9649 27.7598 28.3859C27.5482 28.807 27.3718 29.228 27.1954 29.614ZM37.2484 23.8947V32H35.4141V25.4386H32.3806V32H30.5464V23.8947H37.2484ZM39.1178 32V23.8947H40.9521V28.6666C41.2342 28.2456 41.5517 27.7894 41.8692 27.3333C42.1866 26.8772 42.5041 26.421 42.8568 26C43.1743 25.5789 43.4917 25.1579 43.8092 24.807C44.1267 24.421 44.4088 24.1052 44.6558 23.8596H46.1372V31.9649H44.3383V26.6666C43.6328 27.4737 42.9979 28.3158 42.3983 29.228C41.7986 30.1403 41.2342 31.0526 40.7051 31.9649H39.1178V32ZM7.30127 37.0175C7.51291 36.9473 7.72455 36.8421 7.97146 36.7017C8.1831 36.5965 8.43002 36.4561 8.64166 36.3158C8.8533 36.1754 9.06494 36.0351 9.27658 35.8947C9.48822 35.7544 9.66458 35.5789 9.80568 35.4386H10.9344V42.9473H9.31185V37.5438C9.10021 37.6842 8.8533 37.8245 8.57111 37.9298C8.28892 38.0351 8.04201 38.1403 7.7951 38.2456L7.30127 37.0175ZM21.8339 35.4386V36.8772H19.5411V42.9473H17.848V36.8772H15.5552V35.4386H21.8339ZM24.0914 39.193C24.0914 39.5789 24.1267 39.8947 24.2325 40.1754C24.3383 40.4561 24.4441 40.7368 24.6205 40.9473C24.7969 41.1579 25.0085 41.3333 25.2554 41.4386C25.5023 41.5438 25.7845 41.614 26.102 41.614C26.4194 41.614 26.7016 41.5438 26.9485 41.4386C27.1954 41.3333 27.4071 41.1579 27.5835 40.9473C27.7598 40.7368 27.9009 40.4912 27.9715 40.1754C28.0773 39.8947 28.1126 39.5438 28.1126 39.193C28.1126 38.807 28.0773 38.4912 27.9715 38.1754C27.8656 37.8596 27.7598 37.614 27.5835 37.4035C27.4071 37.193 27.1954 37.0175 26.9485 36.9122C26.7016 36.807 26.4194 36.7368 26.102 36.7368C25.7845 36.7368 25.5023 36.807 25.2554 36.9122C25.0085 37.0175 24.7969 37.193 24.6205 37.4035C24.4441 37.614 24.303 37.8596 24.2325 38.1754C24.1619 38.5263 24.0914 38.8421 24.0914 39.193ZM29.8762 39.193C29.8762 39.8245 29.7704 40.3859 29.594 40.8772C29.4177 41.3684 29.1355 41.7894 28.818 42.1052C28.5006 42.421 28.0773 42.6666 27.6187 42.8421C27.1602 43.0175 26.6663 43.0877 26.1372 43.0877C25.6081 43.0877 25.1496 43.0175 24.691 42.8421C24.2325 42.6666 23.8445 42.421 23.4917 42.1052C23.139 41.7894 22.8921 41.3684 22.6805 40.8772C22.4688 40.3859 22.3983 39.8245 22.3983 39.193C22.3983 38.5614 22.5041 38 22.7157 37.5087C22.9274 37.0175 23.2096 36.5965 23.527 36.2807C23.8798 35.9649 24.2678 35.6842 24.7263 35.5438C25.1849 35.3684 25.6434 35.2982 26.1725 35.2982C26.7016 35.2982 27.1602 35.3684 27.6187 35.5438C28.0773 35.7193 28.4653 35.9649 28.818 36.2807C29.1708 36.5965 29.4177 37.0175 29.6293 37.5087C29.7704 38 29.8762 38.5614 29.8762 39.193ZM33.7916 43.0877C33.3683 43.0877 32.9803 43.0877 32.557 43.0526C32.1337 43.0175 31.7104 42.9824 31.2872 42.8772V35.5789C31.6399 35.5087 32.0279 35.4737 32.4159 35.4386C32.8392 35.4035 33.2272 35.4035 33.5799 35.4035C34.0738 35.4035 34.497 35.4386 34.9203 35.5087C35.3083 35.5789 35.6611 35.6842 35.9785 35.8596C36.2607 36.0351 36.5076 36.2456 36.6487 36.5263C36.8251 36.807 36.8956 37.1228 36.8956 37.5438C36.8956 38.1403 36.6134 38.6315 36.0138 38.9473C36.5076 39.1228 36.8251 39.3684 37.0014 39.6842C37.1778 40 37.2484 40.3508 37.2484 40.7368C37.2484 41.5087 36.9662 42.1052 36.3665 42.5263C35.8021 42.8772 34.9556 43.0877 33.7916 43.0877ZM32.945 39.6842V41.614C33.0861 41.614 33.1919 41.6491 33.333 41.6491C33.4741 41.6491 33.6505 41.6491 33.8268 41.6491C34.3207 41.6491 34.7439 41.5789 35.0614 41.4386C35.3789 41.2982 35.52 41.0175 35.52 40.6315C35.52 40.2807 35.3789 40.0351 35.132 39.8947C34.885 39.7544 34.497 39.6842 34.0032 39.6842H32.945ZM32.945 38.421H33.7563C34.2854 38.421 34.6381 38.3508 34.885 38.2105C35.0967 38.0701 35.2378 37.8596 35.2378 37.5789C35.2378 37.2631 35.132 37.0526 34.885 36.9473C34.6381 36.807 34.3207 36.7719 33.8621 36.7719C33.721 36.7719 33.5447 36.7719 33.4036 36.7719C33.2272 36.7719 33.0861 36.7719 32.945 36.807V38.421ZM43.5623 42.9824C43.4917 42.7368 43.3859 42.4561 43.2801 42.1754C43.1743 41.8947 43.1037 41.614 42.9979 41.3684H40.035C39.9291 41.6491 39.8586 41.9298 39.7528 42.1754C39.6469 42.4561 39.5764 42.7017 39.4706 42.9824H37.7069C37.9891 42.1754 38.2713 41.4386 38.5182 40.7368C38.7651 40.0351 39.012 39.4035 39.2589 38.807C39.5059 38.2105 39.7528 37.614 39.9644 37.0877C40.2113 36.5263 40.4582 36 40.7051 35.4737H42.3277C42.5746 36 42.8215 36.5263 43.0685 37.0877C43.3154 37.6491 43.5623 38.2105 43.8092 38.807C44.0561 39.4035 44.303 40.0701 44.5499 40.7368C44.7969 41.4386 45.079 42.1754 45.3612 42.9824H43.5623ZM41.5164 37.1579C41.4812 37.2631 41.4106 37.4035 41.3401 37.614C41.2695 37.7894 41.199 38.0351 41.0932 38.2807C40.9873 38.5263 40.8815 38.807 40.7757 39.0877C40.6699 39.3684 40.5288 39.6842 40.423 40.0351H42.5746C42.4688 39.7193 42.363 39.4035 42.2219 39.0877C42.1161 38.807 42.0103 38.5263 41.9044 38.2807C41.7986 38.0351 41.7281 37.8245 41.6575 37.614C41.6223 37.4035 41.587 37.2631 41.5164 37.1579ZM48.6417 35.3684C49.7704 35.3684 50.617 35.5789 51.2519 35.9649C51.8515 36.3508 52.169 37.0175 52.169 37.8947C52.169 38.807 51.8515 39.4386 51.2519 39.8596C50.6522 40.2456 49.7704 40.4561 48.6417 40.4561H48.1126V42.9824H46.4194V35.5789C46.8074 35.5087 47.1954 35.4386 47.5835 35.4386C47.9715 35.3684 48.3242 35.3684 48.6417 35.3684ZM48.7475 36.807C48.6417 36.807 48.5006 36.807 48.3947 36.807C48.2889 36.807 48.1831 36.807 48.0773 36.8421V39.0175H48.6064C49.206 39.0175 49.6293 38.9473 49.9468 38.7719C50.229 38.5965 50.4053 38.3158 50.4053 37.8947C50.4053 37.6842 50.3701 37.5087 50.2995 37.3684C50.229 37.228 50.1231 37.1228 49.982 37.0526C49.841 36.9824 49.6646 36.9122 49.4529 36.8772C49.206 36.8421 48.9944 36.807 48.7475 36.807ZM52.6628 41.8947C52.6628 42 52.6628 42.0701 52.6981 42.1403C52.6981 42.1754 52.6981 42.2105 52.6981 42.2456C52.6981 42.3859 52.6981 42.5263 52.6628 42.7017C52.6275 42.8421 52.5923 43.0175 52.557 43.193C52.5217 43.3684 52.4512 43.5087 52.3806 43.6842C52.3101 43.8596 52.2395 44 52.1337 44.1403L51.3224 43.9298C51.4283 43.614 51.4988 43.3333 51.5341 43.0526C51.5693 42.7719 51.6046 42.5614 51.6046 42.3859C51.6046 42.3508 51.6046 42.3158 51.6046 42.2807C51.6046 42.2456 51.6046 42.1754 51.6046 42.1403C51.6046 42.1052 51.6046 42.0351 51.6046 42C51.6046 41.9649 51.6046 41.9298 51.6046 41.9298H52.6628V41.8947ZM13.721 46.2456V53.4736H12.0984V47.614H9.3824V53.4736H7.75982V46.2456H13.721ZM16.7545 49.8596C16.7545 50.2105 16.7898 50.5263 16.8956 50.807C16.9662 51.0877 17.1073 51.3333 17.2836 51.5438C17.46 51.7544 17.6364 51.8947 17.8833 52.0351C18.1302 52.1403 18.4124 52.2105 18.6946 52.2105C19.012 52.2105 19.2589 52.1403 19.5059 52.0351C19.7528 51.9298 19.9644 51.7544 20.1055 51.5438C20.2819 51.3333 20.3877 51.0877 20.4935 50.807C20.5641 50.5263 20.6346 50.2105 20.6346 49.8596C20.6346 49.5087 20.5993 49.193 20.4935 48.8772C20.423 48.5965 20.2819 48.3508 20.1055 48.1403C19.9291 47.9298 19.7528 47.7894 19.5059 47.6491C19.2589 47.5438 18.9768 47.4737 18.6946 47.4737C18.3771 47.4737 18.1302 47.5438 17.8833 47.6491C17.6364 47.7544 17.46 47.9298 17.2836 48.1403C17.1073 48.3508 17.0014 48.5965 16.8956 48.8772C16.7898 49.193 16.7545 49.5087 16.7545 49.8596ZM22.3277 49.8596C22.3277 50.4912 22.2219 51.0175 22.0455 51.5087C21.8692 51.9649 21.6223 52.3859 21.2695 52.7017C20.9521 53.0175 20.5641 53.2631 20.1055 53.4035C19.6469 53.5789 19.1884 53.6491 18.6593 53.6491C18.1655 53.6491 17.7069 53.5789 17.2484 53.4035C16.7898 53.228 16.4371 53.0175 16.0843 52.7017C15.7669 52.3859 15.4847 52 15.3083 51.5087C15.132 51.0526 15.0261 50.4912 15.0261 49.8596C15.0261 49.228 15.132 48.7017 15.3083 48.2105C15.52 47.7544 15.7669 47.3333 16.0843 47.0175C16.4018 46.7017 16.7898 46.4561 17.2484 46.2807C17.6716 46.1052 18.1302 46.0351 18.624 46.0351C19.1178 46.0351 19.5764 46.1052 20.035 46.2807C20.4935 46.4561 20.8462 46.6666 21.199 47.0175C21.5164 47.3333 21.7986 47.7193 21.975 48.2105C22.2219 48.6666 22.3277 49.228 22.3277 49.8596ZM26.878 47.614C26.8427 48.0701 26.8427 48.5614 26.8074 49.0175C26.7722 49.4737 26.7369 49.9298 26.6311 50.3859C26.5605 50.8421 26.4194 51.228 26.2783 51.614C26.1372 52 25.9256 52.3508 25.6434 52.6315C25.3965 52.9122 25.0438 53.1579 24.6558 53.3333C24.2678 53.5087 23.7739 53.614 23.2096 53.614L23.0332 52.1754C23.527 52.1052 23.915 52 24.1972 51.7894C24.4794 51.5789 24.691 51.2982 24.8321 50.8772C25.0085 50.3859 25.1143 49.7193 25.2201 48.9122C25.2907 48.1052 25.326 47.1929 25.326 46.2105H30.2995V53.4386H28.6769V47.5789H26.878V47.614ZM35.8374 51.3684C35.6258 51.8245 35.4141 52.2105 35.2025 52.4912C34.9909 52.7719 34.744 53.0175 34.497 53.193C34.2501 53.3684 34.0032 53.4737 33.7563 53.5438C33.5094 53.614 33.2625 53.6491 33.0156 53.6491C32.7686 53.6491 32.5217 53.614 32.2748 53.5789C32.0279 53.5438 31.781 53.4737 31.5693 53.3684L31.8515 52.0701C32.2043 52.2105 32.557 52.2456 32.8745 52.2456C33.0861 52.2456 33.2977 52.2105 33.5094 52.1052C33.721 52 33.8974 51.7894 34.0738 51.4737C33.7916 51.0175 33.5094 50.5614 33.2272 50.1052C32.945 49.6491 32.6981 49.1579 32.4865 48.7017C32.2395 48.2456 32.0279 47.7894 31.8163 47.3684C31.6046 46.9473 31.4283 46.5614 31.2872 46.2105H33.1566C33.2625 46.4912 33.4036 46.7719 33.5447 47.0877C33.6857 47.4035 33.8268 47.7193 33.9679 48.0351C34.109 48.3508 34.2854 48.7017 34.4265 49.0175C34.5676 49.3333 34.7439 49.6842 34.885 50C35.0967 49.4035 35.3083 48.7719 35.52 48.1052C35.7316 47.4737 35.908 46.8421 36.1196 46.1754H37.8833C37.7069 46.7017 37.5305 47.228 37.3542 47.6842C37.1778 48.1403 37.0014 48.5965 36.8251 49.0175C36.6487 49.4386 36.4723 49.8245 36.3313 50.2105C36.1549 50.6315 36.0138 50.9824 35.8374 51.3684ZM40.035 48.3508C40.035 48.6315 40.0702 48.8772 40.1408 49.0526C40.2113 49.228 40.3171 49.3684 40.423 49.4737C40.5641 49.5789 40.7051 49.6491 40.8815 49.6842C41.0579 49.7193 41.2695 49.7544 41.4812 49.7544C41.6575 49.7544 41.8339 49.7544 42.0103 49.7193C42.1866 49.7193 42.3983 49.6842 42.6099 49.6491V46.2105H44.2325V53.4386H42.6099V51.0175C42.363 51.0526 42.1514 51.0526 41.9044 51.0877C41.6928 51.0877 41.4812 51.1228 41.2695 51.1228C40.811 51.1228 40.423 51.0877 40.0702 51.0175C39.7175 50.9473 39.4 50.807 39.1531 50.5965C38.9062 50.3859 38.6946 50.1052 38.5535 49.7544C38.4124 49.4035 38.3418 48.9824 38.3418 48.4561V46.2456H39.9644V48.3508H40.035ZM45.9609 53.4736V46.2456H47.5835V50.5263C47.8304 50.1403 48.1126 49.7544 48.3947 49.3333C48.6769 48.9123 48.9591 48.5263 49.2766 48.1403C49.5588 47.7544 49.841 47.4035 50.1231 47.0526C50.4053 46.7017 50.6522 46.421 50.8992 46.2105H52.2395V53.4386H50.617V48.7017C50.0173 49.4035 49.4177 50.1754 48.8886 50.9824C48.3595 51.7894 47.8304 52.5965 47.3718 53.4386H45.9609V53.4736ZM7.44236 58.2456C7.654 58.1754 7.86564 58.0701 8.07728 57.9649C8.28892 57.8596 8.53584 57.7193 8.74748 57.614C8.95912 57.4737 9.17076 57.3333 9.3824 57.193C9.59404 57.0526 9.77041 56.8772 9.9115 56.7368H11.0402V64.1403H9.45294V58.807C9.2413 58.9473 8.99439 59.0877 8.74748 59.1929C8.46529 59.2982 8.21838 59.4035 7.97146 59.5087L7.44236 58.2456ZM19.6822 64.1052C19.5411 63.8596 19.3648 63.614 19.1531 63.3333C18.9415 63.0526 18.7298 62.7719 18.4829 62.4912C18.236 62.2105 17.9891 61.9298 17.7422 61.6842C17.4953 61.4386 17.2131 61.193 16.9662 60.9824V64.1052H15.273V56.7017H16.9662V59.4737C17.3895 59.0175 17.848 58.5614 18.2713 58.0701C18.7298 57.5789 19.1178 57.1228 19.5059 56.7017H21.4812C20.9873 57.2982 20.4582 57.8947 19.9644 58.421C19.4353 58.9824 18.9062 59.5438 18.3418 60.1052C18.9415 60.5965 19.5059 61.193 20.0702 61.8596C20.6346 62.5263 21.1637 63.2982 21.6575 64.1052H19.6822ZM26.7369 61.9298C26.5253 62.3859 26.3136 62.7719 26.0667 63.0877C25.8551 63.4035 25.6081 63.614 25.3612 63.7894C25.1143 63.9649 24.8674 64.0701 24.6205 64.1403C24.3736 64.2105 24.1267 64.2456 23.8445 64.2456C23.5976 64.2456 23.3507 64.2105 23.1037 64.1754C22.8568 64.1403 22.6099 64.0701 22.363 63.9649L22.6805 62.6315C23.0332 62.7719 23.3859 62.807 23.7387 62.807C23.9503 62.807 24.1619 62.7719 24.3736 62.6666C24.5852 62.5614 24.7616 62.3508 24.9732 62.0351C24.691 61.5789 24.4089 61.1228 24.1267 60.6315C23.8445 60.1403 23.5976 59.6842 23.3507 59.1929C23.1037 58.7368 22.8921 58.2807 22.6805 57.8596C22.4688 57.4386 22.2924 57.0175 22.1514 56.6666H23.9856C24.0914 56.9473 24.2325 57.228 24.3736 57.5438C24.5147 57.8596 24.6558 58.1754 24.8321 58.5263C25.0085 58.8772 25.1496 59.1929 25.326 59.5438C25.5023 59.8947 25.6434 60.2105 25.7845 60.5263C26.0314 59.8947 26.2431 59.2631 26.4547 58.5965C26.6663 57.9298 26.878 57.2982 27.0544 56.6315H28.8533C28.6769 57.1929 28.4653 57.6842 28.2889 58.1754C28.1126 58.6666 27.9362 59.1228 27.7598 59.5438C27.5835 59.9649 27.4071 60.3859 27.2307 60.7719C27.0544 61.1929 26.878 61.5789 26.7369 61.9298ZM35.8727 56.7017V64.1052H34.2148V58.1052H31.4283V64.1052H29.7351V56.7017H35.8727ZM39.012 60.3859C39.012 60.7368 39.0473 61.0877 39.1531 61.3684C39.2589 61.6491 39.3648 61.8947 39.5411 62.1052C39.7175 62.3158 39.9291 62.4912 40.176 62.5965C40.423 62.7017 40.7052 62.7719 41.0226 62.7719C41.3401 62.7719 41.6223 62.7017 41.8692 62.5965C42.1161 62.4912 42.3277 62.3158 42.5041 62.1052C42.6805 61.8947 42.7863 61.6491 42.8921 61.3684C42.9979 61.0877 43.0332 60.7368 43.0332 60.3859C43.0332 60.0351 42.9979 59.6842 42.8921 59.4035C42.7863 59.1228 42.6805 58.8421 42.5041 58.6315C42.3277 58.421 42.1161 58.2456 41.8692 58.1403C41.6223 58.0351 41.3401 57.9649 41.0226 57.9649C40.7052 57.9649 40.423 58.0351 40.176 58.1403C39.9291 58.2456 39.7175 58.421 39.5411 58.6315C39.3648 58.8421 39.2589 59.0877 39.1531 59.4035C39.0473 59.7193 39.012 60.0351 39.012 60.3859ZM44.691 60.3859C44.691 61.0175 44.5852 61.5789 44.4089 62.0701C44.2325 62.5614 43.9503 62.9473 43.6328 63.2631C43.3154 63.5789 42.9274 63.8245 42.4688 64C42.0103 64.1754 41.5164 64.2456 40.9873 64.2456C40.4935 64.2456 39.9997 64.1754 39.5411 64C39.0826 63.8245 38.6946 63.5789 38.3418 63.2631C37.9891 62.9473 37.7422 62.5263 37.5305 62.0701C37.3542 61.5789 37.2484 61.0175 37.2484 60.3859C37.2484 59.7544 37.3542 59.193 37.5658 58.7017C37.7775 58.2105 38.0244 57.8245 38.3771 57.4737C38.7298 57.1579 39.1178 56.9122 39.5764 56.7368C40.035 56.5614 40.4935 56.4912 40.9873 56.4912C41.4812 56.4912 41.975 56.5614 42.4335 56.7368C42.8921 56.9122 43.2801 57.1579 43.6328 57.4737C43.9856 57.7894 44.2325 58.2105 44.4441 58.7017C44.6205 59.193 44.691 59.7544 44.691 60.3859ZM50.5817 56.7017H52.2748V64.1052H50.5817V60.9473H47.7598V64.1052H46.0667V56.7017H47.7598V59.5438H50.5817V56.7017Z" fill="black" stroke="black" stroke-width="0.7087" stroke-miterlimit="22.9256" stroke-linecap="round" stroke-linejoin="round"/>
</g>
<defs>
<linearGradient id="paint0_linear" x1="29.9964" y1="7.18163" x2="29.9964" y2="66.497" gradientUnits="userSpaceOnUse">
<stop stop-color="#FFED00"/>
<stop offset="1" stop-color="#E84E0F"/>
</linearGradient>
<clipPath id="clip0">
<rect width="60" height="68" fill="white"/>
</clipPath>
</defs>
</svg>
