<svg width="1440" height="360" viewBox="0 0 1440 360" fill="none" xmlns="http://www.w3.org/2000/svg">
<path d="M294.657 159.513C272.468 117.641 289.759 96.6048 300.954 81.5508C312.148 66.3971 313.248 55.7297 313.248 55.7297C313.248 55.7297 327.241 74.2731 313.648 93.1155C300.054 111.958 309.45 123.921 311.149 128.009C302.053 140.072 294.657 159.513 294.657 159.513Z" fill="#DF3324"/>
<path d="M302.053 177.159C275.766 126.713 286.361 103.284 296.356 95.6079C306.251 87.8317 309.649 85.439 309.649 85.439C309.649 85.439 292.458 104.281 299.754 118.638C307.151 132.994 329.34 128.109 329.34 128.109L302.053 177.159Z" fill="#FF7E12"/>
<path d="M131.436 242.06C76.4627 223.218 85.0585 155.226 117.943 135.386C150.727 115.746 131.436 110.462 133.235 85.9374C135.134 61.4123 181.312 40.0775 181.312 40.0775C181.312 40.0775 142.531 62.2099 158.223 87.8316C173.915 113.553 196.105 138.975 173.516 161.806C151.026 184.636 206.3 192.811 201.002 215.242C195.805 237.873 131.436 242.06 131.436 242.06Z" fill="#DF3324"/>
<path d="M334.437 272.866C455.279 260.604 443.484 223.617 424.993 189.82C406.402 156.023 431.29 115.447 421.995 100.493C412.699 85.5386 412.699 85.5386 412.699 85.5386C412.699 85.5386 422.594 105.577 414.199 121.429C406.103 137.28 362.724 175.264 358.726 209.659C354.528 244.054 332.638 273.265 332.638 273.265L334.437 272.866Z" fill="#DF3324"/>
<path d="M305.451 246.646C298.455 284.032 275.366 279.845 252.577 283.434C251.678 283.633 250.678 283.833 249.878 284.032C222.992 289.316 179.013 285.926 172.816 256.417C130.636 60.6148 276.366 69.4877 255.876 0C296.756 43.9657 259.474 77.9618 275.966 125.018C287.86 159.911 315.946 190.518 305.451 246.646Z" fill="#DF3324"/>
<path d="M288.66 280.244C252.677 254.522 275.366 206.768 300.954 148.247C316.846 111.758 347.131 93.3148 347.131 93.3148C347.131 93.3148 338.435 145.655 362.124 165.095C384.313 183.439 417.597 229.299 393.009 267.084C370.12 302.276 288.66 280.244 288.66 280.244Z" fill="#DF3324"/>
<path d="M455.279 278.848C502.656 225.013 473.97 208.264 456.578 193.908C439.186 179.551 451.68 155.026 451.68 155.026C451.68 155.026 432.79 174.567 435.788 190.618C440.286 215.143 381.814 220.427 381.215 256.716C380.715 293.204 455.279 278.848 455.279 278.848Z" fill="#DF3324"/>
<path d="M83.5594 259.208C6.29688 221.822 37.6816 158.217 58.3716 137.58C79.0616 116.943 69.7661 90.9221 69.7661 90.9221C69.7661 90.9221 94.3541 113.054 87.7573 140.57C81.1605 168.186 83.2595 189.82 113.845 215.342C144.73 241.063 146.829 281.44 102.45 282.537C58.3716 283.833 83.5594 259.208 83.5594 259.208Z" fill="#DF3324"/>
<path d="M111.746 276.455C6.79664 285.727 -11.6944 227.904 5.89708 185.234C23.2886 142.764 20.8898 138.577 20.8898 138.577C20.8898 138.577 25.9873 154.428 22.9888 182.243C19.9902 209.958 34.6831 233.985 70.3658 229.997C105.749 225.81 123.44 258.709 123.74 261.7C124.04 264.691 111.746 276.455 111.746 276.455Z" fill="#DF3324"/>
<path d="M98.8519 106.674C119.842 88.1307 95.2537 60.6147 95.2537 60.6147C95.2537 60.6147 99.7515 72.8773 100.351 85.738C100.951 98.3993 98.8519 106.674 98.8519 106.674Z" fill="#DF3324"/>
<path d="M773.624 169.781C722.349 142.465 770.226 94.8103 771.725 95.1094C771.725 95.1094 762.729 143.661 771.725 143.163C781.021 142.564 780.221 126.314 780.221 126.314C780.221 126.314 794.614 142.166 790.116 152.035C785.518 161.706 780.021 176.062 773.624 169.781Z" fill="#DF3324"/>
<path d="M375.618 114.45C382.214 99.1968 368.621 96.7045 372.019 84.6413C374.118 77.4633 380.115 69.687 380.115 69.687C380.115 69.687 352.629 86.5355 366.322 97.8011C372.519 103.085 375.618 114.45 375.618 114.45Z" fill="#DF3324"/>
<path d="M865.452 112.237C872.049 96.9839 857.056 99.3766 860.455 87.3135C862.554 80.1354 876.547 59 876.547 59C876.547 59 838.265 85.4193 851.959 96.6849C858.156 101.969 865.452 112.237 865.452 112.237Z" fill="#DF3324"/>
<path d="M600.45 35.0412C605.94 50.3265 591.426 47.0454 593.989 59.0187C595.59 66.1481 607.944 87.6349 607.944 87.6349C607.944 87.6349 572.167 59.4607 586.271 49.3466C592.665 44.5885 600.45 35.0412 600.45 35.0412Z" fill="#DF3324"/>
<path d="M641.773 242C710.993 205.267 684.426 155.295 654.183 135.485C624.031 115.874 641.773 110.598 640.118 86.1094C638.371 61.6209 619.711 63.0146 619.711 63.0146C619.711 63.0146 631.569 62.4173 617.137 88.0008C602.704 113.684 587.461 125.5 592.741 161.865C598.02 198.229 562.589 192.824 567.461 215.222C572.242 237.819 641.773 242 641.773 242Z" fill="#DF3324"/>
<path d="M817.003 272.866C937.845 260.604 926.05 223.617 907.559 189.82C888.968 156.023 913.856 115.447 904.561 100.493C895.265 85.5386 895.265 85.5386 895.265 85.5386C895.265 85.5386 905.16 105.577 896.765 121.429C888.668 137.28 845.29 175.264 841.291 209.659C837.094 244.054 815.204 273.265 815.204 273.265L817.003 272.866Z" fill="#DF3324"/>
<path d="M788.017 246.646C781.021 284.032 757.932 279.845 735.143 283.434C734.243 283.633 733.244 283.833 732.444 284.032C705.557 289.316 661.579 285.926 655.382 256.417C613.202 60.6148 777.023 90.0249 756.533 20.5372C797.413 64.5029 742.04 77.9618 758.532 125.018C770.426 159.911 798.512 190.518 788.017 246.646Z" fill="#DF3324"/>
<path d="M771.225 280.244C735.243 254.522 757.932 206.768 783.52 148.247C799.412 111.758 829.697 93.3148 829.697 93.3148C829.697 93.3148 821.001 145.655 844.69 165.095C866.879 183.439 900.163 229.299 875.575 267.084C852.686 302.276 771.225 280.244 771.225 280.244Z" fill="#DF3324"/>
<path d="M566.125 259.208C488.863 221.822 520.247 158.216 540.937 137.58C561.627 116.943 552.332 90.9221 552.332 90.9221C552.332 90.9221 576.92 113.054 570.323 140.57C563.726 168.186 603.307 172.573 633.892 198.095C664.777 223.816 629.394 281.44 585.016 282.537C540.937 283.833 566.125 259.208 566.125 259.208Z" fill="#DF3324"/>
<path d="M594.311 276.455C489.362 285.727 463.175 232.091 480.767 189.421C498.158 146.951 544.136 90.4237 544.136 90.4237C544.136 90.4237 512.651 154.827 509.653 182.642C506.654 210.357 551.532 220.825 587.215 216.837C622.598 212.65 606.006 258.809 606.306 261.8C606.605 264.691 594.311 276.455 594.311 276.455Z" fill="#DF3324"/>
<path d="M654.882 215.94C631.793 193.509 656.381 163.102 656.381 163.102C656.381 163.102 651.883 194.406 660.879 193.907C670.175 193.309 661.479 172.373 661.479 172.373C661.479 172.373 675.872 188.225 671.374 198.095C666.776 207.865 661.279 222.221 654.882 215.94Z" fill="#DF3324"/>
<path d="M1074.58 243.356C1021.1 224.514 1029.5 156.522 1061.48 136.682C1093.37 117.042 1074.58 111.758 1076.38 87.2334C1078.18 62.7083 1123.15 41.3735 1123.15 41.3735C1123.15 41.3735 1085.47 63.5059 1100.67 89.1276C1115.96 114.849 1137.55 140.271 1115.56 163.102C1093.67 185.932 1147.44 194.107 1142.35 216.538C1137.25 239.169 1074.58 243.356 1074.58 243.356Z" fill="#DF3324"/>
<path d="M1272.08 274.162C1389.62 261.9 1378.13 224.913 1360.14 191.116C1342.05 157.319 1366.24 116.743 1357.24 101.789C1348.25 86.8346 1348.25 86.8346 1348.25 86.8346C1348.25 86.8346 1357.84 106.873 1349.74 122.725C1341.85 138.576 1299.67 176.56 1295.77 210.955C1291.67 245.35 1270.38 274.561 1270.38 274.561L1272.08 274.162Z" fill="#DF3324"/>
<path d="M1243.9 247.942C1237.1 285.328 1214.61 281.141 1192.42 284.73C1191.52 284.929 1190.62 285.129 1189.82 285.328C1163.63 290.612 1119.86 298.787 1113.76 269.277C1077.28 81.2517 1203.12 33.9961 1246.89 53.0379C1204.01 70.4846 1199.12 79.2578 1215.11 126.314C1226.8 161.207 1254.09 191.814 1243.9 247.942Z" fill="#DF3324"/>
<path d="M1227.5 281.54C1192.52 255.818 1214.61 208.064 1239.5 149.543C1254.99 113.054 1284.38 94.6108 1284.38 94.6108C1284.38 94.6108 1275.88 146.951 1298.97 166.391C1320.56 184.735 1352.94 230.595 1329.05 268.38C1306.77 303.572 1227.5 281.54 1227.5 281.54Z" fill="#DF3324"/>
<path d="M1421.41 271.57C1467.49 217.735 1418.31 189.72 1401.42 175.364C1384.53 161.008 1379.83 142.365 1379.83 142.365C1379.83 142.365 1365.74 157.419 1364.14 171.875C1363.44 178.554 1361.54 185.134 1358.24 191.016C1337.85 227.106 1310.16 213.049 1311.26 244.054C1310.86 280.742 1421.41 271.57 1421.41 271.57Z" fill="#DF3324"/>
<path d="M1028.25 256.068C952.752 211.399 983.373 135.403 1003.65 110.746C1023.83 86.0893 1014.8 55 1014.8 55C1014.8 55 1038.79 81.4438 1032.37 114.32C1025.94 147.315 1027.95 173.163 1057.87 203.657C1088.09 234.389 1090.1 282.631 1046.72 283.941C1003.65 285.489 1028.25 256.068 1028.25 256.068Z" fill="#DF3324"/>
<path d="M1055.22 276.743C953.25 287.847 894.88 223.132 911.942 172.028C928.804 121.163 971.01 66 971.01 66C971.01 66 960.533 119.014 957.64 152.327C954.746 185.52 980.389 225.878 1015.11 221.102C1049.43 216.087 1066.7 255.489 1066.99 259.071C1067.29 262.653 1055.22 276.743 1055.22 276.743Z" fill="#DF3324"/>
<path d="M1046.69 138.876C1058.29 116.145 1038.2 95.0096 1038.8 95.3087C1038.8 95.3087 1040.79 110.761 1041.39 123.622C1041.99 136.283 1046.69 138.876 1046.69 138.876Z" fill="#DF3324"/>
<path d="M1302.87 159.014C1283.38 136.583 1304.17 106.176 1304.17 106.176C1304.17 106.176 1300.37 137.48 1307.96 136.981C1315.76 136.383 1308.46 115.447 1308.46 115.447C1308.46 115.447 1320.56 131.299 1316.76 141.169C1312.96 150.939 1308.26 165.295 1302.87 159.014Z" fill="#DF3324"/>
<path d="M480.021 148.784C508.023 131.045 478.154 107 478.154 107C478.154 107 483.611 131.755 472.697 131.361C461.497 130.888 471.979 114.332 471.979 114.332C471.979 114.332 454.604 126.867 460.061 134.672C465.517 142.398 472.267 153.751 480.021 148.784Z" fill="#DF3324"/>
<path d="M657.021 148.784C685.023 131.045 655.154 107 655.154 107C655.154 107 660.611 131.755 649.697 131.361C638.497 130.888 648.979 114.332 648.979 114.332C648.979 114.332 631.604 126.867 637.061 134.672C642.517 142.398 649.267 153.751 657.021 148.784Z" fill="#DF3324"/>
<path d="M1237 140.072C1242.6 124.918 1228 123.622 1233.5 110.263C1236.4 103.384 1248.69 89.7258 1248.69 89.7258C1248.69 89.7258 1211.51 114.65 1224.81 125.915C1230.8 131.199 1237 140.072 1237 140.072Z" fill="#DF3324"/>
<path d="M1417.11 174.068C1423.51 158.815 1409.02 161.207 1412.31 149.144C1414.31 141.966 1427.91 120.831 1427.91 120.831C1427.91 120.831 1390.62 147.25 1404.02 158.516C1410.02 163.899 1417.11 174.068 1417.11 174.068Z" fill="#DF3324"/>
<path d="M146.829 70.2853C121.641 100.493 173.516 116.943 137.533 139.574C101.551 162.005 79.3613 215.641 96.8528 247.942C114.244 280.244 138.133 283.235 154.025 278.549C169.917 274.063 194.405 138.477 161.222 103.683C142.031 83.6445 146.829 70.2853 146.829 70.2853Z" fill="#FF7E12"/>
<path d="M249.979 287.621C119.342 277.751 157.923 149.742 194.905 109.665C221.592 80.7533 221.992 86.2365 252.477 62.509C264.172 53.2374 264.172 36.4885 264.172 36.4885C264.172 36.4885 275.566 57.0258 257.875 78.9588C240.483 101.091 223.391 135.386 242.882 160.011C262.373 184.536 259.374 179.452 258.175 177.956C257.275 176.461 239.584 153.431 244.681 124.719C249.579 96.8042 267.77 78.6597 267.77 78.6597C267.77 78.6597 263.572 113.952 269.869 133.991C276.166 154.029 287.26 146.851 305.851 194.007C324.442 241.163 311.549 261.202 289.959 270.474C269.169 279.446 249.979 287.621 249.979 287.621Z" fill="#FF7E12"/>
<path d="M320.045 255.32C252.277 224.514 313.448 130.103 334.438 109.167C355.427 88.2305 322.743 132.794 344.633 162.005C366.822 191.316 407.302 215.242 402.205 247.544C397.107 279.845 348.831 279.247 316.446 278.35C284.062 277.353 320.045 255.32 320.045 255.32Z" fill="#FF7E12"/>
<path d="M443.984 186.231C503.655 246.646 481.066 279.546 436.188 283.135C391.51 286.724 389.411 255.918 421.195 230.296C453.18 204.475 443.984 186.231 443.984 186.231Z" fill="#FF7E12"/>
<path d="M154.025 260.604C70.6657 283.035 12.1941 264.791 5.89712 225.71C-0.399818 186.729 13.9932 175.464 13.9932 175.464C13.9932 175.464 7.69625 203.578 32.1844 224.016C40.4803 230.994 52.0747 230.197 52.0747 230.197C52.0747 230.197 37.6817 214.544 38.2814 182.044C38.8811 150.341 66.1678 144.459 73.6642 130.302C81.4604 115.946 79.3614 109.366 79.3614 109.366C79.3614 109.366 87.1577 131.797 77.2625 148.247C62.2697 173.37 107.548 198.494 107.548 198.494L154.025 260.604Z" fill="#FF7E12"/>
<path d="M403.804 148.247C364.223 205.672 358.526 235.879 377.717 259.507C396.607 283.135 418.397 291.21 428.692 270.274C438.887 249.338 427.193 206.27 412.799 188.723C398.307 171.277 403.804 148.247 403.804 148.247Z" fill="#FF7E12"/>
<path d="M629.523 72C652.559 102.237 610.143 111.417 643.052 134.07C675.961 156.523 709.327 204.123 693.33 236.455C677.424 268.787 636.105 281.76 621.57 277.07C607.035 272.579 585.462 140.856 615.811 106.029C633.18 86.0705 629.523 72 629.523 72Z" fill="#FF7E12"/>
<path d="M732.544 296.195C601.908 286.325 640.489 158.316 677.471 118.239C704.158 89.327 713.354 93.5143 743.839 69.7868C755.533 60.5151 763.729 37.7845 763.729 37.7845C763.729 37.7845 765.428 67.7928 742.639 87.9313C721.55 106.574 705.957 143.96 725.448 168.585C744.938 193.11 741.94 188.025 740.74 186.53C739.841 185.035 722.149 162.005 727.247 133.293C732.144 105.378 750.336 87.2334 750.336 87.2334C750.336 87.2334 731.445 118.737 737.742 138.776C744.039 158.815 769.826 155.425 788.417 202.581C807.008 249.737 794.114 269.776 772.525 279.047C751.735 288.02 732.544 296.195 732.544 296.195Z" fill="#FF7E12"/>
<path d="M802.61 255.32C734.843 224.514 796.213 138.876 813.305 114.65C826.299 96.1064 805.309 132.794 827.198 162.005C849.387 191.315 889.868 215.242 884.77 247.544C879.673 279.845 831.396 279.247 799.012 278.35C766.628 277.353 802.61 255.32 802.61 255.32Z" fill="#FF7E12"/>
<path d="M926.55 186.231C986.221 246.646 963.632 279.546 918.754 283.135C874.075 286.724 871.976 255.918 903.761 230.296C935.746 204.475 926.55 186.231 926.55 186.231Z" fill="#FF7E12"/>
<path d="M638.59 260.205C555.23 282.636 489.262 263.495 482.965 224.414C476.668 185.433 512.651 139.972 512.651 139.972C512.651 139.972 494.06 196.101 518.548 216.538C526.844 223.517 545.635 237.076 545.635 237.076C545.635 237.076 522.346 214.245 522.946 181.745C523.546 150.042 550.832 144.16 558.329 130.003C566.125 115.647 564.026 109.067 564.026 109.067C564.026 109.067 571.822 131.498 561.927 147.948C546.934 173.071 652.583 190.019 652.583 190.019L638.59 260.205Z" fill="#FF7E12"/>
<path d="M886.37 148.247C846.789 205.672 841.092 235.879 860.282 259.507C879.173 283.135 900.962 291.21 911.257 270.274C921.453 249.338 909.758 206.27 895.365 188.723C880.872 171.277 886.37 148.247 886.37 148.247Z" fill="#FF7E12"/>
<path d="M1089.57 71.5813C1065.08 101.789 1115.56 118.239 1080.57 140.87C1045.59 163.301 1024 216.937 1040.99 249.238C1057.89 281.54 1081.17 284.531 1096.57 279.845C1112.06 275.359 1135.85 139.773 1103.56 104.979C1084.87 84.9405 1089.57 71.5813 1089.57 71.5813Z" fill="#FF7E12"/>
<path d="M1189.92 288.917C1062.78 279.047 1106.16 155.525 1136.35 110.961C1157.64 79.6566 1168.83 72.977 1185.52 64.3035C1199.12 57.2252 1236.7 54.7328 1236.7 54.7328C1236.7 54.7328 1214.81 58.4215 1197.52 80.3545C1180.63 102.487 1163.93 136.782 1182.93 161.407C1201.92 185.932 1199.02 180.847 1197.82 179.352C1196.92 177.857 1179.73 154.827 1184.72 126.115C1189.52 98.2 1207.21 80.0554 1207.21 80.0554C1207.21 80.0554 1198.82 112.656 1204.91 132.695C1211.01 152.733 1226.1 148.247 1244.2 195.403C1262.29 242.559 1249.69 262.598 1228.7 271.869C1208.61 280.742 1189.92 288.917 1189.92 288.917Z" fill="#FF7E12"/>
<path d="M1258.09 256.616C1192.12 225.81 1251.69 131.399 1272.08 110.463C1292.47 89.5265 1260.69 134.09 1281.98 163.301C1303.57 192.612 1342.95 216.538 1337.95 248.84C1332.95 281.141 1285.98 280.543 1254.49 279.646C1223.11 278.649 1258.09 256.616 1258.09 256.616Z" fill="#FF7E12"/>
<path d="M1373.83 167.189C1496.97 222.022 1416.91 280.643 1371.03 284.331C1327.56 287.92 1325.56 257.114 1356.44 231.493C1387.63 205.771 1373.83 167.189 1373.83 167.189Z" fill="#FF7E12"/>
<path d="M1097 262.637C1015.79 289.429 918.064 266.328 911.856 219.651C895.734 185.238 953.11 92.7168 953.611 93.5503C953.611 93.5503 932.683 178.094 956.514 202.504C992.162 241.799 1009.18 236.44 1009.18 236.44C1009.18 236.44 983.55 207.624 984.151 168.806C984.752 130.94 1011.29 123.914 1018.6 107.006C1026.21 89.859 1024.1 82 1024.1 82C1024.1 82 1031.71 108.792 1022.1 128.439C1007.48 158.446 1051.64 188.453 1051.64 188.453L1097 262.637Z" fill="#FF7E12"/>
<path d="M1339.55 149.543C1301.07 206.968 1295.47 237.175 1314.16 260.803C1332.55 284.431 1353.74 292.506 1363.74 271.57C1373.63 250.634 1362.24 207.566 1348.24 190.019C1334.25 172.573 1339.55 149.543 1339.55 149.543Z" fill="#FF7E12"/>
<path d="M261.273 94.91C249.879 124.22 249.879 155.325 269.969 174.367C290.059 193.21 297.855 203.08 297.855 203.08C297.855 203.08 292.758 179.452 276.866 157.419C260.873 135.287 261.273 94.91 261.273 94.91Z" fill="#FFDB2E"/>
<path d="M1201.62 91.1216C1190.22 120.432 1178.83 145.954 1198.92 164.996C1219.01 183.838 1238.2 200.288 1238.2 200.288C1238.2 200.288 1225.1 175.165 1209.21 153.132C1193.22 131 1201.62 91.1216 1201.62 91.1216Z" fill="#FFDB2E"/>
<path d="M450.381 198.693C450.381 198.693 451.681 214.545 426.493 224.115C426.093 224.315 425.593 224.514 425.193 224.713C424.594 217.535 421.995 210.357 416.498 202.98C399.106 179.153 394.908 171.775 394.908 171.775C394.908 171.775 376.317 190.618 383.314 216.538C383.714 217.635 383.914 218.831 384.213 219.729C380.215 211.055 370.22 194.007 350.13 179.651C312.448 153.032 318.145 131.299 318.145 131.299C293.557 183.739 302.853 232.49 302.853 232.49C308.95 213.249 288.46 191.316 266.471 184.935C231.388 174.766 225.79 138.876 225.79 138.876C225.79 138.876 213.096 161.108 228.489 180.648C232.687 185.932 228.289 191.415 224.491 184.437C222.192 180.249 220.293 171.177 217.894 163.301C205 122.725 225.49 94.7107 225.49 94.7107C225.49 94.7107 191.007 111.659 172.116 180.847C171.217 184.237 170.417 187.627 169.818 190.817C164.12 177.956 159.922 165.694 161.322 154.528C164.32 130.003 159.822 121.628 159.822 121.628C158.323 147.649 124.739 135.985 101.651 184.736C98.4522 191.316 96.1533 197.796 94.2542 203.777C86.8578 198.294 80.0611 193.808 74.9636 190.917C51.475 178.056 58.6715 156.522 58.6715 156.522C28.786 197.497 65.2683 243.157 65.2683 243.157C65.2683 243.157 18.491 231.792 11.2945 219.529C5.69723 225.611 0 222.819 0 222.819V359.701H502.156L487.963 226.907C480.966 222.919 463.275 212.252 450.381 198.693Z" fill="url(#paint0_linear)"/>
<path d="M1386.33 184.935C1386.33 184.935 1379.83 215.841 1356.14 225.411C1355.74 225.611 1355.34 225.81 1354.94 226.009C1354.34 218.831 1351.94 211.653 1346.75 204.276C1330.35 180.449 1326.46 173.071 1326.46 173.071C1326.46 173.071 1308.96 191.914 1315.56 217.834C1315.96 218.931 1316.16 220.127 1316.36 221.025C1312.56 212.351 1315.86 202.581 1296.97 188.225C1261.49 161.606 1266.98 124.121 1266.98 124.121C1243.8 176.561 1239.8 233.786 1239.8 233.786C1245.49 214.544 1226.2 192.611 1205.51 186.231C1172.53 176.062 1167.23 140.172 1167.23 140.172C1167.23 140.172 1155.24 162.404 1169.73 181.944C1173.73 187.228 1163.03 196.201 1159.44 189.222C1157.24 185.035 1159.24 166.093 1156.94 158.217C1144.84 117.641 1198.92 64.2039 1198.92 64.2039C1198.92 64.2039 1134.45 112.855 1116.66 182.044C1115.86 185.433 1115.06 188.823 1114.46 192.013C1109.06 179.153 1105.16 166.89 1106.46 155.724C1109.26 131.199 1105.06 122.825 1105.06 122.825C1103.66 148.845 1072.08 137.181 1050.29 185.932C1047.29 192.512 1045.09 198.992 1043.29 204.974C1036.3 199.49 1029.9 195.004 1025.1 192.113C1003.01 179.252 1005.5 140.172 1005.5 140.172C977.314 181.147 1017.41 247.743 1017.41 247.743C979.124 241.263 964.531 231.393 964.531 231.393L954.536 359.601H1440.3L1441 228.502C1434.4 224.614 1398.52 198.494 1386.33 184.935Z" fill="url(#paint1_linear)"/>
<path d="M930.5 161.905C930.2 171.875 928.649 216.638 909.058 224.115C908.659 224.315 908.159 224.514 907.759 224.713C907.159 217.535 895.565 215.043 890.068 207.666C878.273 191.515 878.373 177.059 879.573 169.482C879.773 168.286 860.782 197.397 865.879 216.638C866.279 217.735 866.479 218.931 866.779 219.828C862.781 211.155 852.786 194.107 832.696 179.751C804.509 159.812 812.006 123.822 812.006 123.822C812.006 123.822 797.213 149.543 790.316 176.76C784.319 200.388 786.218 226.109 786.218 225.411C784.619 209.759 761.33 197.895 742.14 192.312C716.052 184.736 709.855 153.431 708.456 137.779C708.356 136.483 702.559 168.984 711.055 180.648C715.253 185.932 702.859 171.177 700.46 163.301C690.565 132.196 710.255 104.281 720.05 92.8165C720.95 91.8195 719.65 90.4238 718.551 91.1216C704.058 100.194 669.475 126.813 654.682 180.847C654.682 180.847 652.5 163.301 637.5 156.5C607.5 136 623.397 107.194 623.397 107.194C623.397 107.194 612.897 116.194 611.397 141.694C610.068 151.664 613.632 163.974 610.397 172.194C607.263 180.153 603.299 188.417 601.5 194C601.5 194 563.298 187.291 558.5 184.5C542.308 175.627 540.238 161.905 540.238 161.905C531.642 182.841 537.539 230.994 551.032 242.958C552.032 243.855 498.458 219.33 497.458 174.766C497.458 173.47 482.166 204.575 481.366 225.411C481.366 225.511 481.366 225.611 481.366 225.71L482.566 359.701C482.566 360.299 483.065 359.701 483.765 359.701H964.232C964.831 359.701 965.431 360.299 965.431 359.701L965.131 232.39C965.131 231.991 965.031 231.592 964.631 231.493C939.144 220.825 930.5 161.905 930.5 161.905Z" fill="url(#paint2_linear)"/>
<defs>
<linearGradient id="paint0_linear" x1="251.067" y1="94.7107" x2="251.067" y2="359.705" gradientUnits="userSpaceOnUse">
<stop stop-color="#FFEA2F"/>
<stop offset="0.769" stop-color="#FFA026"/>
<stop offset="1" stop-color="#FF8520"/>
</linearGradient>
<linearGradient id="paint1_linear" x1="1197.82" y1="64.2634" x2="1197.82" y2="359.705" gradientUnits="userSpaceOnUse">
<stop stop-color="#FFEA2F"/>
<stop offset="0.769" stop-color="#FFA026"/>
<stop offset="1" stop-color="#FF8520"/>
</linearGradient>
<linearGradient id="paint2_linear" x1="723.35" y1="90.9429" x2="723.35" y2="359.987" gradientUnits="userSpaceOnUse">
<stop stop-color="#FFEA2F"/>
<stop offset="0.769" stop-color="#FFA026"/>
<stop offset="1" stop-color="#FF8520"/>
</linearGradient>
</defs>
</svg>
