<svg width="60" height="68" viewBox="0 0 60 68" fill="none" xmlns="http://www.w3.org/2000/svg">
<g clip-path="url(#clip0)">
<path d="M51.4991 8.49092C52.522 6.31548 50.4409 5.99969 50.97 4.31548C51.2875 3.29793 52.2046 2.2453 52.2046 2.2453C52.2046 2.2453 48.0423 4.59618 50.1235 6.21021C51.0406 6.91197 51.4991 8.49092 51.4991 8.49092ZM60 67.9997H0C0 51.8242 0 35.6488 0 19.4734C0.0705467 16.1751 2.04586 13.1927 3.63316 11.7541C6.73721 8.87688 5.32628 5.19267 5.32628 5.19267C5.32628 5.19267 9.06526 8.28039 8.04233 12.1751C7.37213 14.7716 7.26631 16.9821 8.67725 19.2278C8.46561 16.0699 10.0529 12.8418 12.5926 11.4032C16.3316 9.29793 15.5908 8.38565 15.097 6.56109C14.709 5.01723 14.7443 3.64881 16.1552 2.526C16.7901 1.99969 18.6949 0.490915 19.5767 -0.0354004C17.3898 2.49092 17.3192 3.26285 19.2593 5.57863C20.2469 6.73653 21.3051 8.2453 21.9048 9.82425C24.9735 1.54355 32.0988 7.57863 33.0864 0.455828C35.3792 3.15758 35.8025 4.77162 35.873 6.10495C36.1199 10.6313 37.284 11.6839 39.1534 15.5786C39.5062 14.8067 39.8942 14.0348 40.2469 13.2278C42.6455 8.10495 47.231 5.50846 47.231 5.50846C47.231 5.50846 46.067 12.0699 48.9242 15.0874C48.3598 12.4909 50.5467 9.9646 50.5467 9.9646C50.5467 9.9646 49.8413 14.3506 51.2522 14.2804C52.6631 14.2102 51.3228 11.2628 51.3228 11.2628C51.3228 11.2628 53.3333 13.333 52.8748 14.7014C54.7443 12.4909 56.6843 10.5962 57.3192 9.47337C58.5538 7.22776 57.0723 4.42074 57.0723 4.42074L58.4832 6.526C59.8942 8.63127 56.1552 14.3155 58.9418 19.0523C59.3298 19.6839 59.6825 20.3506 59.9647 20.9821C60 36.6664 60 52.3506 60 67.9997ZM2.18695 8.77162C5.39683 6.21021 1.62257 2.35056 1.62257 2.35056C1.62257 2.35056 2.32804 4.06986 2.39859 5.85934C2.50441 7.61372 2.18695 8.77162 2.18695 8.77162ZM39.2945 14.8067C35.9436 8.91197 38.5538 5.99969 40.2116 3.85934C41.9048 1.71899 41.552 0.385652 41.552 0.385652C41.552 0.385652 44.1623 2.84179 42.1164 5.47337C40.0705 8.14004 41.4815 9.78916 41.7284 10.3857C40.4233 12.1049 39.2945 14.8067 39.2945 14.8067Z" fill="#E30613"/>
<path d="M58.4834 32.1403C58.1659 32.1052 57.8837 32.0701 57.6015 32C55.9437 32.3859 53.792 31.1228 51.8167 28.8772C50.7938 27.7193 50.2647 26.421 50.2294 24.8772C48.1483 25.5789 45.3264 25.5087 43.1395 25.4386C42.8573 25.4386 42.6456 25.4035 42.434 25.3684C42.3282 28.0701 40.7761 29.5438 38.695 30.3508C35.4499 31.6491 32.5575 32.807 32.5575 32.807C25.8555 32.3508 22.1165 29.9649 20.2823 26.807C19.6121 29.4736 18.7656 31.3333 18.0248 31.5438C15.6262 32.1754 12.0284 31.7894 9.38285 27.228C9.34758 27.1929 9.3123 27.1228 9.3123 27.0877C6.52571 27.4035 3.80966 27.5087 1.48162 27.4035V21.1579C2.08126 21.2631 2.50454 21.228 2.50454 21.228C2.46927 21.1228 -0.811153 20.6666 0.917242 16C1.94017 13.1929 4.97368 12.3508 5.92606 10.7017C7.09008 8.70172 6.77262 7.75435 6.77262 7.75435C6.77262 7.75435 7.93664 10.9122 6.45516 13.228C4.93841 15.5789 7.51336 17.9649 9.38285 19.2631C10.5469 16.3508 12.0636 13.7543 14.8149 12.1403C20.247 8.98242 13.6157 6.35084 17.4252 2.10522C16.0142 5.01751 17.2135 5.54382 19.083 6.98242C20.2118 8.07014 20.882 9.8947 21.2347 12.035C24.7268 3.614 32.24 7.22803 33.1571 2.56137C33.1571 2.84207 33.2276 3.8947 32.3105 6.24558C30.8643 9.8947 28.6774 10.1052 31.2523 14.1403C32.4164 16 34.2506 18.035 33.8273 17.4386C33.6862 17.228 31.0407 14 31.8167 9.96487C32.5574 6.03505 34.0389 4.84207 34.0389 4.84207C34.0389 4.84207 34.3564 8.70172 35.2735 11.5087C36.0848 13.9298 37.7779 13.2631 39.9649 17.3333C40.2823 13.3684 43.6333 8.87715 45.15 7.43856C47.5486 5.19294 43.8097 9.92979 46.3141 13.0526C48.0072 15.1228 50.6174 16.9473 51.9931 18.9473C52.8749 17.2631 54.1095 15.4035 55.7321 13.228C55.7321 13.228 54.8855 16.4561 57.0372 18.9122C57.531 19.4736 57.9896 20.2105 58.4128 21.0175V32.1403H58.4834ZM39.3299 15.1579C36.7903 9.50873 38.2012 6.80698 39.5416 5.82452C41.0231 4.7368 41.5169 4.38593 41.5169 4.38593C41.5169 4.38593 38.9067 7.05259 40.0354 9.05259C40.4587 9.82452 41.1994 10.1754 41.9754 10.3508C41.3405 11.1929 40.7409 12.1403 40.247 13.228C39.9649 13.8947 39.6474 14.5263 39.3299 15.1579Z" fill="#EF7D00"/>
<path fill-rule="evenodd" clip-rule="evenodd" d="M58.4832 22.1755C58.2716 21.7545 58.0247 21.3334 57.7072 20.9474C55.0617 17.6141 54.4268 16.5966 54.4268 16.5966C54.4268 16.5966 51.6402 19.2632 52.6631 22.8773C52.6984 23.0527 52.7689 23.193 52.8042 23.3334C52.2046 22.1053 50.6878 19.7194 47.6543 17.7194C41.9753 13.9299 42.8571 10.8773 42.8571 10.8773C40.5644 15.4036 40.2116 19.7194 40.2822 22.386C39.4003 20.5966 37.2839 18.9825 35.0617 18.386C29.7707 16.9474 28.9241 11.8948 28.9241 11.8948C28.9241 11.8948 26.9841 15.0176 29.3121 17.7545C29.9471 18.4913 29.2769 19.2632 28.7125 18.2808C28.3598 17.7194 28.0776 16.4211 27.7248 15.2983C25.7848 9.6141 29.0652 7.15796 29.0652 7.15796C29.0652 7.15796 23.6684 8.07024 20.8113 17.7895C20.6702 18.2808 20.5643 18.7369 20.4585 19.1931C19.612 17.3685 18.977 15.6843 19.1887 14.1053C19.6472 10.6316 18.9418 9.50884 18.9418 9.50884C18.6949 13.193 13.6508 11.5088 10.1587 18.3509C9.66488 19.2983 9.31214 20.1755 9.06523 21.0176C7.93648 20.2457 6.91355 19.6141 6.13754 19.2281C2.64548 17.4387 3.73895 14.4211 3.73895 14.4211C-0.776041 20.1755 4.1975 21.6492 4.1975 21.6492C4.09168 22.0001 2.92766 22.0352 1.552 21.7545V66.4913H58.5185V22.1755H58.4832ZM33.7919 7.19305C32.0987 11.2983 32.522 14.386 35.5203 17.0527C38.5538 19.7194 39.7178 21.0878 39.7178 21.0878C39.7178 21.0878 38.9418 17.7895 36.5432 14.6667C34.1446 11.579 33.7919 7.19305 33.7919 7.19305Z" fill="url(#paint0_linear)"/>
<path d="M18.6244 32C18.448 31.7193 18.2717 31.4386 18.0247 31.1579C17.8131 30.8421 17.5662 30.5263 17.284 30.2456C17.0371 29.9298 16.7549 29.6491 16.4727 29.3333C16.1905 29.0526 15.9083 28.807 15.6262 28.5614V32H13.7919V23.8947H15.6262V26.9473C16.0847 26.4561 16.5785 25.9298 17.0724 25.4035C17.5662 24.8772 18.0248 24.3508 18.4128 23.8947H20.5997C20.0353 24.5614 19.471 25.193 18.9066 25.7894C18.3422 26.3859 17.7426 27.0175 17.1429 27.614C17.8131 28.1403 18.4128 28.807 19.0477 29.5438C19.6473 30.2807 20.247 31.1228 20.8113 32H18.6244ZM26.3493 29.614C26.1376 30.1403 25.8907 30.5614 25.6438 30.8772C25.3969 31.193 25.15 31.4737 24.8678 31.6491C24.5856 31.8245 24.3387 31.9649 24.0565 32.0351C23.7743 32.1052 23.4921 32.1403 23.2099 32.1403C22.9277 32.1403 22.6808 32.1052 22.3634 32.0701C22.0812 32.0351 21.799 31.9298 21.5521 31.8596L21.8695 30.3859C22.2576 30.5263 22.6456 30.5965 23.0336 30.5965C23.2805 30.5965 23.5274 30.5263 23.739 30.421C23.9507 30.3158 24.1976 30.0701 24.374 29.7193C24.0565 29.228 23.739 28.7017 23.4569 28.1754C23.1747 27.6491 22.8925 27.1228 22.6103 26.6315C22.3281 26.1052 22.1165 25.614 21.8695 25.1579C21.6579 24.7017 21.4463 24.2456 21.2699 23.8596H23.3158C23.4568 24.1754 23.5979 24.4912 23.739 24.8421C23.8801 25.193 24.0565 25.5438 24.2329 25.9298C24.4092 26.3158 24.5856 26.6666 24.762 27.0526C24.9383 27.4386 25.1147 27.7894 25.2911 28.1403C25.538 27.4386 25.7849 26.7368 25.9965 26.0351C26.2434 25.3333 26.4551 24.5965 26.6667 23.8947H28.642C28.4304 24.4912 28.2188 25.0526 28.0424 25.5789C27.8307 26.1052 27.6544 26.5965 27.478 27.0526C27.3016 27.5087 27.09 27.9649 26.9136 28.3859C26.702 28.807 26.5256 29.228 26.3493 29.614ZM36.3669 23.8947V32H34.5327V25.4386H31.4992V32H29.665V23.8947H36.3669ZM38.2717 32V23.8947H40.1059V28.6666C40.3881 28.2456 40.7055 27.7894 41.023 27.3333C41.3404 26.8772 41.6579 26.421 42.0106 26C42.3281 25.5789 42.6456 25.1579 42.963 24.807C43.2805 24.421 43.5627 24.1052 43.8096 23.8596H45.2911V31.9649H43.4921V26.6666C42.7867 27.4737 42.1517 28.3158 41.5521 29.228C40.9524 30.1403 40.3881 31.0526 39.859 31.9649H38.2717V32ZM10.3704 37.228C10.3704 37.4737 10.3352 37.7193 10.2293 37.9649C10.1235 38.2105 9.98242 38.421 9.84133 38.6666C9.66496 38.8772 9.4886 39.0877 9.27696 39.2982C9.06532 39.5087 8.85368 39.6842 8.67731 39.8947C8.57149 40 8.46567 40.1052 8.35985 40.2105C8.25403 40.3158 8.11293 40.4561 8.00711 40.5614C7.90129 40.6666 7.79547 40.807 7.72493 40.9122C7.65438 41.0175 7.58383 41.0877 7.58383 41.1579H10.5821V42.421H5.85544C5.85544 42.3508 5.82017 42.2456 5.82017 42.1403C5.82017 42.0351 5.82017 41.9298 5.82017 41.8947C5.82017 41.5789 5.85544 41.2631 5.96126 40.9824C6.06708 40.7017 6.20817 40.4561 6.38454 40.2105C6.56091 39.9649 6.73727 39.7544 6.94891 39.5438C7.16055 39.3333 7.37219 39.1228 7.58383 38.9473C7.7602 38.807 7.90129 38.6315 8.04239 38.4912C8.18348 38.3508 8.32457 38.2105 8.43039 38.0701C8.53621 37.9298 8.64204 37.7894 8.67731 37.6842C8.74786 37.5438 8.78313 37.4035 8.78313 37.2982C8.78313 36.9824 8.71258 36.7719 8.53622 36.6666C8.35985 36.5614 8.14821 36.4912 7.90129 36.4912C7.72493 36.4912 7.54856 36.5263 7.37219 36.5614C7.19583 36.6315 7.05473 36.7017 6.94891 36.7719C6.80782 36.8421 6.702 36.9122 6.59618 37.0175C6.49036 37.0877 6.41981 37.1579 6.38454 37.193L5.6438 36.1403C5.96126 35.8596 6.27872 35.6491 6.702 35.4386C7.09001 35.2631 7.51329 35.1579 7.97184 35.1579C8.39512 35.1579 8.74786 35.193 9.03004 35.2982C9.3475 35.4035 9.59442 35.5438 9.77078 35.6842C9.98242 35.8596 10.1235 36.0701 10.1941 36.3158C10.2999 36.6315 10.3704 36.9122 10.3704 37.228ZM19.224 35.3684V36.7368H17.0724V42.421H15.4851V36.7368H13.3334V35.3684H19.224ZM20.9172 38.8772C20.9172 39.228 20.9524 39.5438 21.0583 39.8245C21.1288 40.1052 21.2699 40.3508 21.411 40.5263C21.5874 40.7368 21.7637 40.8772 22.0106 40.9824C22.2576 41.0877 22.5045 41.1579 22.8219 41.1579C23.1041 41.1579 23.3863 41.0877 23.5979 40.9824C23.8449 40.8772 24.0212 40.7017 24.1976 40.5263C24.374 40.3158 24.4798 40.0701 24.5503 39.8245C24.6209 39.5438 24.6914 39.228 24.6914 38.8772C24.6914 38.5263 24.6561 38.2105 24.5503 37.9298C24.4798 37.6491 24.3387 37.4035 24.1976 37.193C24.0212 36.9824 23.8449 36.8421 23.5979 36.7368C23.351 36.6315 23.1041 36.5614 22.8219 36.5614C22.5045 36.5614 22.2576 36.6315 22.0106 36.7368C21.7637 36.8421 21.5874 37.0175 21.411 37.193C21.2346 37.4035 21.1288 37.6491 21.0583 37.9298C20.9877 38.2456 20.9172 38.5614 20.9172 38.8772ZM26.3493 38.8772C26.3493 39.4737 26.2434 40 26.0671 40.4561C25.8907 40.9122 25.6438 41.2982 25.3263 41.614C25.0089 41.9298 24.6561 42.1403 24.1976 42.3158C23.7743 42.4561 23.3158 42.5614 22.7867 42.5614C22.2928 42.5614 21.8343 42.4912 21.411 42.3158C20.9877 42.1754 20.5997 41.9298 20.2822 41.614C19.9648 41.2982 19.7179 40.9122 19.5415 40.4561C19.3651 40 19.2593 39.4737 19.2593 38.8772C19.2593 38.2807 19.3651 37.7544 19.5415 37.2982C19.7179 36.8421 20.0001 36.4561 20.3175 36.1403C20.635 35.8245 21.023 35.5789 21.4463 35.4386C21.8695 35.2982 22.3281 35.193 22.7867 35.193C23.2805 35.193 23.739 35.2631 24.1623 35.4386C24.5856 35.5789 24.9736 35.8245 25.2911 36.1403C25.6085 36.4561 25.8554 36.8421 26.0318 37.2982C26.2434 37.7544 26.3493 38.2807 26.3493 38.8772ZM29.418 42.5263C29.03 42.5263 28.642 42.5263 28.254 42.4912C27.866 42.4561 27.478 42.421 27.0547 42.3158V35.4737C27.3722 35.4035 27.7249 35.3684 28.1129 35.3333C28.5009 35.2982 28.8537 35.2982 29.2064 35.2982C29.665 35.2982 30.0882 35.3333 30.441 35.4035C30.829 35.4737 31.1464 35.5789 31.4286 35.7193C31.7108 35.8596 31.9225 36.0701 32.0636 36.3508C32.2046 36.5965 32.3105 36.9122 32.3105 37.2982C32.3105 37.8596 32.0283 38.3158 31.4992 38.6315C31.9577 38.807 32.2399 39.0175 32.4163 39.3333C32.5927 39.614 32.6632 39.9649 32.6632 40.3158C32.6632 41.0526 32.381 41.614 31.8519 42C31.2875 42.3158 30.5115 42.5263 29.418 42.5263ZM28.6068 39.3333V41.1579C28.7126 41.1579 28.8537 41.1929 28.9948 41.1929C29.1359 41.1929 29.277 41.1929 29.4533 41.1929C29.9471 41.1929 30.2999 41.1228 30.6173 40.9824C30.8995 40.8421 31.0406 40.5965 31.0406 40.2456C31.0406 39.9298 30.9348 39.6842 30.6879 39.5438C30.441 39.4035 30.0882 39.3333 29.6297 39.3333H28.6068ZM28.6068 38.1403H29.3828C29.8766 38.1403 30.2293 38.0701 30.441 37.9649C30.6526 37.8245 30.7584 37.6491 30.7584 37.3684C30.7584 37.0877 30.6526 36.8772 30.441 36.7719C30.2293 36.6666 29.9119 36.5965 29.4886 36.5965C29.3475 36.5965 29.2064 36.5965 29.0653 36.5965C28.9242 36.5965 28.7831 36.5965 28.642 36.6315V38.1403H28.6068ZM38.3775 42.421C38.3069 42.1754 38.2011 41.9298 38.1306 41.6491C38.0247 41.4035 37.9542 41.1228 37.8484 40.8772H35.0618C34.956 41.1228 34.8854 41.4035 34.7796 41.6491C34.6738 41.8947 34.6032 42.1754 34.5327 42.3859H32.8748C33.157 41.614 33.4039 40.9122 33.6509 40.2807C33.8978 39.6491 34.1094 39.0175 34.3563 38.4561C34.568 37.8947 34.8149 37.3333 35.0265 36.8421C35.2382 36.3158 35.4851 35.8245 35.732 35.3333H37.2487C37.4956 35.8245 37.7073 36.3158 37.9542 36.8421C38.1658 37.3684 38.4128 37.8947 38.6244 38.4561C38.8713 39.0175 39.083 39.6491 39.3299 40.2807C39.5768 40.9122 39.8237 41.614 40.1059 42.3859H38.3775V42.421ZM36.4727 36.9473C36.4374 37.0526 36.4022 37.193 36.3316 37.3684C36.2611 37.5438 36.1905 37.7544 36.0847 37.9649C36.0142 38.2105 35.9083 38.4561 35.8025 38.7368C35.6967 39.0175 35.5909 39.2982 35.4851 39.614H37.4957C37.3898 39.2982 37.284 39.0175 37.1782 38.7368C37.0724 38.4561 36.9665 38.2105 36.896 37.9649C36.7902 37.7193 36.7196 37.5438 36.6491 37.3684C36.5785 37.193 36.508 37.0526 36.4727 36.9473ZM42.9277 35.2982C43.9859 35.2982 44.7972 35.4737 45.3616 35.8596C45.926 36.2456 46.2082 36.8421 46.2082 37.6842C46.2082 38.5263 45.926 39.1579 45.3616 39.5087C44.7972 39.8947 43.9859 40.0701 42.8925 40.0701H42.3986V42.421H40.8113V35.4737C41.1641 35.4035 41.5168 35.3684 41.9048 35.3333C42.2928 35.2982 42.6456 35.2982 42.9277 35.2982ZM43.0336 36.6315C42.9277 36.6315 42.7867 36.6315 42.6808 36.6315C42.575 36.6315 42.4692 36.6315 42.3986 36.6666V38.7017H42.8925C43.4568 38.7017 43.8449 38.6315 44.127 38.4912C44.4092 38.3508 44.5503 38.0701 44.5503 37.6491C44.5503 37.4386 44.515 37.2982 44.4445 37.1579C44.374 37.0175 44.2681 36.9122 44.127 36.8421C43.9859 36.7719 43.8449 36.7017 43.6332 36.6666C43.4921 36.6666 43.2805 36.6315 43.0336 36.6315ZM51.0406 42.421C50.9701 42.1754 50.8643 41.9298 50.7937 41.6491C50.6879 41.4035 50.6173 41.1228 50.5115 40.8772H47.7249C47.6191 41.1228 47.5486 41.4035 47.4427 41.6491C47.3369 41.8947 47.2664 42.1754 47.1958 42.3859H45.538C45.8202 41.614 46.0671 40.9122 46.314 40.2807C46.5609 39.6491 46.7725 39.0175 47.0195 38.4561C47.2311 37.8947 47.478 37.3333 47.6897 36.8421C47.9013 36.3158 48.1482 35.8245 48.3951 35.3333H49.9119C50.1588 35.8245 50.3704 36.3158 50.6173 36.8421C50.829 37.3684 51.0759 37.8947 51.2875 38.4561C51.5344 39.0175 51.7461 39.6491 51.993 40.2807C52.2399 40.9122 52.4868 41.614 52.769 42.3859H51.0406V42.421ZM49.1359 36.9473C49.1006 37.0526 49.0653 37.193 48.9948 37.3684C48.9242 37.5438 48.8537 37.7544 48.7479 37.9649C48.6773 38.2105 48.5715 38.4561 48.4657 38.7368C48.3598 39.0175 48.254 39.2982 48.1482 39.614H50.1588C50.053 39.2982 49.9471 39.0175 49.8413 38.7368C49.7355 38.4561 49.6297 38.2105 49.5591 37.9649C49.4533 37.7193 49.3828 37.5438 49.3122 37.3684C49.2417 37.193 49.1711 37.0526 49.1359 36.9473ZM55.344 41.4386C55.344 41.5438 55.344 41.614 55.344 41.6491C55.344 41.6842 55.344 41.7193 55.344 41.7544C55.344 41.8947 55.344 42 55.3087 42.1754C55.2734 42.3158 55.2382 42.4561 55.2029 42.5965C55.1676 42.7368 55.0971 42.8772 55.0265 43.0175C54.956 43.1579 54.8854 43.2982 54.8149 43.4386L54.0741 43.2631C54.18 42.9824 54.2505 42.7368 54.2858 42.4912C54.321 42.2456 54.3563 42.0351 54.3563 41.8947C54.3563 41.8596 54.3563 41.8245 54.3563 41.7894C54.3563 41.7544 54.3563 41.7193 54.3563 41.6491C54.3563 41.614 54.3563 41.5789 54.3563 41.5438C54.3563 41.5087 54.3563 41.4736 54.3563 41.4736H55.344V41.4386ZM12.2752 45.614V53.1228H10.5821V47.0526H7.7602V53.1228H6.06708V45.614H12.2752ZM15.4498 49.3684C15.4498 49.7193 15.4851 50.0701 15.5909 50.3508C15.6967 50.6315 15.8025 50.9122 15.9789 51.1228C16.1553 51.3333 16.3669 51.5087 16.6138 51.614C16.8607 51.7193 17.1429 51.7894 17.4604 51.7894C17.7778 51.7894 18.06 51.7193 18.3069 51.614C18.5539 51.5087 18.7655 51.3333 18.9419 51.1228C19.1182 50.9122 19.2593 50.6666 19.3299 50.3508C19.4357 50.0701 19.471 49.7193 19.471 49.3684C19.471 49.0175 19.4357 48.6666 19.3299 48.3508C19.224 48.0351 19.1182 47.7894 18.9419 47.5789C18.7655 47.3684 18.5539 47.1929 18.3069 47.0877C18.06 46.9824 17.7778 46.9122 17.4604 46.9122C17.1429 46.9122 16.8607 46.9824 16.6138 47.0877C16.3669 47.1929 16.1553 47.3684 15.9789 47.5789C15.8025 47.7894 15.6614 48.0351 15.5909 48.3508C15.4851 48.6666 15.4498 48.9824 15.4498 49.3684ZM21.1994 49.3684C21.1994 50 21.0935 50.5614 20.9172 51.0526C20.7408 51.5438 20.4586 51.9298 20.1412 52.2807C19.8237 52.5965 19.4004 52.8421 18.9419 53.0175C18.4833 53.1929 17.9895 53.2631 17.4604 53.2631C16.9313 53.2631 16.4727 53.1929 16.0142 53.0175C15.5556 52.8421 15.1676 52.5965 14.8149 52.2807C14.4621 51.9649 14.2152 51.5438 14.0036 51.0526C13.7919 50.5614 13.7214 50 13.7214 49.3684C13.7214 48.7368 13.8272 48.1754 14.0389 47.6842C14.2505 47.1929 14.5327 46.7719 14.8501 46.4561C15.2029 46.1403 15.5909 45.8596 16.0494 45.7193C16.508 45.5438 16.9665 45.4737 17.4956 45.4737C18.0247 45.4737 18.4833 45.5438 18.9419 45.7193C19.4004 45.8947 19.7884 46.1403 20.1412 46.4561C20.4939 46.7719 20.7408 47.1929 20.9524 47.6842C21.0935 48.1403 21.1994 48.7017 21.1994 49.3684ZM25.8907 47.0526C25.8554 47.5438 25.8554 48.0351 25.8202 48.4912C25.7849 48.9824 25.7143 49.4386 25.6438 49.8947C25.5732 50.3508 25.4322 50.7719 25.2911 51.1579C25.15 51.5438 24.9383 51.8947 24.6561 52.2105C24.374 52.5263 24.0565 52.7719 23.6332 52.9473C23.2099 53.1228 22.7161 53.228 22.1517 53.2631L21.9754 51.7894C22.5045 51.7193 22.8925 51.614 23.1747 51.4035C23.4568 51.1929 23.6685 50.8772 23.8096 50.4561C23.986 49.9298 24.127 49.2631 24.1976 48.421C24.2681 47.5789 24.3034 46.6666 24.3034 45.614H29.4533V53.1228H27.7602V47.0526H25.8907ZM35.2029 50.9122C34.9912 51.4035 34.7796 51.7894 34.5327 52.0701C34.2858 52.3859 34.0741 52.6315 33.8272 52.7719C33.5803 52.9473 33.3334 53.0526 33.0865 53.1228C32.8396 53.1929 32.5927 53.228 32.3105 53.228C32.0636 53.228 31.8166 53.1929 31.5345 53.1579C31.2523 53.1228 31.0054 53.0526 30.7937 52.9473L31.1112 51.5789C31.4639 51.7193 31.8166 51.7894 32.1694 51.7894C32.381 51.7894 32.6279 51.7544 32.8043 51.6491C33.0159 51.5438 33.2276 51.3333 33.4039 51.0175C33.1217 50.5614 32.8043 50.0701 32.5574 49.5789C32.2752 49.0877 32.0283 48.5965 31.7814 48.1403C31.5345 47.6842 31.3228 47.228 31.1112 46.7719C30.8995 46.3508 30.7232 45.9298 30.5468 45.5789H32.4163C32.5221 45.8596 32.6632 46.1754 32.8043 46.4912C32.9454 46.807 33.0865 47.1579 33.2628 47.4737C33.4392 47.8245 33.5803 48.1754 33.7567 48.4912C33.933 48.8421 34.0741 49.1579 34.2152 49.5087C34.4621 48.8772 34.6738 48.2105 34.8854 47.5789C35.0971 46.9122 35.3087 46.2456 35.4851 45.614H37.3193C37.1429 46.1754 36.9313 46.7017 36.7549 47.1579C36.5785 47.6491 36.4022 48.1052 36.2258 48.5263C36.0494 48.9473 35.8731 49.3684 35.6967 49.7544C35.5203 50.1754 35.344 50.5614 35.2029 50.9122ZM39.5415 47.8245C39.5415 48.1052 39.5768 48.3508 39.6473 48.5263C39.7179 48.7017 39.8237 48.8421 39.9648 48.9473C40.1059 49.0526 40.247 49.1228 40.4586 49.1579C40.635 49.193 40.8466 49.228 41.0935 49.228C41.2699 49.228 41.4463 49.228 41.6579 49.1929C41.8695 49.1929 42.0459 49.1579 42.2576 49.1228V45.614H43.9507V53.1228H42.2576V50.5965C42.0106 50.6315 41.7637 50.6315 41.5521 50.6666C41.3052 50.6666 41.0935 50.7017 40.8819 50.7017C40.4233 50.7017 40.0001 50.6666 39.6473 50.5614C39.2593 50.4912 38.9419 50.3158 38.6949 50.1052C38.448 49.8947 38.2364 49.614 38.0953 49.2631C37.9542 48.9122 37.8837 48.4561 37.8837 47.8947V45.614H39.5768V47.8245H39.5415ZM45.6791 53.1228V45.614H47.3722V50.0351C47.6191 49.6491 47.9013 49.228 48.2188 48.807C48.5009 48.3859 48.8184 47.9649 49.1006 47.5789C49.418 47.193 49.7002 46.807 49.9824 46.4561C50.2646 46.1052 50.5468 45.8245 50.7584 45.5789H52.1341V53.0877H50.4762V48.1754C49.8413 48.9122 49.2417 49.7193 48.6773 50.5614C48.1129 51.4035 47.5838 52.2456 47.09 53.0877H45.6791V53.1228ZM5.6438 58.0701C5.85544 57.9649 6.10235 57.8947 6.31399 57.7544C6.56091 57.6491 6.77255 57.5087 7.01946 57.3684C7.2311 57.228 7.44274 57.0877 7.65438 56.9473C7.86602 56.807 8.04239 56.6315 8.21875 56.4561H9.38278V64.1754H7.72493V58.6315C7.51329 58.7719 7.26637 58.9122 6.98419 59.0526C6.702 59.1579 6.45509 59.2982 6.1729 59.3684L5.6438 58.0701ZM18.3775 64.1754C18.2364 63.9298 18.0248 63.6491 17.8131 63.3684C17.6015 63.0877 17.3546 62.7719 17.1076 62.4912C16.8607 62.2105 16.6138 61.8947 16.3316 61.6491C16.0494 61.3684 15.8025 61.1228 15.5203 60.9122V64.1754H13.7919V56.4561H15.5203V59.3684C15.9789 58.9122 16.4374 58.421 16.896 57.8947C17.3546 57.3684 17.7778 56.9122 18.1658 56.4561H20.247C19.7179 57.0877 19.1888 57.6842 18.6597 58.2456C18.1306 58.807 17.5662 59.4035 16.9665 60C17.6015 60.5263 18.2011 61.1228 18.7655 61.8245C19.3299 62.5263 19.8942 63.2982 20.4233 64.1754H18.3775ZM25.7143 61.9298C25.5027 62.421 25.2558 62.807 25.0442 63.1228C24.7972 63.4386 24.5503 63.6842 24.3034 63.8596C24.0565 64.035 23.8096 64.1754 23.5274 64.2105C23.2805 64.2807 22.9983 64.3158 22.7514 64.3158C22.5045 64.3158 22.2223 64.2807 21.9754 64.2456C21.6932 64.2105 21.4463 64.1403 21.1994 64.035L21.5168 62.6315C21.8695 62.7719 22.2576 62.8421 22.6103 62.8421C22.8572 62.8421 23.0688 62.807 23.2805 62.7017C23.4921 62.5965 23.7038 62.3859 23.8801 62.0351C23.5627 61.5438 23.2805 61.0877 22.9983 60.5614C22.7161 60.0701 22.4339 59.5789 22.187 59.0877C21.9401 58.5965 21.6932 58.1403 21.4815 57.6842C21.2699 57.228 21.0935 56.8421 20.9172 56.4561H22.8572C22.963 56.7368 23.1041 57.0526 23.2452 57.3684C23.3863 57.6842 23.5627 58.035 23.7038 58.3859C23.8801 58.7368 24.0212 59.0877 24.1976 59.4386C24.374 59.7894 24.5151 60.1403 24.6914 60.4561C24.9383 59.7894 25.15 59.1228 25.3616 58.4561C25.5733 57.7894 25.7849 57.0877 25.9965 56.421H27.866C27.6544 56.9824 27.478 57.5438 27.3016 58.035C27.1253 58.5263 26.9136 59.0175 26.7373 59.4386C26.5609 59.8947 26.3845 60.3158 26.2082 60.7017C26.0318 61.1579 25.8907 61.5438 25.7143 61.9298ZM35.2734 56.4561V64.1754H33.5098V57.9298H30.6173V64.1754H28.8537V56.4561H35.2734ZM38.5186 60.3158C38.5186 60.7017 38.5538 61.0526 38.6597 61.3333C38.7655 61.6491 38.8713 61.8947 39.0477 62.1052C39.224 62.3158 39.4357 62.4912 39.6826 62.5965C39.9295 62.7017 40.2117 62.7719 40.5644 62.7719C40.8819 62.7719 41.1641 62.7017 41.4463 62.5965C41.6932 62.4912 41.9048 62.3158 42.0812 62.1052C42.2576 61.8947 42.3986 61.614 42.4692 61.3333C42.575 61.0175 42.6103 60.7017 42.6103 60.3158C42.6103 59.9298 42.575 59.5789 42.4692 59.2982C42.3634 58.9824 42.2576 58.7368 42.0812 58.4912C41.9048 58.2807 41.6932 58.1052 41.4463 58C41.1994 57.8947 40.9172 57.8245 40.5644 57.8245C40.247 57.8245 39.9295 57.8947 39.6826 58C39.4357 58.1052 39.224 58.2807 39.0477 58.5263C38.8713 58.7368 38.7302 59.0175 38.6597 59.3333C38.5538 59.614 38.5186 59.9298 38.5186 60.3158ZM44.4445 60.3158C44.4445 60.9824 44.3387 61.5438 44.1623 62.0701C43.9507 62.5614 43.7038 62.9824 43.351 63.3333C42.9983 63.6842 42.6103 63.9298 42.1165 64.1052C41.6579 64.2807 41.1288 64.3508 40.5997 64.3508C40.0706 64.3508 39.5768 64.2807 39.083 64.1052C38.6244 63.9298 38.2011 63.6842 37.8484 63.3333C37.4957 62.9824 37.2135 62.5614 37.0371 62.0701C36.8255 61.5789 36.7196 60.9824 36.7196 60.3158C36.7196 59.6491 36.8255 59.0877 37.0371 58.5614C37.2487 58.0701 37.5309 57.6491 37.8837 57.2982C38.2364 56.9473 38.6597 56.7017 39.1182 56.5263C39.5768 56.3508 40.0706 56.2807 40.5997 56.2807C41.1288 56.2807 41.6226 56.3508 42.1165 56.5263C42.575 56.7017 42.9983 56.9473 43.351 57.2982C43.7038 57.6491 43.9859 58.0701 44.1623 58.5614C44.3387 59.0526 44.4445 59.6491 44.4445 60.3158ZM50.5821 56.4561H52.3457V64.1754H50.5821V60.9122H47.6544V64.1754H45.8907V56.4561H47.6544V59.4035H50.5821V56.4561Z" fill="black" stroke="black" stroke-width="0.7087" stroke-miterlimit="22.9256" stroke-linecap="round" stroke-linejoin="round"/>
</g>
<defs>
<linearGradient id="paint0_linear" x1="29.9961" y1="7.18175" x2="29.9961" y2="66.4971" gradientUnits="userSpaceOnUse">
<stop stop-color="#FFED00"/>
<stop offset="1" stop-color="#E84E0F"/>
</linearGradient>
<clipPath id="clip0">
<rect width="60" height="68" fill="white"/>
</clipPath>
</defs>
</svg>
