<svg width="60" height="69" viewBox="0 0 60 69" fill="none" xmlns="http://www.w3.org/2000/svg">
<g clip-path="url(#clip0)">
<path d="M51.4991 8.53603C52.522 6.34908 50.4409 6.03162 50.97 4.3385C51.2875 3.31557 52.2046 2.2221 52.2046 2.2221C52.2046 2.2221 48.0423 4.58541 50.1235 6.20799C51.0406 6.94873 51.4991 8.53603 51.4991 8.53603ZM60 68.3597H0C0 52.0986 0 35.8376 0 19.5766C0.0705467 16.2609 2.04586 13.2627 3.63316 11.8164C6.73721 8.92403 5.32628 5.22033 5.32628 5.22033C5.32628 5.22033 9.06526 8.32439 8.04233 12.2397C7.37213 14.85 7.26631 17.0722 8.67725 19.3297C8.46561 16.1551 10.0529 12.9099 12.5926 11.4637C16.3316 9.34731 15.5908 8.43021 15.097 6.59599C14.709 5.04396 14.7443 3.6683 16.1552 2.53956C16.7901 2.01045 18.6949 0.4937 19.5767 -0.0354004C17.3898 2.50428 17.3192 3.2803 19.2593 5.60834C20.2469 6.77236 21.3051 8.28911 21.9048 9.87642C24.9735 1.5519 32.0988 7.61892 33.0864 0.458427C35.3792 3.17448 35.8025 4.79705 35.873 6.13744C36.1199 10.6877 37.284 11.7459 39.1534 15.6612C39.5062 14.8852 39.8942 14.1092 40.2469 13.2979C42.6455 8.14802 47.231 5.53779 47.231 5.53779C47.231 5.53779 46.067 12.1339 48.9242 15.1674C48.3598 12.5572 50.5467 10.0175 50.5467 10.0175C50.5467 10.0175 49.8413 14.4267 51.2522 14.3561C52.6631 14.2856 51.3228 11.3226 51.3228 11.3226C51.3228 11.3226 53.3333 13.4038 52.8748 14.7794C54.7443 12.5572 56.6843 10.6524 57.3192 9.52368C58.5538 7.26619 57.0723 4.44432 57.0723 4.44432L58.4832 6.56072C59.8942 8.67712 56.1552 14.3914 58.9418 19.1533C59.3298 19.7882 59.6825 20.4584 59.9647 21.0933C60 36.8605 60 52.6277 60 68.3597ZM2.18695 8.81821C5.39683 6.24326 1.62257 2.36319 1.62257 2.36319C1.62257 2.36319 2.32804 4.09158 2.39859 5.89053C2.50441 7.65419 2.18695 8.81821 2.18695 8.81821ZM39.2945 14.8852C35.9436 8.95931 38.5538 6.03162 40.2116 3.87994C41.9048 1.72827 41.552 0.38788 41.552 0.38788C41.552 0.38788 44.1623 2.85702 42.1164 5.50252C40.0705 8.18329 41.4815 9.84114 41.7284 10.4408C40.4233 12.1692 39.2945 14.8852 39.2945 14.8852Z" fill="#E30613"/>
<path d="M58.4834 32.3105C58.1659 32.2752 57.8837 32.2399 57.6015 32.1694C55.9437 32.5574 53.792 31.2875 51.8167 29.03C50.7938 27.866 50.2647 26.5609 50.2294 25.0089C48.1483 25.7143 45.3264 25.6438 43.1395 25.5732C42.8573 25.5732 42.6456 25.538 42.434 25.5027C42.3282 28.2187 40.7761 29.7002 38.695 30.5115C35.4499 31.8166 32.5575 32.9807 32.5575 32.9807C25.8555 32.5221 22.1165 30.1235 20.2823 26.9489C19.6121 29.6297 18.7656 31.4992 18.0248 31.7108C15.6262 32.3457 12.0284 31.9577 9.38285 27.3722C9.34758 27.3369 9.3123 27.2664 9.3123 27.2311C6.52571 27.5486 3.80966 27.6544 1.48162 27.5486V21.2699C2.08126 21.3757 2.50454 21.3404 2.50454 21.3404C2.46927 21.2346 -0.811153 20.7761 0.917242 16.0847C1.94017 13.2628 4.97368 12.4163 5.92606 10.7584C7.09008 8.74785 6.77262 7.79547 6.77262 7.79547C6.77262 7.79547 7.93664 10.9701 6.45516 13.2981C4.93841 15.6614 7.51336 18.06 9.38285 19.3651C10.5469 16.4374 12.0636 13.8272 14.8149 12.2046C20.247 9.03003 13.6157 6.38453 17.4252 2.11646C16.0142 5.04414 17.2135 5.57325 19.083 7.01945C20.2118 8.11293 20.882 9.94714 21.2347 12.0988C24.7268 3.63321 32.24 7.26637 33.1571 2.57501C33.1571 2.8572 33.2276 3.9154 32.3105 6.27871C30.8643 9.94714 28.6774 10.1588 31.2523 14.2152C32.4164 16.0847 34.2506 18.1306 33.8273 17.5309C33.6862 17.3193 31.0407 14.0741 31.8167 10.0177C32.5574 6.06707 34.0389 4.86778 34.0389 4.86778C34.0389 4.86778 34.3564 8.74785 35.2735 11.5697C36.0848 14.0036 37.7779 13.3334 39.9649 17.4251C40.2823 13.4392 43.6333 8.92422 45.15 7.47801C47.5486 5.22051 43.8097 9.98242 46.3141 13.1217C48.0072 15.2029 50.6174 17.0371 51.9931 19.0477C52.8749 17.3545 54.1095 15.4851 55.7321 13.2981C55.7321 13.2981 54.8855 16.5433 57.0372 19.0124C57.531 19.5768 57.9896 20.3175 58.4128 21.1288V32.3105H58.4834ZM39.3299 15.2381C36.7903 9.55914 38.2012 6.84309 39.5416 5.85543C41.0231 4.76196 41.5169 4.40922 41.5169 4.40922C41.5169 4.40922 38.9067 7.09 40.0354 9.10058C40.4587 9.8766 41.1994 10.2293 41.9754 10.4057C41.3405 11.2523 40.7409 12.2046 40.247 13.2981C39.9649 13.9683 39.6474 14.6032 39.3299 15.2381Z" fill="#EF7D00"/>
<path fill-rule="evenodd" clip-rule="evenodd" d="M58.4832 22.2928C58.2716 21.8695 58.0247 21.4462 57.7072 21.0582C55.0617 17.7073 54.4268 16.6843 54.4268 16.6843C54.4268 16.6843 51.6402 19.3651 52.6631 22.9983C52.6984 23.1746 52.7689 23.3157 52.8042 23.4568C52.2046 22.2223 50.6878 19.8237 47.6543 17.8131C41.9753 14.0036 42.8571 10.9348 42.8571 10.9348C40.5644 15.485 40.2116 19.8237 40.2822 22.5044C39.4003 20.7055 37.2839 19.0829 35.0617 18.4833C29.7707 17.0371 28.9241 11.9577 28.9241 11.9577C28.9241 11.9577 26.9841 15.097 29.3121 17.8484C29.9471 18.5891 29.2769 19.3651 28.7125 18.3775C28.3598 17.8131 28.0776 16.508 27.7248 15.3792C25.7848 9.66494 29.0652 7.1958 29.0652 7.1958C29.0652 7.1958 23.6684 8.11291 20.8113 17.8836C20.6702 18.3775 20.5643 18.836 20.4585 19.2946C19.612 17.4604 18.977 15.7672 19.1887 14.1799C19.6472 10.6879 18.9418 9.55912 18.9418 9.55912C18.6949 13.2628 13.6508 11.5697 10.1587 18.448C9.66488 19.4004 9.31214 20.2822 9.06523 21.1288C7.93648 20.3528 6.91355 19.7178 6.13754 19.3298C2.64548 17.5309 3.73895 14.4974 3.73895 14.4974C-0.776041 20.2822 4.1975 21.7637 4.1975 21.7637C4.09168 22.1164 2.92766 22.1517 1.552 21.8695V66.8431H58.5185V22.2928H58.4832ZM33.7919 7.23107C32.0987 11.3581 32.522 14.4621 35.5203 17.1429C38.5538 19.8237 39.7178 21.1993 39.7178 21.1993C39.7178 21.1993 38.9418 17.8836 36.5432 14.7443C34.1446 11.6402 33.7919 7.23107 33.7919 7.23107Z" fill="url(#paint0_linear)"/>
<path d="M19.7884 32.1693C19.612 31.8871 19.4356 31.6049 19.1887 31.3227C18.9771 31.0052 18.7302 30.6878 18.448 30.4056C18.2011 30.0881 17.9189 29.8059 17.6367 29.4885C17.3545 29.2063 17.0723 28.9594 16.7901 28.7125V32.1693H14.9559V24.0211H16.7901V27.0899C17.2487 26.5961 17.7425 26.067 18.2363 25.5379C18.7302 25.0088 19.1887 24.4797 19.5767 24.0211H21.7637C21.1993 24.6913 20.6349 25.3262 20.0705 25.9259C19.5062 26.5255 18.9065 27.1604 18.3069 27.7601C18.9771 28.2892 19.5767 28.9594 20.2116 29.7001C20.8113 30.4409 21.4109 31.2874 21.9753 32.1693H19.7884ZM27.5132 29.7707C27.3016 30.2998 27.0547 30.7231 26.8078 31.0405C26.5608 31.358 26.3139 31.6402 26.0317 31.8165C25.7496 31.9929 25.5026 32.134 25.2205 32.2045C24.9383 32.2751 24.6561 32.3104 24.3739 32.3104C24.0917 32.3104 23.8448 32.2751 23.5273 32.2398C23.2451 32.2045 22.963 32.134 22.716 32.0282L23.0335 30.5467C23.4215 30.6878 23.8095 30.7583 24.1975 30.7583C24.4444 30.7583 24.6914 30.6878 24.903 30.582C25.1146 30.4761 25.3616 30.2292 25.5379 29.8765C25.2205 29.3827 24.903 28.8536 24.6208 28.3245C24.3386 27.7954 24.0564 27.2663 23.7743 26.7724C23.4921 26.2433 23.2804 25.7495 23.0335 25.291C22.8219 24.8324 22.6102 24.3738 22.4339 23.9858H24.4797C24.6208 24.3033 24.7619 24.6208 24.903 24.9735C25.0441 25.3262 25.2205 25.679 25.3968 26.067C25.5732 26.455 25.7496 26.8077 25.9259 27.1957C26.1023 27.5837 26.2787 27.9365 26.455 28.2892C26.7019 27.5837 26.9489 26.8783 27.1605 26.1728C27.4074 25.4673 27.619 24.7266 27.8307 24.0211H29.806C29.5944 24.6208 29.3827 25.1851 29.2063 25.7142C28.9947 26.2433 28.8183 26.7372 28.642 27.1957C28.4656 27.6543 28.254 28.1128 28.0776 28.5361C27.866 28.9594 27.6896 29.3827 27.5132 29.7707ZM37.5661 24.0211V32.1693H35.7319V25.5731H32.6984V32.1693H30.8642V24.0211H37.5661ZM39.4356 32.1693V24.0211H41.2698V28.8183C41.552 28.395 41.8695 27.9365 42.1869 27.4779C42.5044 27.0194 42.8219 26.5608 43.1746 26.1375C43.4921 25.7142 43.8095 25.291 44.127 24.9382C44.4444 24.5502 44.7266 24.2328 44.9735 23.9858H46.455V32.134H44.6561V26.8077C43.9506 27.619 43.3157 28.4656 42.716 29.3827C42.1164 30.2998 41.552 31.2169 41.0229 32.134H39.4356V32.1693ZM8.28924 37.425C8.00705 37.7777 7.72487 38.1657 7.44268 38.5537C7.12522 38.977 6.87831 39.4003 6.70194 39.8236H8.32452V37.425H8.28924ZM9.77072 35.5555V39.8236H10.5115V41.0581H9.77072V42.6455H8.28924V41.0581H5.22046V39.9294C5.36155 39.6119 5.57319 39.2945 5.78483 38.9065C5.99647 38.5185 6.24339 38.1305 6.52557 37.7425C6.80776 37.3544 7.08995 36.9664 7.40741 36.5784C7.72487 36.1904 8.00706 35.8377 8.32452 35.5555H9.77072ZM19.3651 35.5555V36.9312H17.2134V42.6455H15.6261V36.9312H13.4744V35.5555H19.3651ZM21.3051 39.0828C21.3051 39.4356 21.3404 39.753 21.4462 40.0352C21.5168 40.3174 21.6578 40.5643 21.7989 40.7407C21.9753 40.9523 22.1517 41.0934 22.3986 41.1992C22.6455 41.3051 22.8924 41.3756 23.2099 41.3756C23.4921 41.3756 23.7743 41.3051 23.9859 41.1992C24.2328 41.0934 24.4092 40.9171 24.5855 40.7407C24.7619 40.529 24.8677 40.2821 24.9383 40.0352C25.0088 39.753 25.0794 39.4356 25.0794 39.0828C25.0794 38.7301 25.0441 38.4126 24.9383 38.1305C24.8677 37.8483 24.7266 37.6014 24.5855 37.3897C24.4092 37.1781 24.2328 37.037 23.9859 36.9312C23.739 36.8253 23.4921 36.7548 23.2099 36.7548C22.8924 36.7548 22.6455 36.8253 22.3986 36.9312C22.1517 37.037 21.9753 37.2134 21.7989 37.3897C21.6226 37.6014 21.5168 37.8483 21.4462 38.1305C21.3404 38.4479 21.3051 38.7654 21.3051 39.0828ZM26.7019 39.0828C26.7019 39.6825 26.5961 40.2116 26.4198 40.6701C26.2434 41.1287 25.9965 41.5167 25.679 41.8342C25.3616 42.1516 25.0088 42.3633 24.5503 42.5396C24.127 42.6807 23.6684 42.7865 23.1393 42.7865C22.6455 42.7865 22.1869 42.716 21.7637 42.5396C21.3404 42.3985 20.9524 42.1516 20.6349 41.8342C20.3175 41.5167 20.0705 41.1287 19.8942 40.6701C19.7178 40.2116 19.612 39.6825 19.612 39.0828C19.612 38.4832 19.7178 37.9541 19.8942 37.4955C20.0705 37.037 20.3527 36.649 20.6702 36.3315C20.9877 36.0141 21.3757 35.7671 21.7989 35.6261C22.2222 35.485 22.6808 35.3791 23.1393 35.3791C23.6332 35.3791 24.0917 35.4497 24.515 35.6261C24.9383 35.7671 25.3263 36.0141 25.6437 36.3315C25.9612 36.649 26.2081 37.037 26.3845 37.4955C26.5961 37.9541 26.7019 38.4832 26.7019 39.0828ZM29.9824 42.7513C29.5944 42.7513 29.2063 42.7513 28.8183 42.716C28.4303 42.6807 28.0423 42.6455 27.619 42.5396V35.6613C27.9365 35.5908 28.2892 35.5555 28.6772 35.5202C29.0653 35.485 29.418 35.485 29.7707 35.485C30.2293 35.485 30.6526 35.5202 31.0053 35.5908C31.3933 35.6613 31.7108 35.7671 31.9929 35.9082C32.2751 36.0493 32.4868 36.261 32.6279 36.5432C32.769 36.7901 32.8748 37.1075 32.8748 37.4955C32.8748 38.0599 32.5926 38.5185 32.0635 38.8359C32.522 39.0123 32.8042 39.2239 32.9806 39.5414C33.157 39.8236 33.2275 40.1763 33.2275 40.529C33.2275 41.2698 32.9453 41.8342 32.4162 42.2222C31.8519 42.5396 31.0758 42.7513 29.9824 42.7513ZM29.1711 39.5414V41.3756C29.2769 41.3756 29.418 41.4109 29.5591 41.4109C29.7002 41.4109 29.8413 41.4109 30.0176 41.4109C30.5115 41.4109 30.8642 41.3403 31.1817 41.1992C31.4638 41.0582 31.6049 40.8112 31.6049 40.4585C31.6049 40.141 31.4991 39.8941 31.2522 39.753C31.0053 39.6119 30.6526 39.5414 30.194 39.5414H29.1711ZM29.1711 38.3421H29.9471C30.4409 38.3421 30.7936 38.2716 31.0053 38.1657C31.2169 38.0246 31.3228 37.8483 31.3228 37.5661C31.3228 37.2839 31.2169 37.0723 31.0053 36.9664C30.7936 36.8606 30.4762 36.7901 30.0529 36.7901C29.9118 36.7901 29.7707 36.7901 29.6296 36.7901C29.4885 36.7901 29.3474 36.7901 29.2063 36.8253V38.3421H29.1711ZM38.9418 42.6455C38.8713 42.3985 38.7654 42.1516 38.6949 41.8694C38.5891 41.6225 38.5185 41.3403 38.4127 41.0934H35.6261C35.5203 41.3403 35.4497 41.6225 35.3439 41.8694C35.2381 42.1164 35.1675 42.3985 35.097 42.6102H33.4392C33.7213 41.8342 33.9683 41.1287 34.2152 40.4938C34.4621 39.8589 34.6737 39.2239 34.9206 38.6596C35.1323 38.0952 35.3792 37.5308 35.5908 37.037C35.8025 36.5079 36.0494 36.0141 36.2963 35.5202H37.813C38.06 36.0141 38.2716 36.5079 38.5185 37.037C38.7302 37.5661 38.9771 38.0952 39.1887 38.6596C39.4356 39.2239 39.6473 39.8589 39.8942 40.4938C40.1411 41.1287 40.388 41.8342 40.6702 42.6102H38.9418V42.6455ZM37.037 37.1428C37.0018 37.2486 36.9665 37.3897 36.8959 37.5661C36.8254 37.7425 36.7548 37.9541 36.649 38.1657C36.5785 38.4126 36.4727 38.6596 36.3668 38.9417C36.261 39.2239 36.1552 39.5061 36.0494 39.8236H38.06C37.9541 39.5061 37.8483 39.2239 37.7425 38.9417C37.6367 38.6596 37.5309 38.4126 37.4603 38.1657C37.3545 37.9188 37.2839 37.7425 37.2134 37.5661C37.1429 37.3897 37.0723 37.2486 37.037 37.1428ZM43.4921 35.485C44.5503 35.485 45.3615 35.6613 45.9259 36.0493C46.4903 36.4373 46.7725 37.037 46.7725 37.8835C46.7725 38.7301 46.4903 39.365 45.9259 39.7178C45.3615 40.1058 44.5503 40.2821 43.4568 40.2821H42.963V42.6455H41.3757V35.6613C41.7284 35.5908 42.0811 35.5555 42.4691 35.5202C42.8571 35.485 43.2099 35.485 43.4921 35.485ZM43.5979 36.8253C43.4921 36.8253 43.351 36.8253 43.2451 36.8253C43.1393 36.8253 43.0335 36.8253 42.963 36.8606V38.9065H43.4568C44.0212 38.9065 44.4092 38.8359 44.6914 38.6948C44.9735 38.5537 45.1146 38.2716 45.1146 37.8483C45.1146 37.6366 45.0794 37.4955 45.0088 37.3544C44.9383 37.2134 44.8324 37.1075 44.6914 37.037C44.5503 36.9664 44.4092 36.8959 44.1975 36.8606C44.0564 36.8606 43.8448 36.8253 43.5979 36.8253ZM51.6049 42.6455C51.5344 42.3985 51.4286 42.1516 51.358 41.8694C51.2522 41.6225 51.1817 41.3403 51.0758 41.0934H48.3245C48.2187 41.3403 48.1481 41.6225 48.0423 41.8694C47.9365 42.1164 47.866 42.3985 47.7954 42.6102H46.1376C46.4198 41.8342 46.6667 41.1287 46.9136 40.4938C47.1605 39.8589 47.3721 39.2239 47.619 38.6596C47.8307 38.0952 48.0776 37.5308 48.2892 37.037C48.5009 36.5079 48.7478 36.0141 48.9947 35.5202H50.5115C50.7584 36.0141 50.97 36.5079 51.2169 37.037C51.4286 37.5661 51.6755 38.0952 51.8871 38.6596C52.134 39.2239 52.3457 39.8589 52.5926 40.4938C52.8395 41.1287 53.0864 41.8342 53.3686 42.6102H51.6049V42.6455ZM49.7002 37.1428C49.6649 37.2486 49.6296 37.3897 49.5591 37.5661C49.4885 37.7425 49.418 37.9541 49.3122 38.1657C49.2416 38.4126 49.1358 38.6596 49.03 38.9417C48.9242 39.2239 48.8183 39.5061 48.7125 39.8236H50.7584C50.6526 39.5061 50.5467 39.2239 50.4409 38.9417C50.3351 38.6596 50.2293 38.4126 50.1587 38.1657C50.0529 37.9188 49.9824 37.7425 49.9118 37.5661C49.806 37.3897 49.7354 37.2486 49.7002 37.1428ZM55.7319 41.6578C55.7319 41.7636 55.7319 41.8342 55.7319 41.8694C55.7319 41.9047 55.7319 41.94 55.7319 41.9753C55.7319 42.1164 55.7319 42.2222 55.6966 42.3985C55.6614 42.5396 55.6261 42.6807 55.5908 42.8218C55.5556 42.9629 55.485 43.104 55.4145 43.2451C55.3439 43.3862 55.2734 43.5273 55.2028 43.6684L54.4621 43.492C54.5679 43.2098 54.6384 42.9629 54.6737 42.716C54.709 42.4691 54.7443 42.2574 54.7443 42.1164C54.7443 42.0811 54.7443 42.0458 54.7443 42.0105C54.7443 41.9753 54.7443 41.94 54.7443 41.8694C54.7443 41.8342 54.7443 41.7989 54.7443 41.7636C54.7443 41.7283 54.7443 41.6931 54.7443 41.6931H55.7319V41.6578ZM13.4392 45.8553V53.4038H11.746V47.3015H8.92416V53.4038H7.23104V45.8553H13.4392ZM16.6138 49.6296C16.6138 49.9823 16.649 50.335 16.7549 50.6172C16.8607 50.8994 16.9665 51.1816 17.1429 51.3932C17.3192 51.6049 17.5309 51.7813 17.7778 51.8871C18.0247 51.9929 18.3069 52.0634 18.6243 52.0634C18.9418 52.0634 19.224 51.9929 19.4709 51.8871C19.7178 51.7813 19.9295 51.6049 20.1058 51.3932C20.2822 51.1816 20.4233 50.9347 20.4938 50.6172C20.5996 50.335 20.6349 49.9823 20.6349 49.6296C20.6349 49.2768 20.5996 48.9241 20.4938 48.6067C20.388 48.2892 20.2822 48.0423 20.1058 47.8306C19.9295 47.619 19.7178 47.4426 19.4709 47.3368C19.224 47.231 18.9418 47.1604 18.6243 47.1604C18.3069 47.1604 18.0247 47.231 17.7778 47.3368C17.5309 47.4426 17.3192 47.619 17.1429 47.8306C16.9665 48.0423 16.8254 48.2892 16.7549 48.6067C16.649 48.9241 16.6138 49.2416 16.6138 49.6296ZM22.3633 49.6296C22.3633 50.2645 22.2575 50.8289 22.0811 51.3227C21.9048 51.8165 21.6226 52.2045 21.3051 52.5573C20.9877 52.8747 20.5644 53.1216 20.1058 53.298C19.6473 53.4744 19.1534 53.5449 18.6243 53.5449C18.0952 53.5449 17.6367 53.4744 17.1781 53.298C16.7196 53.1216 16.3316 52.8747 15.9788 52.5573C15.6261 52.2398 15.3792 51.8165 15.1675 51.3227C14.9559 50.8289 14.8854 50.2645 14.8854 49.6296C14.8854 48.9947 14.9912 48.4303 15.2028 47.9365C15.4145 47.4426 15.6966 47.0193 16.0141 46.7019C16.3668 46.3844 16.7549 46.1022 17.2134 45.9611C17.672 45.7848 18.1305 45.7142 18.6596 45.7142C19.1887 45.7142 19.6473 45.7848 20.1058 45.9611C20.5644 46.1375 20.9524 46.3844 21.3051 46.7019C21.6578 47.0193 21.9048 47.4426 22.1164 47.9365C22.2575 48.395 22.3633 48.9594 22.3633 49.6296ZM27.0899 47.3015C27.0547 47.7954 27.0547 48.2892 27.0194 48.7477C26.9841 49.2416 26.9136 49.7001 26.843 50.1587C26.7725 50.6172 26.6314 51.0405 26.4903 51.4285C26.3492 51.8165 26.1376 52.1693 25.8554 52.4867C25.5732 52.8042 25.2557 53.0511 24.8325 53.2275C24.4092 53.4038 23.9153 53.5096 23.351 53.5449L23.1746 52.0634C23.7037 51.9929 24.0917 51.8871 24.3739 51.6754C24.6561 51.4638 24.8677 51.1463 25.0088 50.7231C25.1852 50.194 25.3263 49.5238 25.3968 48.6772C25.4674 47.8306 25.5026 46.9135 25.5026 45.8553H30.6526V53.4038H28.9242V47.3015H27.0899ZM36.3668 51.1816C36.1552 51.6754 35.9436 52.0634 35.6966 52.3456C35.4497 52.6631 35.2381 52.91 34.9912 53.0511C34.7443 53.2275 34.4974 53.3333 34.2504 53.4038C34.0035 53.4744 33.7566 53.5096 33.4744 53.5096C33.2275 53.5096 32.9806 53.4744 32.6984 53.4391C32.4162 53.4038 32.1693 53.3333 31.9577 53.2275L32.2751 51.8518C32.6279 51.9929 32.9806 52.0634 33.3333 52.0634C33.545 52.0634 33.7919 52.0282 33.9683 51.9223C34.1799 51.8165 34.3915 51.6049 34.5679 51.2874C34.2857 50.8289 33.9683 50.335 33.7213 49.8412C33.4392 49.3474 33.1922 48.8536 32.9453 48.395C32.6984 47.9365 32.4868 47.4779 32.2751 47.0194C32.0635 46.5961 31.8871 46.1728 31.7108 45.8201H33.5802C33.6861 46.1022 33.8272 46.4197 33.9683 46.7372C34.1093 47.0546 34.2504 47.4074 34.4268 47.7248C34.6032 48.0776 34.7443 48.4303 34.9206 48.7477C35.097 49.1005 35.2381 49.4179 35.3792 49.7707C35.6261 49.1358 35.8377 48.4656 36.0494 47.8306C36.261 47.1604 36.4727 46.4902 36.649 45.8553H38.4832C38.3069 46.4197 38.0952 46.9488 37.9189 47.4074C37.7425 47.9012 37.5661 48.3597 37.3898 48.783C37.2134 49.2063 37.037 49.6296 36.8607 50.0176C36.6843 50.4409 36.5432 50.8289 36.3668 51.1816ZM40.7055 48.0776C40.7055 48.3597 40.7407 48.6067 40.8113 48.783C40.8818 48.9594 40.9877 49.1005 41.1287 49.2063C41.2698 49.3121 41.4109 49.3827 41.6226 49.4179C41.7989 49.4532 42.0106 49.4885 42.2575 49.4885C42.4339 49.4885 42.6102 49.4885 42.8219 49.4532C43.0335 49.4532 43.2099 49.4179 43.4215 49.3827V45.8553H45.1146V53.4038H43.3862V50.8641C43.1393 50.8994 42.8924 50.8994 42.6808 50.9347C42.4339 50.9347 42.2222 50.97 42.0106 50.97C41.552 50.97 41.1287 50.9347 40.776 50.8289C40.388 50.7583 40.0705 50.582 39.8236 50.3703C39.5767 50.1587 39.3651 49.8765 39.224 49.5238C39.0829 49.171 39.0123 48.7125 39.0123 48.1481V45.8553H40.7055V48.0776ZM46.843 53.4038V45.8553H48.5362V50.2998C48.7831 49.9118 49.0653 49.4885 49.3827 49.0652C49.6649 48.6419 49.9824 48.2186 50.2645 47.8306C50.582 47.4426 50.8642 47.0546 51.1464 46.7019C51.4286 46.3492 51.7108 46.067 51.9224 45.8201H53.2981V53.3686H51.6402V48.4303C51.0053 49.171 50.4056 49.9823 49.8413 50.8289C49.2769 51.6754 48.7478 52.522 48.254 53.3686H46.843V53.4038ZM6.80776 58.3774C7.0194 58.2716 7.26631 58.201 7.47795 58.0599C7.72487 57.9541 7.93651 57.813 8.18342 57.6719C8.39506 57.5308 8.6067 57.3897 8.81834 57.2486C9.02998 57.1075 9.20635 56.9312 9.38272 56.7548H10.5467V64.5149H8.88889V58.9417C8.67725 59.0828 8.43034 59.2239 8.14815 59.365C7.86596 59.4708 7.61905 59.6119 7.33686 59.6825L6.80776 58.3774ZM19.5414 64.5149C19.4004 64.268 19.1887 63.9858 18.9771 63.7037C18.7654 63.4215 18.5185 63.104 18.2716 62.8218C18.0247 62.5396 17.7778 62.2222 17.4956 61.9753C17.2134 61.6931 16.9665 61.4462 16.6843 61.2345V64.5149H14.9559V56.7548H16.6843V59.6825C17.1429 59.2239 17.6014 58.7301 18.06 58.201C18.5185 57.6719 18.9418 57.2133 19.3298 56.7548H21.4109C20.8818 57.3897 20.3527 57.9894 19.8236 58.5537C19.2945 59.1181 18.7302 59.7178 18.1305 60.3174C18.7654 60.8465 19.3651 61.4462 19.9295 62.1516C20.4938 62.8571 21.0582 63.6331 21.5873 64.5149H19.5414ZM26.8783 62.2574C26.6667 62.7513 26.4198 63.1393 26.2081 63.4567C25.9612 63.7742 25.7143 64.0211 25.4674 64.1975C25.2205 64.3738 24.9735 64.5149 24.6914 64.5502C24.4444 64.6208 24.1623 64.656 23.9153 64.656C23.6684 64.656 23.3862 64.6208 23.1393 64.5855C22.8571 64.5502 22.6102 64.4797 22.3633 64.3738L22.6808 62.9629C23.0335 63.104 23.4215 63.1746 23.7743 63.1746C24.0212 63.1746 24.2328 63.1393 24.4444 63.0335C24.6561 62.9276 24.8677 62.716 25.0441 62.3633C24.7266 61.8694 24.4444 61.4109 24.1623 60.8818C23.8801 60.388 23.5979 59.8941 23.351 59.4003C23.1041 58.9065 22.8571 58.4479 22.6455 57.9894C22.4339 57.5308 22.2575 57.1428 22.0811 56.7548H24.0212C24.127 57.037 24.2681 57.3544 24.4092 57.6719C24.5503 57.9894 24.7266 58.3421 24.8677 58.6948C25.0441 59.0476 25.1852 59.4003 25.3616 59.753C25.5379 60.1058 25.679 60.4585 25.8554 60.776C26.1023 60.1058 26.3139 59.4356 26.5256 58.7654C26.7372 58.0952 26.9489 57.3897 27.1605 56.7195H29.03C28.8183 57.2839 28.642 57.8483 28.4656 58.3421C28.2892 58.8359 28.0776 59.3298 27.9012 59.753C27.7249 60.2116 27.5485 60.6349 27.3721 61.0229C27.231 61.4814 27.0547 61.8694 26.8783 62.2574ZM36.4374 56.7548V64.5149H34.709V58.2363H31.8166V64.5149H30.0882V56.7548H36.4374ZM39.6825 60.6349C39.6825 61.0229 39.7178 61.3756 39.8236 61.6578C39.9295 61.9753 40.0353 62.2222 40.2116 62.4338C40.388 62.6455 40.5996 62.8218 40.8466 62.9276C41.0935 63.0335 41.3757 63.104 41.7284 63.104C42.0459 63.104 42.328 63.0335 42.6102 62.9276C42.8571 62.8218 43.0688 62.6455 43.2451 62.4338C43.4215 62.2222 43.5626 61.94 43.6332 61.6578C43.739 61.3403 43.7742 61.0229 43.7742 60.6349C43.7742 60.2469 43.739 59.8941 43.6332 59.6119C43.5273 59.2945 43.4215 59.0476 43.2451 58.8007C43.0688 58.589 42.8571 58.4126 42.6102 58.3068C42.3633 58.201 42.0811 58.1305 41.7284 58.1305C41.4109 58.1305 41.0935 58.201 40.8466 58.3068C40.5996 58.4126 40.388 58.589 40.2116 58.8359C40.0353 59.0476 39.8942 59.3298 39.8236 59.6472C39.7531 59.9294 39.6825 60.2469 39.6825 60.6349ZM45.6085 60.6349C45.6085 61.3051 45.5026 61.8694 45.3263 62.3985C45.1146 62.8924 44.8677 63.3156 44.515 63.6684C44.1623 64.0211 43.7742 64.268 43.2804 64.4444C42.8219 64.6208 42.2928 64.6913 41.7637 64.6913C41.2346 64.6913 40.7407 64.6208 40.2469 64.4444C39.7884 64.268 39.3651 64.0211 39.0123 63.6684C38.6596 63.3156 38.3774 62.8924 38.2011 62.3985C37.9894 61.9047 37.8836 61.3051 37.8836 60.6349C37.8836 59.9647 37.9894 59.4003 38.2011 58.8712C38.4127 58.3774 38.6949 57.9541 39.0476 57.6014C39.4003 57.2486 39.8236 57.0017 40.2822 56.8253C40.7407 56.649 41.2346 56.5784 41.7637 56.5784C42.2928 56.5784 42.7866 56.649 43.2804 56.8253C43.739 57.0017 44.1623 57.2486 44.515 57.6014C44.8677 57.9541 45.1499 58.3774 45.3263 58.8712C45.5026 59.365 45.6085 59.9647 45.6085 60.6349ZM51.746 56.7548H53.5097V64.5149H51.746V61.2345H48.8183V64.5149H47.0899V56.7548H48.8183V59.7178H51.746V56.7548Z" fill="black" stroke="black" stroke-width="0.7087" stroke-miterlimit="22.9256" stroke-linecap="round" stroke-linejoin="round"/>
</g>
<defs>
<linearGradient id="paint0_linear" x1="29.9961" y1="7.21968" x2="29.9961" y2="66.8489" gradientUnits="userSpaceOnUse">
<stop stop-color="#FFED00"/>
<stop offset="1" stop-color="#E84E0F"/>
</linearGradient>
<clipPath id="clip0">
<rect width="60" height="68.3598" fill="white"/>
</clipPath>
</defs>
</svg>
